<?xml version="1.0" encoding="UTF-8"?><svg id="Layer_2" xmlns="http://www.w3.org/2000/svg" viewBox="0 0 375.74 416.29"><g id="Layer_1-2"><path d="M180.62,93.08c.22.06.58.91,1.08,1.11,1.84.73,9-.95,11.64-1.11,8.63-.52,18.67.35,27.26,1.5,49.78,6.68,85.06,45.63,103.42,90.1l.94,4.1,2.9,6.46c5.65,17.4,7.12,34.24,11.26,51.8,4.95,21,14.94,48.09,27.18,65.86.67.98,3.56,3.64,3.07,4.63-.56,1.13-1.94,1.77-3.14,1.21-.34-.16-4.81-4.35-5.52-5.04-2.03-1.97-9.77-12.91-12.74-7.94-1.17,1.96.29,8.4-.03,11.48-.16,1.52-2.63,11.27-3.38,11.73l-15.75-.4c.74-4.92,2.54-10.14,2.9-15.09.69-9.58-1.29-24.81-6.17-33.19-.98-1.69-6.48-9.96-8.47-5.92-1.28,2.59,2.43,5.46,3.8,7.71,4.93,8.16,6.29,22.46,5.55,31.85-.41,5.12-2.53,10.05-2.87,15.12l-33.09,1.43c1.31-2.53,2.3-15.47-3.04-12.02-1.55,1-.05,10.37-2.56,12.53l-50.22,1.45c-2.24-3.27-1.83-7.14-2.14-10.98,9.06-3.5,17.28-9.05,23.91-16.13.8-.85,2.81-4,3.35-4.33,1.01-.62,4.39-.11,5.94-.29,8.85-1.06,19.71-12.1,22.32-20.36,3.41-10.78,2.77-29.45-13.39-23.71-.74-.74.19-16.22.01-18.96-.92-14.46-11.16-32.6-19.49-44.3-3.22-4.52-7.28-8.02-10.67-12.37,1.39-4.97,1.69-10.1,1.38-15.27-.19-3.29-.35-12.52-5.27-10.52-4.46,3.52-8.71,7.91-13.49,10.97-1.61,1.03-4,2.76-5.88,2.66-3.14-.17-11.14-3.06-14.58-4.17-13.45-4.33-26.75-9.05-40.4-12.83-9.64-2.67-19.35-5.42-29.25-6.96-.69-.61,5.45-10.92,6.31-12.15,1.68-2.39,10.91-11.97,10.91-13.51.01-4.61-6.05-1.56-8.08-.44-6.87,3.78-17.55,13.43-22.83,19.38-1.23,1.39-4.84,6.89-5.53,7.42-.9.69-7.57,1.89-9.47,2.52-12.33,4.09-28.23,14.73-34.72,26.19-1.13,1.99-4.01,6.21-.4,7.04-.11.09-.45,2.41-.48,2.88-3.32-2.21-4.07.62-5.15,3.24-3.2,7.78-4.35,16.08-6.6,24.1-4.97,17.74-13.02,36.12-5.75,54.67,6.37,16.23,22.22,33.21,37.95,40.71,2.19,1.04,5.26,1.74,7.23,2.84.54.3.82-.03.61,1.06-8.6,2.27-16.73,9.14-22.05,16.08-1.52,1.98-3.25,3.92-3.61,6.46-3.83-4.19-5.49-10.13-6.41-15.65-.49-2.98-.38-7.76-1.12-10.39-.53-1.86-3.78-1.89-4.21.4-.75,3.97.88,14.41,2.16,18.43.91,2.85,2.7,5.32,3.58,8.17-.46.51-12.64,1.63-13.58,1.35-2.37-.72-5.17-13.32-5.54-16.03-.24-1.76-.58-4.46-.57-6.18.01-3.05,1.84-10.02,1.39-12.35-.39-2.03-2.24-2.9-4.03-1.82-2.12,1.28-5.47,13.35-6.69,16.33-.63,1.53-3.81,8.5-5.15,8.55s-6.22-1.48-6.51-3.09c-.12-.66,2.24-4.62,2.68-5.8,10.47-28.04,7.49-57.53,11.21-86.62,4.48-34.95,19.91-73.91,47.66-96.7,18.36-15.08,49.41-28.76,72.56-33.91,1.96-.44,10.11-1.4,10.93-2.02.72-.55.74-1.62.67-2.45,1.53.57,4.56-.92,6.23-.48Z" fill="#fddc6f"/><path d="M368.14,333.36c-1.85,10.05-2.27,14.36-7.66,23.27-10.7,17.7-19.6,23.91-37.58,33.4-36.45,19.26-77.98,21.45-118.54,24.38-40.05,2.9-90.08,4.28-128.07-10.07-14.1-5.33-35.5-13.76-47.96-21.58-9.61-6.04-22.45-20.78-26.69-31.34-1.18-2.92-2.13-9.57-1.36-12.48.14-.52.93-.27.97-.32.28.7.59,1.44,1.26,1.87,1.02.65,6.64-.05,8.6.03,11.13.46,22.39,1.74,33.58,1.48,13.76-.32,27.68-3.64,41.2-3.88,2.32-.04,6.58-.33,8.63.05.31.06,5.17,2.78,5.41,2.98.46.37,1.47,3.43,2.12,4.35,2.52,3.55,7.4,4.75,11.56,4.04,1.47-.25,3.42-1.77,4.43-1.77.91,0,2.52,1.17,3.88,1.36,4.67.66,10.57-.46,14.36-3.3.59-.44.73-1.61,1.5-1.86,1.07-.35,2.67-.04,4.27-.53,2-.61,3.11-2.34,5-2.9.47,8.48,6.96,14.71,15.61,13.92,2.06-.19,3.46-1.31,4.82-1.45,3.19-.32,5.08,2,10.17.13,2.79-1.02,3.45-3.28,4.41-3.74,3.11-1.5,7.64.35,11.04-3.82.83-1.01,1.28-3.44,2.02-3.76,2.22-.97,9.49-2.13,12.26-2.58,20.26-3.27,39.94-1.41,60.31-2.04,18.35-.56,36.79-2.75,55.11-3.4,15.08-.53,30.4,1.97,45.34-.46Z" fill="#a18872"/><path d="M375.72,316.92c-.2-1.46-5.98-8.34-7.31-10.46-18.84-30.17-23.19-59.2-30.16-93.09-11.47-55.75-54.29-114.96-113.82-123.58-10.94-1.58-25.93-2.52-36.8-.97-2.74.4-7.47.51-7.02,4.26.22.06.58.91,1.08,1.11,1.84.73,9-.95,11.64-1.11,8.63-.52,18.67.35,27.26,1.51,49.78,6.68,85.06,45.62,103.42,90.09,1.58,3.81,2.57,6.65,3.84,10.55,5.65,17.4,7.12,34.24,11.26,51.81,4.96,21,14.94,48.09,27.19,65.86.67.97,3.56,3.63,3.06,4.63-.56,1.12-1.94,1.76-3.13,1.2-.34-.15-4.81-4.35-5.52-5.04-2.04-1.97-9.78-12.91-12.75-7.94-1.17,1.97.29,8.4-.03,11.48-.15,1.52-2.63,11.27-3.37,11.73l-15.75-.4c.74-4.92,2.54-10.14,2.89-15.09.7-9.58-1.28-24.81-6.17-33.19-.98-1.68-6.47-9.96-8.47-5.91-1.28,2.59,2.43,5.45,3.8,7.71,4.92,8.16,6.29,22.46,5.54,31.85-.4,5.11-2.53,10.05-2.86,15.12l-33.1,1.43c1.32-2.53,2.3-15.47-3.04-12.02-1.54,1-.05,10.36-2.55,12.52l-50.22,1.45c-2.24-3.27-1.83-7.14-2.14-10.99,9.06-3.5,17.28-9.04,23.91-16.12.8-.85,2.81-4,3.35-4.33,1.01-.62,4.39-.11,5.94-.3,8.85-1.05,19.71-12.09,22.32-20.36,3.41-10.78,2.77-29.45-13.39-23.71-.74-.74.19-16.22.01-18.96-.91-14.46-11.16-32.6-19.48-44.3-3.22-4.52-7.28-8.03-10.68-12.37,1.4-4.97,1.69-10.1,1.39-15.27-.19-3.29-.35-12.52-5.28-10.52-4.45,3.52-8.7,7.91-13.49,10.97-1.61,1.03-4,2.77-5.88,2.66-3.14-.17-11.14-3.06-14.59-4.16-13.45-4.33-26.74-9.05-40.4-12.84-9.64-2.67-19.34-5.42-29.25-6.96-.69-.61,5.45-10.92,6.31-12.14,1.69-2.39,10.91-11.97,10.92-13.51.01-4.61-6.05-1.56-8.08-.44-6.87,3.78-17.55,13.42-22.83,19.38-1.23,1.39-4.83,6.89-5.53,7.41-.9.69-7.57,1.9-9.46,2.53-12.34,4.08-28.23,14.73-34.72,26.19-1.13,1.99-4.01,6.21-.4,7.04.1-.08,1.07.1,1.55-.11,1.38-.6,2.72-4.23,3.82-5.8,6.73-9.64,18.96-17.93,30-21.79,2.72-.95,11.14-2.58,12.57-3.74,1.16-.96,2.84-4.47,4.09-5.98,1.56-1.87,4.01-4.54,5.75-6.24.6-.58,4.52-4.17,4.82-4.3.59-.25.89.1.7.71-.38,1.24-2.66,4.38-3.43,6.16-1.73,3.98-4.36,9,1.8,9.87,19.11,2.72,40.02,9.48,58.61,15.25,6.9,2.15,13.59,5.25,20.72,7.09,2.71.7,6.97,2.13,9.61,1.46,5.21-1.34,11.82-8.23,16.29-11.29.19,2.57,1.03,5.9,1,8.39-.03,3.38-2.68,9.08-1.85,11.89.52,1.79,8.33,9,10.16,11.42,7.45,9.78,19.07,30.21,19.97,42.38.66,9.06-1.1,18.19-.4,27.26,3.38,4.76,4-1.27,7.14-2.73,10.38-4.82,9,10.09,7.39,16.02-1.99,7.29-9.99,16.21-17.48,18.01-2.62.64-7.49-.06-9.28,1.15-1.02.7-4.44,5.83-5.84,7.23-9.63,9.7-25.78,16.58-39.35,17.72-.87.08-5.87.43-6.17.38-.53-.11-1.14-1.1-1.88-1.43-8.18-3.67-24.28-6.48-33.13-5.6-3.87.39-7.7,2.73-10.84,3.12-6.25.76-17.43-.42-23.51-2.45-8.69-2.91-13.22-5.63-22.91-7.79-18.23-4.08-27.66-9.13-39.92-23.15-18.23-20.85-18.01-32.47-11.03-58.51,2.4-8.93,4.57-17.96,6.85-26.96,1.35-5.3,3.42-9.39,3.7-14.77-3.32-2.2-4.07.62-5.15,3.24-3.21,7.79-4.35,16.08-6.6,24.1-4.97,17.74-13.02,36.12-5.75,54.67,6.37,16.23,22.22,33.21,37.95,40.7,2.19,1.05,5.26,1.74,7.24,2.84.54.3.81-.04.61,1.06-8.6,2.27-16.73,9.15-22.05,16.09-1.52,1.98-3.25,3.91-3.61,6.46-3.83-4.2-5.49-10.13-6.41-15.66-.49-2.98-.37-7.76-1.12-10.38-.53-1.86-3.78-1.9-4.21.39-.74,3.98.88,14.41,2.17,18.44.91,2.85,2.7,5.31,3.58,8.16-.46.51-12.65,1.64-13.58,1.35-2.37-.72-5.18-13.32-5.55-16.03-.24-1.76-.58-4.46-.57-6.18.01-3.05,1.84-10.02,1.39-12.35-.39-2.03-2.24-2.9-4.03-1.82-2.12,1.27-5.46,13.35-6.69,16.33-.63,1.52-3.81,8.49-5.15,8.54-1.36.05-6.22-1.48-6.51-3.09-.12-.66,2.24-4.62,2.68-5.8,10.47-28.05,7.49-57.53,11.22-86.63,4.47-34.94,19.9-73.9,47.66-96.69,18.36-15.08,49.41-28.76,72.56-33.91,1.96-.44,10.11-1.4,10.93-2.02.72-.56.74-1.62.67-2.45-.34-.13-.96-1.79-3.11-1.84-7.84-.17-23.02,4.85-30.71,7.59-26.9,9.57-54.96,24.35-72.09,47.81-18.4,25.22-28.23,53.91-31.68,84.86-2.74,24.59-.41,61.98-11.48,83.96-1.62,3.2-4.65,4.34-1.74,8.28,2.6,3.5,12.69,7.54,16.04,3.62l5.27-8.87c.55,5.95,2.56,11.61,4.32,17.26-5.19.53-10.38.57-15.6.51-1.14-.02-2.19-.5-3.32-.52-8.81-.18-17.64.06-26.42-.88-2.73.08-2.16,2.72-2.62,3.29.28.7.59,1.45,1.26,1.88,1.02.65,6.64-.06,8.59.02,11.14.46,22.39,1.75,33.58,1.48,13.76-.32,27.68-3.63,41.2-3.88,2.32-.04,6.59-.33,8.63.05.31.05,5.17,2.78,5.42,2.98.46.37,1.46,3.43,2.12,4.35,2.52,3.55,7.4,4.75,11.55,4.04,1.48-.25,3.42-1.77,4.43-1.77.91,0,2.52,1.17,3.88,1.36,4.67.67,10.57-.45,14.36-3.3.59-.44.73-1.6,1.5-1.85,1.08-.35,2.67-.04,4.27-.53,2-.61,3.12-2.34,5.01-2.9.46,8.48,6.96,14.71,15.61,13.92,2.06-.19,3.46-1.32,4.82-1.45,3.19-.32,5.08,2,10.17.13,2.78-1.02,3.45-3.28,4.4-3.74,3.11-1.5,7.65.35,11.05-3.82.82-1.02,1.28-3.44,2.02-3.77,2.22-.97,9.49-2.13,12.26-2.58,20.26-3.26,39.94-1.41,60.31-2.03,18.35-.57,36.79-2.76,55.11-3.4,15.08-.53,30.41,1.96,45.35-.46.27-1.46,1.69-2.88-.01-4.55-1.39-1.35-7.17.14-9.33.25-2.78.15-5.62-.14-8.41-.02,1.31-5.02,3.2-10.06,2.88-15.34l10.31,9.59c3.49,4.16,12.63-2.68,12.14-6.37ZM143.21,336.97c-3.97,3.73-5.47.98-8.17,1.86-1.59.51-1.63,2.46-3.18,3.57-2.24,1.61-7.27,2.38-9.86,1.36-1.32-.51-2.64-2.15-4.01-2.25-2.64-.18-4.24,4.7-9.67,2.52-2.49-1-2.87-4.95-4.43-6.61-1.17-1.23-3.95-1.68-5.72-3.39-1.2-1.17-3.4-5.59-4.21-5.87-3.36-1.17-4.22,2.12-3.03,4.72l-10.55.48c-.36-.31,1.58-2.68,1.93-3.11,12.43-15.18,29.5-21.92,47.79-11.85,2.35,1.3,11.93,7.68,13.42,9.37,2.74,3.12,2.73,6.34-.31,9.2ZM150.16,329.04c-1.23-2.74-3.13-4.5-5.04-6.71l9.11.48-4.07,6.23ZM190.46,338.65c-.98,1.41-.74,3.21-2.47,4.24-2.79,1.67-6.06.41-8.48,1.12-1.99.58-1.67,4.38-5.91,4.68-2.56.18-3.72-1.87-5.71-1.94-3.19-.12-4.19,4.23-10.44,1.86-9.79-3.72-3.54-18.8,2.31-23.87,8.5-7.37,28.77-5.27,38.73-1.34,3.72,1.47,7.63,6.94,8.02,10.92-3.54.68-14.11,1.57-16.05,4.33ZM228.57,332.4c-3,.04-5.86.52-8.89.5-1.51-.01-2.91-.64-4.29-.54-2.09.16-2.58,2.13-4.28-.48-.27-.42-2.07-4.12-2.19-4.53-.29-.99.27-.58.71-.69,3.42-.85,7.72-.88,11.37-1.6,2.24-.43,4.41-1.2,6.61-1.77.74,2.98,1.15,6.03.96,9.11Z" fill="#624f3c"/><path d="M44.66,82.03c-2.71-5.6-9.71-10.84-16.19-9.95-10.29,1.41-17.95,17.43-11.6,26.23,4.69,6.51,15.33,8.45,21.74,3.6,6.2-4.69,9.64-12.47,6.05-19.88ZM30.66,99.61c-8.89.15-13.91-7.34-9.84-15.49,1.22-2.43,5.86-6.46,8.61-6.78,5.02-.58,11.46,5.87,11.58,10.75.11,4.75-5.39,11.45-10.35,11.52Z" fill="#624f3e"/><path d="M73.54,39.48c2.71-.53,3.47-.12,5.17,1.8,3.47,3.9,4.7,7.23.73,11.29-1.35,1.38-6.98,5.05-7.48,5.98-.65,1.21,3.65,9.32,4.42,9.55,1.96.57,5.91-4.55,8.61-2.4,3.65,2.9-4.34,7.11-6.52,7.95-1.99.77-3.18,1.24-5.04-.23s-7.47-12.14-7.47-14.64c.02-5.09,11.13-8.77,10.52-11.87-1.17-5.93-8.44,2.21-10.26,2.52-2.59.45-3.9-1.52-2.84-3.83.71-1.56,8.37-5.78,10.17-6.13Z" fill="#63513f"/><path d="M162.25,5.41c-2.39.54-2.1,2.32-3.02,3.7-.8,1.2-1.82,1.75-2.37,3.39-3.04,9.12,5.92,16.68,14.13,10.77,9.45-6.81,2.71-20.4-8.74-17.86ZM162.05,19.09c-2.56-3.06.3-5.38,1.54-8.02,2.66-1.78,6.06.53,6.75,3.36.85,3.53-5.28,8.26-8.29,4.66Z" fill="#62503e"/><path d="M104.24,54.88c-2.35,5.5-5.06-.16-5.44-.19-1.57-.13-6.28,3.36-9.07,3.42-3.44.07-2.76-1.43-3.12-3.88,1.7-1.03,10.5-3.07,10.54-5,.01-.46-.29-1.95-1.11-1.64-3.41,1.28-5.76,4.8-9.43,4.72-.06-.15-1.25-.71-1.34-1.75-.18-2.27,5.18-5.41,7.02-6.71.62-.44,1.99-.72,2.26-1.11.95-1.35-2.4-6.64.21-7.94.91-.45,1.87-.38,2.68.21,1.93,1.4,4.99,16.75,6.8,19.87Z" fill="#63513f"/><path d="M115.25,14.98c-3.19,2.37-6.51,2.01-8.44,5.98-5.13,10.54,9.67,18.99,15.69,9.93,4.35-6.54.21-14.6-7.25-15.91ZM113.01,29.03c-3.24-2.04-3.21-7.08.82-7.78,8.27-1.43,5.5,11.74-.82,7.78Z" fill="#62503e"/><path d="M143.56,16.9c3.76-.58,2.71,5.42,3.02,7.82.44,3.36,3.07,14.94,2.3,17.2-1,2.97-4.49-.12-4.86-.09-2.24.2-8.68,5.11-11.24,6.06-2.66.75-3.87-1.82-2.54-4.01s8.65-4.38,10.76-6.03c3.78-2.95-.23-13.29.3-17.93.16-1.38.72-2.79,2.28-3.03Z" fill="#62503e"/><path d="M207.83.15c7.08-1.2,11.38,4.94,10.63,11.58-.53,4.66-2.48,6.81-5.22,10.12-.78.94-.47,2.36-2.18,2.64-3.41.57-4.26-3.05-2.62-5.52.66-1,2.18-1.87,2.88-2.87,2.88-4.12,3.23-12.77-3.87-10.58-3.54,1.1-1.29,5.13-4.12,5.41s-3.42-2.86-2.82-5.16c.68-2.58,4.81-5.2,7.32-5.62Z" fill="#63513f"/><path d="M176.3,35.05c1.58.42,2.37-1.7,3.67-1.82,3-.28,3.82,4.82.16,6.37-1.69.72-13.56,2.66-15.59,2.68-1.89.01-2.22-.27-2.2-2.2.02-2.59,1.68-2.06,1.9-2.92.34-1.34-3.2-7.65,1.27-7.92s1.25,6.12,5.51,6.76c.29-.36.35-6.35.51-7.41.58-3.87,4.77-2.73,4.77-1.46v7.91Z" fill="#63513f"/><path d="M121.57,44.7c-1.52-.96-5.11,2.43-6.53,2.73-3.35.72-3.92-2.66-1.82-4.72l17.4-9.96c4.46-.39,4.24,3.77,1.1,5.92-2.1,1.44-6.49,1.21-5.57,4.54.55,1.99,7.93,11.53.5,10.07-2.24-.44-4.33-8.09-5.09-8.58Z" fill="#63513f"/><path d="M54,72.93c-.84-.64-8.26,6.9-9.02,1.57-.43-3.01,6.07-5.41,6.19-6.19.26-1.62-3.28-4.77-1.72-7.37.54-.9,2.06-1.06,2.99-.61,1.84.9,6.31,12.12,8.19,14.39.09,7.03-5.9,2.58-6.63-1.78Z" fill="#63513f"/><path d="M209.73,31.29c4.12-1.22,4.09,5.7.13,4.52-2.15-.64-1.9-4-.13-4.52Z" fill="#63513f"/><path d="M276.1,261.23c-3.14,1.46-3.76,7.49-7.14,2.73-.7-9.07,1.06-18.2.4-27.26-.9-12.17-12.52-32.6-19.97-42.38-1.83-2.42-9.64-9.63-10.16-11.42-.83-2.81,1.82-8.51,1.85-11.89.03-2.49-.81-5.82-1-8.39-4.47,3.06-11.08,9.95-16.29,11.29-2.64.67-6.9-.76-9.61-1.46-7.13-1.84-13.82-4.94-20.72-7.09-18.59-5.77-39.5-12.53-58.61-15.25-6.16-.87-3.53-5.89-1.8-9.87.77-1.78,3.05-4.92,3.43-6.16.19-.61-.11-.96-.7-.71-.3.13-4.22,3.72-4.82,4.3-1.74,1.7-4.19,4.37-5.75,6.24-1.25,1.51-2.93,5.02-4.09,5.98-1.43,1.16-9.85,2.79-12.57,3.74-11.04,3.86-23.27,12.15-30,21.79-1.1,1.57-2.44,5.2-3.82,5.8-.48.21-1.45.03-1.55.11-.11.09-.45,2.41-.48,2.87-.28,5.38-2.35,9.47-3.7,14.77-2.28,9-4.45,18.03-6.85,26.96,9.77,3.85,19.02,10.22,23.11,20.3,4.05,9.99,2.16,18.38-2.88,27.5-2.17,3.91-5.24,8.53-9.2,10.71,12.26,14.02,21.69,19.07,39.92,23.15,9.69,2.16,14.22,4.88,22.91,7.79,6.08,2.03,17.26,3.21,23.51,2.45,3.14-.39,6.97-2.73,10.84-3.12,8.85-.88,24.95,1.93,33.13,5.6.74.33,1.35,1.32,1.88,1.43.3.05,5.3-.3,6.17-.38,13.57-1.14,29.72-8.02,39.35-17.72,1.4-1.4,4.82-6.53,5.84-7.23,1.79-1.21,6.66-.51,9.28-1.15,7.49-1.8,15.49-10.72,17.48-18.01,1.61-5.93,2.99-20.84-7.39-16.02ZM195.82,175.66c2.42-.72,11.2,4.24,11.93,6.61.67,2.15-1.24,3.91-3.29,3.29-.55-.16-2.67-2.34-3.74-3-1.19-.73-5.22-2.34-5.72-2.91-.97-1.08-.7-3.53.82-3.99ZM152.21,230.36c6.82-.86,10.5,12.18,1.67,13.68-10.84,1.84-11.45-12.45-1.67-13.68ZM133.48,230.35c9.65-.85,9.82,14.21-.38,12.15-8.27-1.67-5.88-11.59.38-12.15ZM91.29,178.09c.5-1.14,6.21-7.43,7.17-7.71,2.54-.76,3.64,1.37,2.65,3.63-.24.57-5.43,6.35-6.11,6.83-2.48,1.76-4.89-.08-3.71-2.75ZM80.17,227.81c-1.68-2.85-6.51-12.8-6.9-15.68-.12-.87-.07-2.78,1.35-2.51-.13-1.81-.37-4.43,1.8-5.16,4.52-1.51,12.35-1.65,17.48-2.65,8.34-1.63,18.35-5.37,26.58-6.04,2.78-.22,4.34-.15,5.94,2.34,1.8-.2,1.94.86,2.37,2.19,2.53,7.86.15,20.11-2.97,27.67-9.06,21.97-34.87,18.01-45.65-.16ZM158.9,304.98c-1.28-.37-5.97-7.26-9.46-8.79-4.22-1.86-13.87-2.14-17.6.87-1.04.83-3.01,4.81-4.97,1.56-1.87-3.11,2.8-6.2,5.31-7.22,7.57-3.05,17.83-2.19,24.2,3.12,1.58,1.32,2.6,3.2,3.84,4.32.56.51,1.74.55,2.21,1.14,1.81,2.29-.53,5.88-3.53,5ZM179.99,247.9c-6.56-3.65-10.43-7.7-11.37-15.26-.94-7.58-.72-18.09,2.46-25.12,4.19-9.26,7.12-4.76,13.86-1.98,12.41,5.11,27.21,13.48,39.3,17.29,1.83.58,3.68-.58,4.23,2.01.71,3.29-1.75,4.58-2.78,6.84-.12.28.2,1.12-.04,1.4-.18.2-.81-.04-.91.04-.51.39-.69.73-.96.96.23,1.14-.46,1.47-.96,2.17-10.33,14.57-26.34,20.83-42.83,11.65ZM253.98,293.3c-14.63,17.91-44.39,19.27-55.23-3.26-8.92-18.56,7.33-42.73,27.33-44.79,7.44-.76,12.38.3,18.76,3.98,5.17,2.98,15.72,11.82,15.89,18.2.24,8.94-.92,18.73-6.75,25.87ZM276.61,274.93c-.73,1.19.79,10.26-3.6,9.88-2.65-.23-1.95-3.85-1.76-5.65-2.01,1.04-4.05,6.97-6.96,4.33-2.45-2.23,3.32-7.88,5.04-9.37,1.94-1.67,10.98-8.31,11.92-3.23.61,3.27-4.12,3.2-4.64,4.04Z" fill="#fdfdfd"/><path d="M327.85,195.23l-2.9-6.46-.94-4.1c1.57,3.81,2.57,6.65,3.84,10.55Z" fill="#fdc4b9"/><path d="M143.52,327.77c2.75,3.12,2.73,6.34-.3,9.2-3.98,3.73-5.47.99-8.18,1.86-1.59.51-1.63,2.46-3.17,3.58-2.24,1.61-7.27,2.37-9.86,1.36-1.33-.52-2.65-2.15-4.01-2.25-2.65-.18-4.24,4.7-9.68,2.51-2.49-1-2.87-4.95-4.43-6.6-1.17-1.23-3.95-1.69-5.72-3.4-1.21-1.17-3.4-5.59-4.21-5.87-3.36-1.17-4.22,2.12-3.04,4.72l-10.55.48c-.36-.31,1.58-2.68,1.93-3.1,12.43-15.18,29.5-21.93,47.79-11.85,2.35,1.29,11.93,7.68,13.41,9.37Z" fill="#fcfcfc"/><path d="M73.19,284.44c-18.24-20.85-18.01-32.47-11.03-58.51,9.77,3.85,19.02,10.22,23.11,20.3s2.16,18.39-2.88,27.51c-2.16,3.91-5.24,8.53-9.19,10.71Z" fill="#fdc4b9"/><path d="M206.52,334.31c-3.54.68-14.11,1.58-16.05,4.34-.99,1.4-.74,3.21-2.48,4.24-2.79,1.67-6.05.41-8.47,1.12-1.99.58-1.68,4.38-5.91,4.68-2.57.18-3.72-1.87-5.71-1.94-3.19-.11-4.19,4.23-10.44,1.86-9.8-3.72-3.54-18.79,2.31-23.87,8.5-7.37,28.76-5.27,38.72-1.34,3.72,1.47,7.64,6.94,8.03,10.92Z" fill="#fcfcfc"/><path d="M227.61,323.28c.74,2.98,1.16,6.03.97,9.12-3.01.04-5.86.52-8.9.5-1.5,0-2.9-.64-4.29-.54-2.09.15-2.58,2.12-4.28-.49-.27-.42-2.07-4.12-2.19-4.52-.29-.99.27-.59.71-.7,3.41-.84,7.71-.88,11.36-1.59,2.24-.44,4.41-1.21,6.61-1.78Z" fill="#f8f8f7"/><path d="M154.24,322.81l-4.07,6.23c-1.23-2.74-3.13-4.5-5.04-6.71l9.11.48Z" fill="#eceae8"/><path d="M226.08,245.25c7.44-.76,12.39.29,18.77,3.97,5.17,2.98,15.72,11.82,15.89,18.2.24,8.94-.92,18.73-6.75,25.87-14.63,17.91-44.39,19.27-55.22-3.26-8.93-18.56,7.33-42.73,27.32-44.79Z" fill="#fec4ba"/><path d="M126.42,198.11c-1.6-2.49-3.16-2.56-5.94-2.34-8.23.67-18.24,4.41-26.58,6.04-5.13,1-12.96,1.14-17.48,2.65-2.17.73-1.93,3.35-1.8,5.16.39,5.3,5.69,15.79,9.12,19.9,7.76,9.27,25.2,12.67,35.02,4.81,8.31-6.65,13.47-27.13,7.66-36.22ZM123.53,212.73c-1.59,17.64-14.67,26.26-31.01,17.6-6.45-3.42-11.64-14.7-12.61-21.65l16.77-2.41c-4.28,4.81-1.29,11.57,5.49,10.51,3.9-.6,6.56-5.42,4.11-8.84l-3.84-3.11,18.93-3.86c2.7.38,2.36,9.58,2.16,11.76Z" fill="#614f3e"/><path d="M228.47,224.84c-.55-2.59-2.4-1.43-4.23-2.01-12.09-3.81-26.89-12.18-39.3-17.29-6.74-2.78-9.67-7.28-13.86,1.98-3.18,7.03-3.4,17.54-2.46,25.12,1.51.07,1.84,2.62,2.67,3.81,8.56,12.24,27.71,12.71,40.12,6.61,4.84-2.39,8.33-5.55,12.37-8.98.27-.23.45-.57.96-.96l.95-1.44c1.03-2.26,3.49-3.55,2.78-6.84ZM213.38,235.91c-10.96,7.23-31.5,9.53-38.73-3.78-2.79-5.14-1.35-16.75.8-22.16.32-.8.95-2.78,1.96-2.69l44.45,20.09c.96,1.26-7.3,7.76-8.48,8.54Z" fill="#624f3e"/><path d="M126.42,198.11c1.8-.21,1.94.86,2.37,2.19,2.53,7.86.15,20.12-2.96,27.68-9.06,21.96-34.87,18.01-45.65-.16-1.69-2.84-6.51-12.8-6.91-15.68-.12-.87-.07-2.79,1.35-2.51.39,5.3,5.69,15.79,9.12,19.89,7.76,9.27,25.2,12.67,35.01,4.82,8.31-6.65,13.47-27.13,7.66-36.22Z" fill="#c6cbcf"/><path d="M168.63,232.64c1.51.07,1.84,2.62,2.67,3.81,8.56,12.24,27.71,12.71,40.12,6.61,4.85-2.38,8.33-5.54,12.37-8.97.24,1.14-.46,1.46-.95,2.16-10.34,14.58-26.34,20.83-42.84,11.65-6.55-3.65-10.43-7.69-11.36-15.25Z" fill="#c6cbcf"/><path d="M131.84,297.06c-1.04.84-3.01,4.81-4.97,1.56s2.8-6.2,5.31-7.21c7.57-3.06,17.83-2.19,24.2,3.12,1.58,1.32,2.6,3.2,3.84,4.32.56.51,1.75.55,2.21,1.14,1.81,2.29-.53,5.88-3.54,5-1.28-.37-5.97-7.26-9.46-8.79-4.22-1.86-13.87-2.14-17.6.87Z" fill="#63513f"/><path d="M152.21,230.36c-9.78,1.23-9.17,15.52,1.67,13.68,8.83-1.5,5.15-14.54-1.67-13.68ZM154.19,238.83c-.61.9-4.83.82-4.22-1.53.91-3.48,5.52-.4,4.22,1.53Z" fill="#62503e"/><path d="M276.62,274.92c-.73,1.19.78,10.27-3.6,9.89-2.65-.23-1.95-3.85-1.76-5.65-2.02,1.03-4.05,6.97-6.96,4.33-2.45-2.23,3.32-7.88,5.04-9.37,1.94-1.67,10.98-8.31,11.92-3.23.61,3.26-4.12,3.19-4.64,4.03Z" fill="#63513f"/><path d="M133.48,230.35c-6.26.56-8.65,10.48-.38,12.15,10.2,2.06,10.03-13,.38-12.15ZM136.01,237.43c-4.4,1.95-4.14-3.28-1.46-2.17.43.18,1.82,1.69,1.46,2.17Z" fill="#62503e"/><path d="M195.82,175.66c2.42-.73,11.2,4.24,11.93,6.61.67,2.15-1.24,3.91-3.29,3.29-.54-.16-2.67-2.33-3.74-3-1.19-.73-5.22-2.34-5.72-2.91-.96-1.08-.7-3.54.82-3.99Z" fill="#63513f"/><path d="M98.47,170.38c2.54-.75,3.63,1.37,2.65,3.63-.25.57-5.43,6.35-6.11,6.83-2.48,1.76-4.89-.08-3.71-2.75.5-1.14,6.21-7.43,7.18-7.72Z" fill="#63513f"/><path d="M225.7,231.68c-.12.27.2,1.12-.05,1.4-.18.2-.8-.04-.91.04l.96-1.44Z" fill="#c6cbcf"/><path d="M79.91,208.67l16.77-2.41c-4.28,4.81-1.3,11.57,5.49,10.51,3.9-.61,6.57-5.42,4.11-8.84l-3.84-3.11,18.93-3.86c2.7.38,2.36,9.58,2.16,11.76-1.59,17.64-14.67,26.26-31.01,17.6-6.45-3.42-11.64-14.7-12.61-21.65Z" fill="#fbfbfb"/><path d="M221.86,227.37l-44.45-20.09c-1.01-.09-1.64,1.89-1.96,2.69-2.15,5.41-3.59,17.02-.8,22.16,7.23,13.31,27.77,11.01,38.73,3.78,1.18-.78,9.44-7.28,8.48-8.54ZM182.55,219.51c.18-1.87,2.34-4.6,4.17-5,2.57-.56,6.61,1.44,7.22,4.08,2.2,9.54-12.18,9.24-11.39.92Z" fill="#fbfbfb"/><path d="M154.19,238.83c-.6.9-4.83.82-4.21-1.54.91-3.48,5.51-.4,4.21,1.54Z" fill="#eceae8"/><path d="M136.01,237.43c-4.4,1.94-4.14-3.28-1.46-2.17.43.18,1.82,1.69,1.46,2.17Z" fill="#eceae8"/><path d="M186.72,214.51c2.57-.56,6.61,1.44,7.22,4.08,2.2,9.54-12.17,9.24-11.38.92.18-1.88,2.33-4.6,4.16-5Z" fill="#624f3e"/></g></svg>