<?xml version="1.0" encoding="UTF-8"?><svg id="Layer_2" xmlns="http://www.w3.org/2000/svg" viewBox="0 0 511.91 426.66"><g id="Layer_1-2"><path d="M301.07,194.45l-6.47-27.34c8.21-1.92,16.61-2.98,24.98-4.05,3.15-2.27,1.14-5.88-2.66-5.07l-23.11,3.82-1.15-.19c-7.1-19.45-16.76-37.78-30.91-53.03-17.33-18.69-48.41-34-72.41-42.21-18.39-6.29-33.24-7.87-52.79-6.73-2.85.17-7.68-.01-6.93,3.86,3.09.79,1.36.95,5.49.94,16.4-.05,29.88-.03,45.71,4.69,26.44,7.87,60.51,24.56,79.02,45.2,12.61,14.07,21.43,31.19,27.57,48.92-8.68,2.05-18.02,4.66-25.91,8.87-2.8,1.49-12.58,7.48-13.31,10.2-.73,2.74,1.01,4.28,3.62,3.16.76-.32.94-1.64,1.85-2.49,2.42-2.27,8.72-5.86,11.84-7.35,7.52-3.58,15.81-5.41,23.81-7.59l6.25,26.86c-7.63.25-15.15,1.75-22.31,4.31-2.56.91-13.03,4.82-12.73,7.9.46,4.69,7.15-.36,9.3-1.26,8.34-3.51,17.53-5.97,26.65-5.62.41,2.26.77,4.62,1.01,6.9,1.52,14.43,1.36,29.7-.55,44.06-2.01,15.16-6.56,30.05-5.75,45.56-4.93,3.79-6.63-7.38-7.38-10.72-.95-4.28-1.9-9.29-2.17-13.65-.17-2.76.81-11.75-1.13-13.25-2.76-2.13-4.37,1.27-4.61,3.63-1.39,14.04,1.91,26.08-2.73,40.43-1,3.07-1.88,7.62-5.9,6.82-.41-10.8,1.15-22.18-1.57-32.72-.28-1.07-1.18-4.12-1.76-4.83-1.58-1.96-4.38-.66-4.79,1.84-.82,5.01.34,12.35-.01,17.74-.23,3.57-3.19,17-5.98,18.96-1.46,1.04-12.61,1.85-15.14,2.37-.39-5.55-.09-11.57-.46-17.05-.19-2.78-1.25-10.82-5.75-7.15-3.64,2.97-6.27,21.1-6.47,26.14-.46.66-9.62.71-11.3.93-.97-9.22-2.94-18.88-5.51-27.82-.59-2.04-2.75-5.44-2.09-7.35.2-.58,4.13-3.35,4.97-4.14,8.52-8.02,16.8-17.61,22.54-27.82,5.54-9.85,11.29-22.46,2.87-32.63-10.73-12.98-24.07,2.57-30.7,11.5,1.61-7,1.34-14.13.79-21.27,5.92-3.09,12.5-7.03,14.29-14,1.74-6.76-1.93-14.02-7.2-18.15-7.17-5.61-16.95-3.08-22.02,4.03-.65-2.9-4.07-6.09-6.23-8.4-13.04-13.94-29.89-25.64-47.01-34.04-1.4-4.45-2.05-9.04-3.9-13.36-.98-2.27-5.78-11.2-7.62-12.05-1.81-.83-3.77-.03-4.29,1.92.14,10.49-2.36,20.69-4.38,30.88-19.33.8-38.18,5.99-57.02,9.64-.72-8.69.01-17.61,2.53-26.01.75-2.51,5.01-9.29-1.32-8.04-1.48.29-8.45,8.13-9.84,9.84-7.73,9.54-11.58,20.71-13.79,32.73-.29,1.59.06,4.99-.74,6.21-.91,1.4-6.33,5.57-8.03,7.56-6.66,7.76-11.01,16.47-10.54,26.86.56,12.02,2.71,26.99,7.59,37.98,10.91,24.58,31.63,39.74,58.6,42.36-2.14,9.78-7.11,18.55-13.19,26.37-4.48-6.64-5.4-14.77-7.42-22.31-.95-1.37-2.76-2.42-4.21-1.05-.59.55-2.04,6.42-2.04,7.3v17.98c-3.76,1.02-7.55,1.18-11.44.9-.95-4.59-1.25-9.26-2.23-13.85-.97-4.56-2.64-8.56-3.85-12.93-.6-2.13-.73-9.85-5.23-6.69-4.2,2.96-3.09,28.51-2.19,34.02-1.28-.48-7.23.6-7.69.28-.45-.32-3.9-8.85-4.32-10.1-2.84-8.52-2.82-16.98-1.84-25.86.25-2.34,2.83-8.36-.4-9.33-2.05-.62-2.94.78-3.64,2.42-3.46,8.07-3.08,19.67-6.47,28.06-.66,2.03-2.91.38-3.9-.66,1.38-4.69,2.6-9.51,3.26-14.37,2.62-19.5.11-40.22.52-59.91.8-38.88,6.64-71,31.68-101.65,18.68-22.86,52.35-45,80.55-53.74,2.56-.79,5.88.17,5.29-4.06-2.55-.59-2.74-1.39-6.26-.74-15.44,2.84-44.55,20.24-57.27,30.02C18.21,127.76,5.69,167.27,4.42,223.44c-.52,23.07,3.32,47.58-2.84,70.06-.59,2.15-2.18,3.32-1.35,6.12.59,1.99,11.03,7.66,12.85,3.46l2.39-4.56c1.27,3.86,2.36,7.89,3.95,11.63,1.24,2.92,2.91,7.7,6.43,8.01,1.55.14,7.69-.34,9.4-.59,6.78-.97,4.08-4.74,3.73-9.23-.37-4.83-.47-9.77-.48-14.62.71.26.98,2.13,1.19,2.88,1.66,6.02,1.44,12.24,2.74,17.88.46,1.99,2.16,2.53,3.98,2.74,3.47.39,13.76.06,16.32-2.39.46-.44,1.66-2.7,1.66-3.13v-6.95l4.73,9.28c-8.36,9.89-18.64,17.54-24,29.72-1.35,3.08-4.81,12.58-5.08,15.54-.23,2.51,2.31,6.65,2.25,7.02-.11.59-6.83,7.58-7.83,8.98-5.78,8.11-2.24,16.84,6.8,19.97,10.55,3.66,21.88-1.06,31.13-6.02,2.02-1.08,8.54-5.67,9.96-5.86,3.02-.42,7.83.87,11.04,1,3.54.15,7.52-.89,10.49-.81,2.19.05,7.54,2.06,10.29,2.57,10.93,2.03,24.24,2.95,35.37,2.56,2.88-.1,6.42-.63,9.33-.98-3.02,9.29-3.66,17.08,3.41,24.65,2.67,2.86,17.2,13.29,20.55,13.98,13.62,2.85,8.28-15.04,9.26-22.44l7.52-21.14c1.69-.97,3.83-1.22,5.47-2.32,1.14-.77,1.26-1.59,1.91-2.16,1.51-1.33,1.82-.39,3.29-3.19,4.24-8.12,5-17.95,5.69-26.93l-.92-26.09c3.2-1.68,12.36-.28,14.59-2.44,1.64-1.6,1.3-10.89,2.12-14.2.2-.81-.48-1.4.97-1.17v10.31c0,.92.96,3.4,1.93,3.83,3.07,1.35,11.98-.99,15.64-1.61,4.32-.73,4.97.75,7.86-3.65l3.82-7.92c.49,3.46-.66,11.33,4.82,10.82,7.35-.69,9.38-5,11.36-11.2.53-1.66,1.75-8.86,2.06-9.21.67-.77.84.22,1.06.62,1.17,2.06,2.38,5.78,5.05,6.45,3.38.86,10.51-.49,10.59-4.9.05-3.09-.58-6.72-.42-10.11.49-10.9,3.68-22.29,5.21-33.15,2.31-16.28,2.44-31.48,1.04-47.87-.18-2.07-.61-4.42-.96-6.48h14.15c.4,0,1.14.69,2.37.49,1.71-.28,2.72-2.28,1.95-3.85-1.79-3.67-17.95-.75-19.19-2.39ZM208.52,233.3c4.95-5.45,16.56-23.96,24.61-13.11,6.15,8.28.7,18.58-3.67,26.37-4.42,7.87-11,16.05-17.34,22.47-1.92,1.95-10.47,8.5-11.07,9.55-.61,1.08-.36,2.57-.45,2.67-.45.49-6.12-1.8-7.04-2.31-3.09-1.7-8.31-6.64-9.93-9.73-1.05-2-3.76-9.23-3.1-11.14.26-.72,5.72-4.19,6.87-5.13,7.06-5.78,15-12.91,21.12-19.64ZM61.04,269.74c-16.01-8.17-27.52-23.37-32.14-40.77-2-7.55-5.07-27.34-3.62-34.56.89-4.44,6.57-13.22,9.61-16.76,1.54-1.8,6.84-6,7.55-7.31,1.17-2.16,1.38-8.05,2.05-10.91,1.94-8.25,5.79-19.57,11.5-25.9.34-.38,1.13-1.45,1.68-1.2-1.52,6.03-1.85,12.99-1.45,19.21.19,2.9.19,7.83,4.02,7.74,15.78-3.82,31.97-7.74,48.1-9.86,3.18-.42,11.65-.17,13.8-1.55,1.12-.71,1.17-2.15,1.49-3.3,1.99-7.16,3-15.19,4.07-22.55,1.02-1.08,2.91,4.3,3.1,4.82,1.1,3.04,2.06,10.73,3.6,12.7,1.34,1.72,14.98,8.09,18.2,10.1,9.55,5.94,19.73,14.71,27.81,22.55,1.7,1.66,6.3,7.73,8.08,8.23.73.2,2.43.02,2.52.11.25.24-.82,5.97,2.56,5.65,2.52-.23,1.86-4.45,3.9-6.62,4.43-4.73,11.67-3.68,15.59,1.22,6.21,7.79,3.28,14.76-4.78,19.19-2.48,1.36-7.7,2.12-7.56,5.18.04,1,.99,1.82,1.19,2.63.19.77.03,1.43.13,2.01,1.53,8.71-.46,18.71-5.03,26.39-4.08,6.86-22.31,22.1-30.29,22.87-1,.09-2.26-.7-3.34-.77-3.79-.23-6.69.2-10.26,1.39-13.44,4.47-19.42,15.25-35.26,17.26-19.93,2.52-38.77,2.03-56.82-7.19ZM117.39,320.1c-8.07.83-16.3-4.42-18.32-12.37-1.91-7.49.24-18.46,7.37-22.56,3.52-2.03,7.54-.55,11.39-1.08,13.86-1.92,29.25-19.86,42.23-20.6,8.07-.46,15.53,7.62,13.75,15.67-3.45,15.67-24.89,26.6-38.66,31.84-2.17.82-13.47,3.81-14.04,4.42-1.59,1.71,1.25,4.16-3.72,4.68ZM50.24,391.6c-5.16.06-14.94-2.96-13.45-9.66,3.39-7.09,9.89-12.67,14.5-19.1,11.03,2.85,21.03,8.45,31.32,13.13-7.6,6.14-22.47,15.51-32.37,15.63ZM186.67,407.13c-.21,3.9,1.15,8.88.39,12.38-.34,1.59-1.3,2.13-2.89,1.69-6.96-4.06-13.93-8.25-19.54-14.06-2.14-3.29-3.28-6.83-2.66-10.81.24-1.57,2.21-8.63,3.47-9l27.96-3.44c-1.47,7.92-6.29,15.01-6.73,23.24ZM208.91,363.18c-.42,1.68-3.47,10.79-4.24,11.59-1.24,1.29-7.82,3.14-9.82,3.6-27.55,6.36-66.5,7.32-93.53-.96-14.63-4.49-27.45-12.56-41.48-17.51-4.09-1.45-8.86-2.9-13.19-2.88,1.38-9.06,5.77-17.19,11.74-23.98,10.56-12.02,20.36-20.03,27.52-35.31.92-1.98,4.8-14.56,5.58-14.56h9.35c-6.22,5.83-7.92,15.03-7.21,23.28,1.17,13.45,18.78,24.19,30.57,16.62,1.95-1.26,3.19-3.71,4.59-4.52,2.33-1.35,8.8-2.87,12.03-4.28,15.28-6.66,36.97-18,38.2-36.86.02-.4.01-.83.48-.96-.05-.73.15-3.1,0-3.35-.03-.05-.71.2-.94-.36-.92-2.27-.86-3.72-2.5-6.03-2.27-3.19-6.68-4.22-.17-6.09,1.19,3.72,2.12,9.15,4.09,12.48,1.55,2.62,8.62,8.83,11.36,10.45,1.16.69,4.06,1.38,4.38,2.33.01,7.64-1.79,15.2-1.91,22.87-.53,1.55-20.67,11.22-23.73,12.72-1.84.89-7.23,2.38-7.77,4.25-.86,3,1.8,3.88,4.12,4.33,6.58,1.27,14.17,1.09,20.92,2.1,2.49.37,4.97.95,7.45,1.42.67,7.91-.74,16.86.05,24.65.4,3.92,2.3,5.48,5.76,2.89l9.82-15.59c.19,5.74-.13,12.02-1.52,17.66Z" fill="#614f3c"/><path d="M507.29,198.29c-4.11-7.95-7.16-15.85-12.11-23.38-6.53-9.92-30.99-39.36-41.92-42.01-1.81-.44-3.97-.53-5.79-.21-8.53,1.47-32.36,31.23-39.92,38.74-2.64,2.62-5.64,4.92-8.25,7.59-5.52-.53-11.14-1.6-16.67-1.86-13.19-.64-28.13-.65-41.25.04-5.15.27-9.66-1.44-12.83,3.95-4.8,8.19,1.89,24.18,6.43,31.66,4.09,6.74,10.2,12.74,14.96,19.09,8.19,10.93,14.11,23.69,26.83,30.25,12.87,6.63,44.61,3.96,59.55,2.79,5.1-.4,18.37-1.05,22.06-3.84,1.45-1.09,2.12-2.76,3.35-3.84,14.9-13.13,31.62-25.51,44.87-40.5,1.71-1.94,5.05-5.65,5.28-8.17.33-3.71-2.98-7.2-4.59-10.3ZM451.43,258.23c-11.71,1.31-23.46,1.94-35.25,2.4-11.5.45-28.35,1.91-38.57-4.12-11.09-6.54-16.77-19.02-24.3-28.93-7.83-10.31-19.15-20.89-21.08-34.55-.46-3.19-1.31-10.37,2.93-11.03,6.25-.1,12.43-.56,18.69-.53,9.62.06,21.05.32,30.67.99,2.23.15,10.16.91,11.72,1.71,5.13,2.63,9.84,13.14,13.08,18.09,10.28,15.73,22.16,31.5,33.97,46.13.78.97,8.98,9.13,8.14,9.84ZM506.5,208.46c-.42,1.69-13.43,14.21-15.74,16.44-7.73,7.5-16.69,16.23-24.94,23.02-1.67,1.38-8.51,6.86-10.23,6.5-2.45-3.33-5.87-6.2-8.47-9.39-7.5-9.21-15.76-19.91-22.73-29.54-7.51-10.36-13.96-21.49-21.33-31.95-.36-1.33,1.23-1.68,2.1-2.51,4.33-4.16,8.63-8.57,12.7-12.97,5.51-5.96,10.35-12.38,16.3-17.99.91-.86,2.23-2.19,3.36-2.63.15-.16.32-.33.48-.48.37-1.99,2.35-2.91,3.84-3.84,1.31-2.14,2.34-2.99,4.65-4.22,3.42-1.82,4.35-1.59,7.84.13,8.2,4.03,23.66,21.69,29.7,29.28,8.6,10.81,12.75,20.86,18.95,32.86.93,1.81,3.97,5.46,3.52,7.29Z" fill="#614e3d"/><path d="M374.48,76.96c-1.09.17-1.95,1.12-3.14.93.78-2.7,1.72-6.08,1.91-8.88.08-1.15-.53-3.82-.43-3.99.12-.2,2.68-1.79,3.52-2.98,4.73-6.69,1.81-14.97-5.62-17.82-3.77-1.45-6.32-.38-9.61,1.63-7.59,4.65-8.59,14.03-.32,18.62.4.22,1.79-.18,1.91.95h-2.39c-2.17,2.16-2.14,7.06-2.36,10.38-.05.65.58,1.95.44,2.1-.39.42-3.11-.47-2.93,2.64.1,1.71,1.15,1.99,2.68,2.16,3.31.38,12.07.4,15.37,0,5.26-.63,6.26-6.55.97-5.75ZM359.83,56.03c-.12-1.19,1.51-4.7,2.4-5.25,1.09-.67,2.3.63,3.71-.07,1.37-.69.96-1.94,1.09-2.07.68-.7,5.82,2.79,6.2,5.07,1.76,10.83-12.86,7.72-13.4,2.32ZM366.5,77.85c-.13.11-2.74.15-2.84.05-.44-.44-.51-10.95-.47-12.47l5.75.48c-.39,1.54-1.87,11.45-2.44,11.94Z" fill="#62503f"/><path d="M240.41,19.87c-.05-4.01.24-8.03-.47-11.98,3.75.89,7.41-4.49,3.48-5.68-1.71-.53-9.27,2-11.53,2.66-1.92.56-14.54,4.49-15.03,5.12-2.1,2.71,1.84,4.84,4.36,3.64-.44,2.04,2.37,11.46,1.83,12.37-.12.19-.95.34-1.29.86-.98,1.46-.31,2.74.9,3.81l26.89-8.61c2.74-8.57-8.62-1.61-9.14-2.19ZM235.61,21.07c-1.07.79-6.96,3-7.7,2.44-.65-.5-2.22-9.83-1.81-11,.47-1.35,7.74-3.02,9.51-3.19v11.75Z" fill="#62503f"/><path d="M307.45,21.45c-3.95.37-9.16,1.54-11.02,5.29-5.55,11.2,6.53,24.22,18.34,18.81,14.21-6.52,7.2-25.48-7.32-24.1ZM312.46,40.85c-5.91,2.68-12.48-2.11-12.6-8.3-.02-1.21.81-4.25,1.93-4.77.43-.2,5.26-.98,6.13-1.06,8.83-.85,13.3,10.16,4.54,14.13Z" fill="#62503f"/><path d="M317.42,56.35c-2.16.33-3.41,1.35-4.11,3.32-.1.26.09.86,0,.96-.31.3-.9-.47-.95-.48-2.4-.31-3.66.77-3.83,3.18-.06.89.41,1.67.37,2.34-.3,5.22-2.29,15.82,5.66,16.02,2.19.06,10.43-1.07,12.38-1.92,3.25-1.41,4-10.23,4.14-13.6.47-11.19-4.9-8.8-13.65-9.82ZM324.39,74.83c-1.11.86-10.23,2.02-10.61,1.63l-.47-15.35c3.26,2.72,8.36.16,12.47.96.45.45-.83,12.05-1.39,12.76Z" fill="#62503f"/><path d="M348.82,28.52c-.87.6-1.08,5.19-2.72,6.16-2.85,1.68-5.69-1.13-4.12-4.13l9.23-18.11c-2.51-2.14-10.31,2.19-8.54-3.74.86-2.91,9.33-1.99,11.59-.76,6.71,3.68-3.27,12.38-2.51,15.42.13.51,5.04,4.55,5.72,4.86.95.44,2.09.21,3.04.8,1.59.98,1.54,3.25,0,4.22-4.49,2.85-10.09-5.82-11.68-4.73Z" fill="#62503f"/><path d="M331.05,25.14c-.14,2.45.55,6.68-1.16,8.67-1.82,2.12-4.53.33-4.51-2.18,1.32-4.09,1.04-22.58,3.48-24.73,1.54-1.36,4.25-.85,4.46,1.29.07.67-1.1,4.86-1.26,6.23-.1.87-.6,5.13-.34,5.48,1.37,1.89,9.85-1.99,9.83,2.61s-7.73,2.13-10.52,2.63Z" fill="#62503f"/><path d="M240.41,39.53c3.08.79,9.1-3.75,11.49-1.66,1.24,1.09,1.21,2.66,0,3.8-6.97,2.47-14.16,4.84-21.31,6.51-5.93-4.41,4.39-5.42,4.95-7.05.64-1.86.07-8.64.57-11.42.28-1.55,1.96-2.56,3.49-2.09,3.11.95.4,9.32.82,11.91Z" fill="#62503f"/><path d="M376.96,2.22c2.47-.73,4.2.81,3.27,3.27-4.61,7.85-6.32,20.16-10.72,27.66-1.06,1.82-2.56,3.06-4.69,2.11-3.54-1.58-.33-3.99.52-5.8,3.54-7.61,5.99-18.68,9.96-25.53.39-.67.86-1.47,1.66-1.71Z" fill="#62503f"/><path d="M270.01,20.97c2.52,2.05,1.31,14.75,2.52,18.3-.15,2.42-3.33,3.77-4.82,1.98-1.72-2.07-.59-11.94-1.41-15.14-2.57.65-8.74,4.63-11.01,3.59s-1.37-3.26.3-4.48c.78-.57,9.25-4.39,10.22-4.64,1.29-.33,3.1-.5,4.19.4Z" fill="#62503f"/><path d="M343.89,49.24c1.68,1.69-1.49,8.86-.15,11.42,1.08,1.55,7.82-1.51,7.34,3.02-.41,3.87-7.33,1.52-8.03,2.22-.25.25.85,5.19-1.92,6.47-2,.92-3.54-.43-3.67-2.46-.36-5.45,1.87-13.3,1.87-19.01.25-1.98,3.24-3.01,4.57-1.67Z" fill="#62503f"/><path d="M308.51,10.76c3.19-.04,9.72-.97,7.32,4.2-1.4,3-3.98.59-5.62.58-.88,0-1.84.51-2.88.52-2.05.01-9.47.35-10.6-.46-1.58-1.13-1.13-3.73.61-4.26,1.48-.45,4.88.49,5.67-.56,1.38-1.82.31-13.13,5.99-10.32,2.49,1.23-1.45,7.99-.48,10.31Z" fill="#62503f"/><path d="M389.91,61.7c5.1-1.06,7.19,3.01,10.93,3.28,2.34.17,7.87-2.99,9.11-.51,2.04,4.08-6.8,6.02-9.54,5.73-2.99-.31-6.99-3.59-8.76-3.69-1.96-.11-2.29,2.83-4.16,2.65-4.16-.39-2.34-6.47,2.43-7.46Z" fill="#62503f"/><path d="M284.41,12.28c4.56-.66,2.19,7.82,2.05,10.23-.18,3.13,1.44,11.09-3.12,10.84-2.87-.16-2.26-4.76-2.18-7.02.14-4.12.92-9.47,1.94-13.41.38-.28.85-.57,1.31-.64Z" fill="#62503f"/><path d="M433.14,56.39c.24.94.1,1.9-.16,2.83-.58,2.04-4.47,9.88-5.78,11.48-2.14,2.61-5.8.25-4.32-2.89,2.45-2.8,3.63-8.36,5.79-10.99,1.27-1.55,2.81-1.09,4.47-.43Z" fill="#62503f"/><path d="M417.99,82.57c-2.94-2.42,1.43-6.7,3.74-3.5,1.88,2.6-1.79,5.1-3.74,3.5Z" fill="#62503f"/><path d="M360.79,64.47c.4.22,1.8-.18,1.92.95h-2.4c.19-.19.29-.69.48-.95Z" fill="#f9f8f8"/><path d="M313.31,59.68c-.09.26.1.86,0,.96-.31.3-.9-.47-.96-.48l.96-.48Z" fill="#fcfbfb"/><path d="M213.06,180.78c-3.92-4.9-11.16-5.95-15.59-1.22-2.04,2.17-1.38,6.39-3.9,6.62-3.38.32-2.31-5.41-2.56-5.65-.09-.09-1.79.09-2.52-.11-1.78-.5-6.38-6.57-8.08-8.23-8.08-7.84-18.26-16.61-27.81-22.55-3.22-2.01-16.86-8.38-18.2-10.1-1.54-1.97-2.5-9.66-3.6-12.7-.19-.52-2.08-5.9-3.1-4.82-1.07,7.36-2.08,15.39-4.07,22.55-.32,1.15-.37,2.59-1.49,3.3-2.15,1.38-10.62,1.13-13.8,1.55-16.13,2.12-32.32,6.04-48.1,9.86-3.83.09-3.83-4.84-4.02-7.74-.4-6.22-.07-13.18,1.45-19.21-.55-.25-1.34.82-1.68,1.2-5.71,6.33-9.56,17.65-11.5,25.9-.67,2.86-.88,8.75-2.05,10.91-.71,1.31-6.01,5.51-7.55,7.31-3.04,3.54-8.72,12.32-9.61,16.76-1.45,7.22,1.62,27.01,3.62,34.56,13.26-2.61,29.09-.24,35.75,12.93,4.21,8.33,2.56,20.76-3.61,27.84,18.05,9.22,36.89,9.71,56.82,7.19,15.84-2.01,21.82-12.79,35.26-17.26-13.58-12.02-15.71-35.15-3.85-49.17,11.2-13.25,24.7-15.66,40.91-9.71,5.08,1.86,8.44,4.97,11.86,9-.1-.58.06-1.24-.13-2.01-.2-.81-1.15-1.63-1.19-2.63-.14-3.06,5.08-3.82,7.56-5.18,8.06-4.43,10.99-11.4,4.78-19.19ZM58.47,171.55c.77-.08,1.71.36,2.3.86,1.03.88,5.36,5.79,6.01,6.93,1.77,3.16-.1,5.37-3.13,3.62-.42-.24-6.15-6.58-6.39-7.04-.82-1.58-1.1-4.14,1.21-4.37ZM66.03,213.1c-6.07,8-20.01,9.49-25.35.02-4.98-8.86,1.43-21.69,11.62-22.86,12.95-1.49,22.11,11.81,13.73,22.84ZM104.96,260.58c-2.96-3.61-7.83-13.19-10.12-17.69-4.39-8.64-7.61-17.72-11.18-26.71-.73-1.85-3.66-5.5-1.89-7.24.79-.77,14.34-3.19,16.51-4.41,1.47-.32,2.77,1.05,3.41,2.25,1.5,2.83,3.03,11.76,3.8,15.39,2.6,12.33,4.03,24.82,5.92,37.27-.65,4.14-3.99,4.14-6.45,1.14ZM106.73,178.53c-.58.1-1.53-.1-1.93-.51-.77-.78-.64-2.28-.39-3.25.33-1.26,4.11-8.64,4.97-9.92,1.94-2.87,4.65-3.7,5.18.36-1.95,2.57-4.74,12.8-7.83,13.32ZM147.25,197.44c-3.14,14.29-30.22,17.03-30.53-1.37-.18-11.07,7.18-17.04,17.6-17.79,9.67-.69,14.77,10.79,12.93,19.16Z" fill="#fdfdfd"/><path d="M179.98,273.1c1.55,2.62,8.62,8.83,11.36,10.46,1.16.69,4.06,1.38,4.38,2.33,0,7.64-1.79,15.2-1.92,22.87-.53,1.55-20.67,11.23-23.73,12.72-1.84.9-7.22,2.38-7.76,4.25-.87,3,1.8,3.88,4.12,4.33,6.58,1.27,14.17,1.09,20.92,2.1,2.49.37,4.98.95,7.45,1.42.67,7.91-.74,16.86.06,24.64.4,3.92,2.3,5.48,5.76,2.9l9.82-15.6c.18,5.75-.13,12.03-1.53,17.66-.42,1.68-3.46,10.8-4.23,11.59-1.25,1.29-7.82,3.14-9.82,3.6-27.55,6.36-66.5,7.32-93.53-.96-14.64-4.49-27.45-12.56-41.48-17.51-4.1-1.45-8.87-2.89-13.2-2.87,1.38-9.06,5.77-17.19,11.74-23.98,10.56-12.02,20.36-20.03,27.52-35.31.93-1.98,4.8-14.56,5.58-14.56h9.35c-6.22,5.83-7.93,15.03-7.21,23.28,1.16,13.45,18.78,24.19,30.57,16.62,1.96-1.26,3.2-3.71,4.59-4.52,2.33-1.35,8.8-2.87,12.03-4.27,15.28-6.66,36.96-18,38.2-36.86,1.9.19.5-.74.48-.96-.05-.74.15-3.1,0-3.36h.48Z" fill="#fdfdfd"/><path d="M202.04,209.79c1.53,8.71-.46,18.71-5.03,26.39-4.08,6.86-22.32,22.11-30.29,22.87-1,.1-2.26-.7-3.34-.77-3.79-.23-6.69.2-10.26,1.39-13.58-12.02-15.71-35.15-3.85-49.17,11.2-13.25,24.7-15.66,40.91-9.71,5.08,1.86,8.44,4.98,11.86,9Z" fill="#fec4b9"/><path d="M121.12,315.42c-1.59,1.71,1.25,4.16-3.72,4.67-8.07.83-16.3-4.41-18.32-12.37-1.9-7.49.24-18.46,7.37-22.56,3.53-2.03,7.55-.55,11.39-1.08,13.87-1.92,29.25-19.86,42.23-20.6,8.08-.46,15.53,7.63,13.76,15.68-3.46,15.67-24.9,26.59-38.67,31.83-2.16.82-13.46,3.81-14.03,4.43Z" fill="#fdfdfd"/><path d="M200.6,281.25c-.44.49-6.12-1.8-7.04-2.31-3.08-1.7-8.31-6.64-9.93-9.73-1.05-2-3.76-9.23-3.09-11.14.25-.72,5.72-4.19,6.86-5.13,7.06-5.78,15-12.91,21.12-19.64,4.95-5.45,16.56-23.96,24.61-13.11,6.15,8.29.7,18.59-3.67,26.38-4.42,7.87-10.99,16.05-17.33,22.47-1.92,1.95-10.47,8.5-11.07,9.55s-.36,2.57-.45,2.67Z" fill="#fdfcfc"/><path d="M61.04,269.74c-16-8.17-27.51-23.37-32.13-40.77,13.26-2.61,29.09-.24,35.75,12.93,4.21,8.33,2.56,20.76-3.62,27.84Z" fill="#fec4b9"/><path d="M51.3,362.85c11.02,2.85,21.03,8.45,31.31,13.13-7.6,6.14-22.47,15.51-32.37,15.63-5.16.06-14.94-2.96-13.45-9.66,3.39-7.09,9.9-12.67,14.51-19.09Z" fill="#fcfbfb"/><path d="M193.41,383.89c-1.47,7.92-6.29,15.02-6.73,23.24-.21,3.91,1.15,8.89.39,12.38-.34,1.59-1.3,2.13-2.9,1.69-6.95-4.06-13.93-8.25-19.54-14.05-2.14-3.3-3.28-6.84-2.66-10.82.24-1.57,2.22-8.63,3.47-9l27.96-3.45Z" fill="#fcfbfb"/><path d="M179.5,273.1s-.71.21-.94-.36c-.92-2.27-.86-3.72-2.5-6.04-2.26-3.18-6.68-4.21-.16-6.09,1.19,3.72,2.12,9.15,4.08,12.48h-.48Z" fill="#f9f8f8"/><path d="M179.5,276.46c.02.22,1.42,1.15-.48.96.03-.41.01-.83.48-.96Z" fill="#f9f8f8"/><path d="M129.62,63.51c3.09.78,1.36.95,5.5.94,16.4-.05,29.87-.03,45.71,4.69,26.44,7.87,60.5,24.56,79.01,45.2,12.61,14.07,21.43,31.19,27.57,48.92-8.68,2.05-18.02,4.66-25.91,8.87-2.8,1.49-12.58,7.48-13.31,10.2s1.01,4.27,3.62,3.16c.76-.33.94-1.64,1.85-2.5,2.42-2.27,8.72-5.85,11.84-7.34,7.52-3.59,15.81-5.42,23.81-7.59l6.25,26.86c-7.63.25-15.15,1.75-22.31,4.31-2.56.91-13.03,4.82-12.73,7.9.46,4.69,7.15-.36,9.29-1.26,8.34-3.51,17.54-5.97,26.65-5.62.41,2.26.77,4.62,1.01,6.9,1.52,14.42,1.36,29.7-.55,44.05-2.01,15.16-6.56,30.05-5.75,45.56-4.93,3.79-6.63-7.38-7.37-10.72-.95-4.28-1.91-9.3-2.17-13.65-.17-2.76.81-11.75-1.13-13.25-2.76-2.13-4.37,1.28-4.6,3.64-1.4,14.04,1.9,26.08-2.74,40.43-.99,3.07-1.88,7.62-5.89,6.82-.42-10.8,1.14-22.18-1.58-32.72-.28-1.07-1.18-4.13-1.75-4.84-1.58-1.96-4.38-.66-4.8,1.85-.82,5,.34,12.35,0,17.74-.23,3.57-3.19,17-5.98,18.96-1.46,1.03-12.61,1.84-15.15,2.36-.39-5.55-.08-11.56-.46-17.05-.19-2.78-1.25-10.81-5.75-7.14-3.64,2.97-6.27,21.09-6.47,26.14-.46.66-9.62.7-11.3.93-.97-9.23-2.94-18.88-5.51-27.82-.59-2.04-2.75-5.44-2.09-7.35.2-.58,4.13-3.35,4.98-4.14,8.52-8.02,16.79-17.6,22.54-27.82s11.29-22.45,2.87-32.63c-10.73-12.98-24.07,2.58-30.7,11.51,1.61-7.01,1.34-14.13.79-21.27,5.91-3.1,12.5-7.04,14.29-14s-1.93-14.02-7.2-18.15c-7.16-5.61-16.94-3.08-22.02,4.04-.65-2.91-4.07-6.1-6.23-8.41-13.05-13.94-29.9-25.64-47.01-34.04-1.4-4.44-2.05-9.04-3.91-13.36-.97-2.27-5.77-11.2-7.61-12.05s-3.77-.03-4.3,1.92c.14,10.48-2.36,20.69-4.38,30.87-19.33.81-38.18,5.99-57.02,9.64-.71-8.69.02-17.61,2.53-26,.75-2.51,5.01-9.3-1.32-8.04-1.47.29-8.45,8.13-9.83,9.84-7.73,9.55-11.58,20.71-13.79,32.73-.29,1.59.05,4.99-.74,6.21-.91,1.4-6.33,5.57-8.03,7.55-6.66,7.77-11.01,16.48-10.53,26.87.55,12.02,2.71,26.99,7.58,37.98,10.91,24.58,31.63,39.74,58.6,42.36-2.13,9.78-7.11,18.55-13.19,26.37-4.48-6.64-5.39-14.76-7.41-22.31-.96-1.36-2.77-2.41-4.21-1.05-.58.55-2.04,6.43-2.04,7.3v17.99c-3.76,1.02-7.55,1.18-11.44.89-.94-4.58-1.25-9.26-2.22-13.85s-2.64-8.56-3.86-12.93c-.59-2.13-.73-9.86-5.22-6.69-4.2,2.96-3.09,28.51-2.19,34.01-1.28-.47-7.23.61-7.69.28s-3.9-8.84-4.32-10.1c-2.84-8.52-2.82-16.98-1.84-25.86.26-2.34,2.84-8.36-.39-9.33-2.05-.62-2.94.78-3.64,2.42-3.46,8.08-3.08,19.68-6.47,28.06-.67,2.03-2.92.39-3.9-.65,1.39-4.69,2.61-9.51,3.26-14.38,2.62-19.5.12-40.22.52-59.91.8-38.88,6.65-71,31.69-101.64,18.68-22.86,52.34-45,80.54-53.74,2.56-.79,5.88.17,5.29-4.06.67.16,1.75-.16,2.4,0Z" fill="#fddc6f"/><path d="M443.29,248.39c-11.81-14.63-23.69-30.4-33.97-46.13-3.24-4.95-7.95-15.46-13.08-18.09-1.56-.8-9.49-1.56-11.72-1.71-9.62-.67-21.05-.93-30.67-.99-6.26-.03-12.44.43-18.69.53-4.24.66-3.39,7.84-2.93,11.03,1.93,13.66,13.25,24.24,21.08,34.55,7.53,9.91,13.21,22.39,24.3,28.93,10.22,6.03,27.07,4.57,38.57,4.12,11.79-.46,23.54-1.09,35.25-2.4.84-.71-7.36-8.87-8.14-9.84ZM417.99,225.72c2.56.57,6.58,9.58,2.27,11.17-2.79,1.03-7.59,2.1-9.52-.56-3.83-5.27-1.6-9.59,4.6-10.6.92-.15,1.72-.22,2.65-.01ZM397.11,235.32c.95-2.04,7.62-3.68,9.71-2.74,1.39.63,4.66,8.13,4.17,9.7-.59,1.91-3.67.52-4.88.56-3.15.11-5.5,1.99-7.83-1.24-1.22-1.69-2.11-4.26-1.17-6.28ZM392.78,232.71c-2.57-.6-5.21-7.09-4.44-9.52.52-1.65,4.26-3.48,5.9-3.71,4.7-.67,8.18,8.41,5.65,10.96-1.56,1.57-4.9,2.78-7.11,2.27ZM410.1,212.51c.85,1.13,4.01,7.02,4.31,8.19.2.82.08,2.3-.5,2.88-.96.97-7.01.5-8.79,1.58-3.78.66-8.27-8.62-7.16-11.05.68-1.47,6.58-3.66,8.2-3.82,2.23-.21,2.72.61,3.94,2.22ZM401.91,198.64c2.16.93,6.5,9.19,3.12,10.55-1.86.75-8.45,2.09-10.19,1.31-2.06-.92-3.91-8.01-2.28-9.7,1.5-1.55,7.16-3.11,9.35-2.16ZM389.94,186.42c1.86-.22,5.74-.62,7.04.84,1.05,1.19,2.3,7.66,1.02,8.67-.73.57-8.02,2.1-9.07,1.78-1-.31-3.64-5-3.94-6.13-1.12-4.25,1.38-4.73,4.95-5.16ZM388.63,204.24c.63.42,4.67,7.99,4.78,8.7.37,2.63-6.24,6.73-8.77,5.38-1.59-.84-5.43-7.88-5.61-9.79-.26-2.88,2.53-4.41,5.13-4.86,1.72-.29,3.01-.41,4.47.57ZM383.24,225.27c-.52,1.73-6.24,2.21-7.78,1.25-1.24-.78-6.31-10.09-6.49-11.74-.34-3.21,2.17-4.93,5.13-5.37,3.37-.49,4,.92,5.32,3.57,1.09,2.17,4.4,10.33,3.82,12.29ZM365.24,185.43c1.34.39,2.66,3.42,3.22,4.7.25-.2.8-.3.96-.48,1.01-1.18,1.09-2.62,3.08-3.4,1.99-.78,5.98-.97,7.4.82.47.59,4.17,8.05,4.3,8.69.76,3.88-6.81,7.46-9.52,6.12-.95-.47-1.76-2.74-2.01-3.01-.28-.28-.8-.05-.85-.11.08,2.67,2.17,5.19-.78,7.13-2.07,1.37-5.98,2.69-8.1,1.03-2.78-2.18-4.54-12.88-6.76-16.3-.87-5.17,5.28-6.29,9.06-5.19ZM342.45,195.27c-.18-.43-1.32-4.2-1.32-4.44.03-2.46,5.29-2.99,7.1-2.99,1.5,0,3.36.37,4.42,1.55.71.78,2.38,5.18,2.41,6.28.05,1.57-.55,2.16-1.71,3.08-4.48,3.58-8.88,1.32-10.9-3.48ZM367.3,240.44c-6.9-8.48-11.76-21.64-18.2-30.76.19-4.43-1.58-6.26,3.91-6.95,2.18-.27,4.46-.53,5.79,1.62,4.41,10.38,16.07,22.53,19.36,32.91,1.99,6.31-6.97,7.96-10.86,3.18ZM379.98,256.54c-1.2-.51-4.4-5.83-4.32-7.15.21-3.49,7.36-4.73,9.45-3.01.29.24,3.67,6.18,3.78,6.57,1.01,3.55-6.9,4.44-8.91,3.59ZM384.85,241.6c-.52-.76-3.79-7.04-3.9-7.61-.36-1.92-.56-4.85,1.76-5.39,2.55-.59,4.75-.49,6.29,1.65.66.91,5.18,8.6,5.28,9.16.72,4.22-6.44,6.6-9.43,2.19ZM403.24,252.96c-.77,1.55-8.06,3.5-9.85,2.63-2.18-1.07-5.59-9.66-1.09-10.69,1.78-.4,6.25-.35,7.79.64,1.38.89,3.89,5.9,3.15,7.42ZM415.69,252.95c-1.3.23-5.33.54-6.71.52-5.07-.1-6.83-6.82-3.12-8.44,1.07-.46,4.92-1.4,6.13-1.55,7.38-.9,7.02,8.86,3.7,9.47ZM432.13,248.52c-.86.86-9.52,1.2-11.04.49-2.25-1.07-4.45-5.7-3.46-8.04,1.06-2.51,8.27-3.48,10.66-2.52,2.17.88,5.64,8.27,3.84,10.07Z" fill="#c1c0bf"/><path d="M500.92,206.1c-2.65-6.43-9.63-17.62-13.44-23.97-6.86-11.45-19.75-27.63-29.81-36.37-5.58-4.86-8.97-6.92-15.83-2.64-1.11,1.81-2.19,2.28-3.84,3.84-.16.15-.33.32-.48.48-6.24,6.72-13.28,14.16-19.18,21.1-1.48,1.74-2.4,3.7-3.63,5.25-2.41,3.01-8.34,7.69-7.18,11.56,9.2,15,19.98,28.79,30.66,42.71,4.7,6.13,9.55,14.32,14.91,19.63,4.19,4.14,8.21.5,11.98-2.42,11.35-8.82,18.34-17.8,28.05-27.59,1.94-1.95,8.47-6,8.65-8.64.06-.94-.5-2.06-.86-2.94ZM488.83,214.81c-9.13,9.5-15.92,17.79-26.62,26.14-1.38,1.07-3.81,3.44-5.49,2.66-2.39-1.12-10.46-13.52-12.77-16.51-8.11-10.48-16.19-20.49-23.61-31.55-.97-1.45-7.24-10.74-7.26-11.42-.02-.6.39-1.18.73-1.65,5.36-5.58,9.74-11.98,14.83-17.78,3.87-4.41,10.17-11.66,14.38-15.35.98-.85,4.37-3.56,5.41-3.75.44-.09.77-.08,1.21,0,1.61.29,8.41,7.15,9.96,8.78,15.04,15.88,26.44,34.37,36.43,53.74-.03,1-5.91,5.35-7.2,6.69Z" fill="#5f4d3b"/><path d="M441.84,143.13c1.31-2.15,2.34-3,4.65-4.23,3.42-1.82,4.35-1.58,7.84.13,8.2,4.03,23.67,21.69,29.71,29.28,8.6,10.81,12.74,20.86,18.94,32.85.94,1.81,3.97,5.46,3.52,7.3-.41,1.68-13.43,14.21-15.73,16.44-7.73,7.5-16.69,16.23-24.94,23.02-1.68,1.38-8.52,6.86-10.24,6.5-2.45-3.34-5.87-6.21-8.46-9.4-7.5-9.21-15.76-19.91-22.74-29.54-7.51-10.36-13.96-21.5-21.32-31.95-.36-1.33,1.23-1.68,2.1-2.51,4.33-4.15,8.63-8.56,12.7-12.96l.48.48c-1.48,1.74-2.39,3.7-3.63,5.24-2.41,3.01-8.34,7.7-7.18,11.56,9.21,15,19.99,28.79,30.67,42.71,4.7,6.13,9.55,14.32,14.91,19.62,4.19,4.15,8.21.51,11.99-2.42,11.35-8.81,18.33-17.79,28.05-27.59,1.94-1.95,8.47-6,8.64-8.64.06-.95-.5-2.06-.86-2.94-2.64-6.43-9.63-17.62-13.43-23.97-6.86-11.45-19.75-27.63-29.81-36.37-5.58-4.85-8.97-6.92-15.83-2.63Z" fill="#bfbebd"/><path d="M437.53,147.44c-6.24,6.72-13.28,14.16-19.18,21.1l-.48-.48c5.52-5.96,10.36-12.38,16.3-17.99.91-.86,2.23-2.19,3.36-2.63Z" fill="#b5b2af"/><path d="M441.84,143.13c-1.1,1.81-2.19,2.27-3.84,3.84.37-1.99,2.35-2.91,3.84-3.84Z" fill="#b5b2af"/><path d="M105.49,222.17c-.77-3.63-2.3-12.56-3.8-15.39-.64-1.2-1.94-2.57-3.41-2.25-2.17,1.22-15.72,3.64-16.51,4.41-1.77,1.74,1.16,5.39,1.89,7.24,3.57,8.99,6.79,18.07,11.18,26.71,2.29,4.5,7.16,14.08,10.12,17.69,2.46,3,5.8,3,6.45-1.14-1.89-12.45-3.32-24.94-5.92-37.27ZM98.5,238.75c-3.87-8.49-7.27-17.15-10.6-25.86-.14-1.03.14-.55.67-.75,2.81-1.07,6.09-1.22,8.91-2.35l7.19,39.33-6.17-10.37Z" fill="#62503f"/><path d="M134.32,178.28c-10.42.75-17.78,6.72-17.6,17.79.31,18.4,27.39,15.66,30.53,1.37,1.84-8.37-3.26-19.85-12.93-19.16ZM133.91,203.29c-15.74,4.57-15.22-17.84-2.98-19.76,5.2-.82,8.88.72,10.77,5.79,2.68,7.21-.92,11.98-7.79,13.97Z" fill="#614e3d"/><path d="M52.3,190.26c-10.19,1.17-16.6,14-11.62,22.86,5.34,9.47,19.28,7.98,25.35-.02,8.38-11.03-.78-24.33-13.73-22.84ZM44.63,209.64c-1.5-3.58-.39-8.15,2.02-11.12,1.79-2.19,2.12-1.14,3.95-1.8.78-.28,1.29-1.02,2.14-1.22,3.85-.91,9.56,1.98,10.8,5.79,3.63,11.05-14.51,18.82-18.91,8.35Z" fill="#62503f"/><path d="M104.8,178.02c-.77-.78-.63-2.28-.38-3.25.33-1.26,4.11-8.64,4.97-9.91,1.93-2.88,4.64-3.7,5.18.35-1.95,2.57-4.74,12.8-7.83,13.32-.58.1-1.53-.1-1.93-.51Z" fill="#62503f"/><path d="M58.47,171.55c.78-.08,1.71.35,2.3.86,1.03.88,5.36,5.79,6.01,6.93,1.78,3.15-.1,5.36-3.13,3.61-.41-.24-6.15-6.58-6.39-7.04-.82-1.58-1.1-4.14,1.21-4.37Z" fill="#62503f"/><path d="M378.16,237.26c-3.29-10.38-14.95-22.53-19.36-32.91-1.33-2.15-3.61-1.89-5.79-1.62-5.49.69-3.72,2.52-3.91,6.95,6.44,9.12,11.3,22.28,18.2,30.76,3.89,4.78,12.85,3.13,10.86-3.18ZM372.77,238.08c-.48.5-1.33-.65-1.63-.99-4.1-4.68-12.01-19.45-15.23-25.54-.39-.73-2.3-4.13-1.84-4.64.55-.6,1.29.75,1.53,1.11,4.75,7.03,10.25,16.92,14.38,24.47.39.71,3.02,5.35,2.79,5.59Z" fill="#614e3d"/><path d="M371.82,198.76c-.85-.84-.64-1.01-.96-1.92-.13-.35.13-1.11,0-1.44-.47-1.18-1.72-3.74-2.4-5.27-.56-1.28-1.88-4.31-3.22-4.7-3.78-1.1-9.93.02-9.06,5.19,2.22,3.42,3.98,14.12,6.76,16.3,2.12,1.66,6.03.34,8.1-1.03,2.95-1.94.86-4.46.78-7.13ZM365.53,201.83c-.68-.96-3.83-11.55-3.3-12.18,1.02-.2,1.11.48,1.46,1.17,1.64,3.23,2.5,7.83,3.81,11.29-.63-.07-1.55.31-1.97-.28Z" fill="#614e3d"/><path d="M374.1,209.42c3.37-.5,4,.91,5.32,3.56,1.09,2.17,4.4,10.33,3.82,12.3-.51,1.73-6.24,2.21-7.77,1.25-1.25-.78-6.31-10.09-6.49-11.75-.35-3.21,2.16-4.92,5.12-5.36Z" fill="#614e3d"/><path d="M414.41,220.7c-.3-1.17-3.46-7.06-4.31-8.19-1.22-1.61-1.71-2.43-3.94-2.22-1.62.16-7.52,2.35-8.2,3.82-1.11,2.43,3.38,11.71,7.16,11.05,1.78-1.08,7.83-.61,8.79-1.58.58-.58.7-2.06.5-2.88ZM408.27,219.38c-2.46,2.19-5.72-1.97-4.79-3.34.15-.21,2.79-.73,3.28-.42.17.1,1.62,3.59,1.51,3.76Z" fill="#614e3d"/><path d="M384.2,195.76c-.13-.64-3.83-8.1-4.3-8.69-1.42-1.79-5.41-1.6-7.4-.82-1.99.78-2.07,2.22-3.08,3.4.35,2.02,1.32,3.72,1.92,5.75.28.96,1.19,1.62-.48,1.44.32.91.11,1.08.96,1.92.05.06.57-.17.85.11.25.27,1.06,2.54,2.01,3.01,2.71,1.34,10.28-2.24,9.52-6.12ZM379.01,196.36c-.06.07-1.83.55-1.91.48-.37-2.33-2.09-4.28-1.92-6.71.9-1.05,4.06,5.93,3.83,6.23Z" fill="#5f4d3b"/><path d="M388.63,204.24c-1.46-.98-2.75-.86-4.47-.57-2.6.45-5.39,1.98-5.13,4.86.18,1.91,4.02,8.95,5.61,9.79,2.53,1.35,9.14-2.75,8.77-5.38-.11-.71-4.15-8.28-4.78-8.7ZM386.92,213.14c-.83.37-2.07-3.5-2.64-4.06-.38-1.06,1.43-.9,1.85-.65.23.15,2.31,4.04.79,4.71Z" fill="#5f4d3b"/><path d="M382.72,228.6c2.54-.59,4.74-.49,6.29,1.65.66.91,5.18,8.59,5.28,9.15.72,4.23-6.43,6.6-9.43,2.2-.52-.77-3.79-7.05-3.89-7.61-.36-1.92-.56-4.85,1.76-5.39Z" fill="#5f4d3b"/><path d="M428.29,238.45c-2.39-.96-9.6,0-10.66,2.52-.99,2.34,1.21,6.97,3.46,8.04,1.52.71,10.18.37,11.04-.49,1.8-1.8-1.67-9.19-3.84-10.07ZM426.97,244.32c-.87-.03-4.72,1.25-4.31-.71.21-1.03,4.63-1.4,4.31.71Z" fill="#614e3d"/><path d="M401.91,198.64c-2.19-.95-7.85.61-9.35,2.16-1.63,1.69.22,8.78,2.28,9.7,1.74.78,8.33-.56,10.19-1.31,3.38-1.36-.96-9.62-3.12-10.55ZM397.26,205.94c-2.16-1.62,2.66-4.27,3.33-2.14.53,1.69-2.92,2.44-3.33,2.14Z" fill="#614e3d"/><path d="M352.65,189.39c-1.06-1.18-2.92-1.55-4.42-1.55-1.81,0-7.07.53-7.1,2.99,0,.24,1.14,4.01,1.32,4.44,2.02,4.8,6.42,7.06,10.9,3.48,1.16-.92,1.76-1.51,1.71-3.08-.03-1.1-1.7-5.5-2.41-6.28ZM349.75,195.4c-1.26.35-2.56-1.12-2.87-2.17-.34-1.16,2.15-.81,2.34-.65.11.09.65,2.71.53,2.82Z" fill="#614e3d"/><path d="M396.98,187.26c-1.3-1.46-5.18-1.06-7.04-.84-3.57.43-6.07.91-4.95,5.16.3,1.13,2.94,5.82,3.94,6.13,1.05.32,8.34-1.21,9.07-1.78,1.28-1.01.03-7.48-1.02-8.67ZM390.53,191.8l2.87-.71c.32,1.51-2.24,1.85-2.87.71Z" fill="#614e3d"/><path d="M411,242.28c-.59,1.91-3.68.53-4.89.57-3.14.11-5.5,1.99-7.83-1.24-1.22-1.69-2.11-4.26-1.17-6.28s7.62-3.68,9.71-2.74c1.39.63,4.66,8.13,4.17,9.7Z" fill="#5f4d3b"/><path d="M417.99,225.72c-.93-.21-1.73-.14-2.65.01-6.2,1.01-8.43,5.33-4.6,10.6,1.93,2.66,6.73,1.59,9.52.56,4.31-1.59.29-10.6-2.27-11.17ZM416.9,232.81c-.15.15-2.08-.11-2.64,0-1.07-.98,1.02-2.56,1.91-2.4.72.13.96,2.17.73,2.4Z" fill="#614e3d"/><path d="M394.24,219.48c-1.64.23-5.38,2.06-5.9,3.71-.77,2.43,1.87,8.92,4.44,9.52,2.21.51,5.55-.7,7.11-2.27,2.53-2.55-.95-11.63-5.65-10.96ZM395.07,227.53c-1.19.25-2.15-2.36-1.67-2.87,1.04-1.1,3.5,2.49,1.67,2.87Z" fill="#614e3d"/><path d="M411.99,243.48c7.39-.91,7.03,8.85,3.7,9.46-1.3.24-5.33.55-6.71.52-5.08-.1-6.83-6.82-3.12-8.43,1.07-.46,4.92-1.4,6.13-1.55Z" fill="#5f4d3b"/><path d="M400.09,245.54c-1.54-.99-6.01-1.04-7.79-.64-4.5,1.03-1.09,9.62,1.09,10.69,1.79.87,9.08-1.08,9.85-2.63.74-1.52-1.77-6.53-3.15-7.42ZM397.71,250.55c-.86.17-1.96.9-2.39-.24-.88-2.32,3.29-.95,2.39.24Z" fill="#5f4d3b"/><path d="M385.12,246.38c.29.24,3.67,6.18,3.78,6.57,1.01,3.55-6.9,4.44-8.91,3.59-1.19-.51-4.4-5.82-4.32-7.15.21-3.5,7.36-4.73,9.45-3.01Z" fill="#5f4d3b"/><path d="M371.34,195.4h-.48c-.47-1.19-1.72-3.74-2.4-5.28.25-.19.8-.3.96-.48.35,2.03,1.32,3.72,1.92,5.76Z" fill="#b5b2af"/><path d="M459.6,154.38c-1.55-1.63-8.35-8.49-9.96-8.78-.44-.08-.77-.09-1.21,0-1.04.19-4.43,2.9-5.41,3.75-4.21,3.69-10.51,10.94-14.38,15.35-5.09,5.8-9.47,12.2-14.83,17.78-.34.47-.75,1.05-.73,1.65.02.68,6.29,9.97,7.26,11.42,7.42,11.06,15.5,21.07,23.61,31.55,2.31,2.99,10.38,15.39,12.77,16.51,1.68.78,4.11-1.59,5.49-2.66,10.7-8.35,17.49-16.64,26.62-26.14,1.29-1.34,7.17-5.69,7.2-6.69-9.99-19.37-21.39-37.86-36.43-53.74ZM464.63,210.31c-.66.05-10.49-1.44-11.31-1.69-2.28-.7-2.68-3.86-.6-4.49,1.57-.46,10.48.85,12.14,1.58,2.61,1.14,2.42,4.42-.23,4.6ZM479.24,198.5c-.62,3.19-3.5,1-5.06.77-7.44-1.1-16.38-1.79-23.95-2.43-3.08-.26-15.55-.13-17-1.22-1.81-1.38-.77-3.96,1.28-4.43,2.74-.64,9.66.13,12.84.38,8.65.66,18.69,1.75,27.28,2.93,2.77.38,5.29.49,4.61,4Z" fill="#757474"/><path d="M97.48,209.79l7.19,39.33-6.17-10.37c-3.88-8.48-7.27-17.15-10.61-25.85-.13-1.04.14-.55.67-.75,2.82-1.07,6.09-1.22,8.91-2.35Z" fill="#f9f8f8"/><path d="M130.94,183.53c5.2-.82,8.88.72,10.76,5.79,2.68,7.21-.92,11.98-7.78,13.97-15.74,4.57-15.22-17.84-2.98-19.77Z" fill="#fcfbfb"/><path d="M52.74,195.5c3.85-.91,9.56,1.98,10.81,5.78,3.62,11.05-14.52,18.82-18.91,8.36-1.5-3.58-.4-8.15,2.02-11.12,1.78-2.19,2.12-1.15,3.95-1.81.78-.28,1.29-1.02,2.14-1.22Z" fill="#fcfbfb"/><path d="M372.78,238.08c-.48.49-1.33-.65-1.64-1-4.1-4.68-12-19.44-15.23-25.54-.38-.73-2.3-4.13-1.83-4.64.54-.6,1.29.75,1.53,1.1,4.74,7.04,10.25,16.92,14.38,24.47.39.71,3.02,5.36,2.79,5.6Z" fill="#b5b2af"/><path d="M367.5,202.11c-.63-.08-1.54.31-1.97-.28-.68-.96-3.83-11.55-3.31-12.18,1.02-.2,1.12.48,1.47,1.17,1.64,3.24,2.5,7.84,3.81,11.3Z" fill="#b5b2af"/><path d="M371.34,195.4c.28.96,1.2,1.62-.48,1.44-.13-.35.13-1.11,0-1.44h.48Z" fill="#c1c0bf"/><path d="M406.76,215.62c.17.11,1.62,3.59,1.51,3.76-2.45,2.19-5.72-1.97-4.78-3.33.14-.21,2.79-.73,3.28-.42Z" fill="#bfbebd"/><path d="M379.02,196.36c-.06.08-1.83.55-1.91.49-.36-2.33-2.09-4.28-1.92-6.71.9-1.04,4.06,5.93,3.83,6.23Z" fill="#b5b2af"/><path d="M386.13,208.43c.23.14,2.31,4.04.79,4.71-.82.36-2.07-3.5-2.64-4.07-.38-1.06,1.43-.9,1.85-.64Z" fill="#b5b2af"/><path d="M426.97,244.32c-.87-.03-4.72,1.25-4.31-.71.21-1.03,4.64-1.4,4.31.71Z" fill="#b5b2af"/><path d="M397.27,205.94c-2.17-1.62,2.66-4.27,3.33-2.14.53,1.69-2.92,2.44-3.33,2.14Z" fill="#b5b2af"/><path d="M349.23,192.58c.11.09.65,2.71.53,2.82-1.26.35-2.56-1.11-2.87-2.17-.34-1.17,2.14-.82,2.34-.65Z" fill="#b5b2af"/><path d="M393.4,191.09c.32,1.51-2.24,1.85-2.87.71l2.87-.71Z" fill="#b5b2af"/><path d="M416.91,232.81c-.15.15-2.08-.1-2.64,0-1.08-.98,1.02-2.57,1.9-2.4.72.13.96,2.17.73,2.4Z" fill="#b5b2af"/><path d="M393.41,224.66c1.04-1.09,3.5,2.49,1.67,2.87-1.19.25-2.15-2.36-1.67-2.87Z" fill="#b5b2af"/><path d="M397.72,250.55c-.86.17-1.96.9-2.39-.24-.88-2.32,3.28-.95,2.39.24Z" fill="#b5b2af"/><path d="M434.51,191.19c2.75-.64,9.67.14,12.84.38,8.65.67,18.69,1.75,27.28,2.93,2.77.38,5.29.49,4.6,4-.62,3.19-3.49,1-5.06.77-7.44-1.1-16.38-1.79-23.95-2.43-3.07-.26-15.55-.14-16.99-1.23-1.82-1.37-.77-3.95,1.27-4.43Z" fill="#5f4d3b"/><path d="M452.73,204.13c1.56-.47,10.47.85,12.14,1.58,2.61,1.14,2.42,4.42-.23,4.6-.66.05-10.49-1.45-11.31-1.7-2.28-.7-2.68-3.86-.6-4.48Z" fill="#5f4d3b"/></g></svg>