<?xml version="1.0" encoding="UTF-8"?><svg id="Layer_2" xmlns="http://www.w3.org/2000/svg" viewBox="0 0 290.69 418.98"><g id="Layer_1-2"><path d="M56.63,22.76c9.03.75,17.9,5.86,25.09,11.12,11.24,8.23,18.02,19.8,18.56,33.96,18.35-5.22,37.41-6.08,56.28-3.28,40.26,5.97,64.81,24.81,88,56.84,1.87,2.58,5.83,9.99,7.4,11.54,1.45,1.43,9.05,5.2,11.53,6.93,9.04,6.33,17.93,16.01,24.51,24.89,7.22,9.74-1.51,17.23-9.47,22.1-6.28,3.85-13.11,6.38-20.01,8.87.44,5.39,1.32,9.72.38,15.15-1.34,7.73-6.29,14.18-7.82,20.48-3.06,12.6-4.01,27.06,1.14,39.2,1.77,4.17,6.86,9.08-.05,11.77-4.44,1.72-9.22,1.99-12.33-2.02-.19,4.27-.93,15.45-6.54,15.81-1.22.08-5.42-.55-6.16-1.43-.71-.84-.32-2.19-1.21-2.38-.45,3.96-2.12,5.67-6.24,5.27.33,4.79-.3,8.91-3.37,12.7-.56.69-2.39,1.87-2.42,2.02-.12.58.72,3.56,1.1,3.88,1.44,1.21,3.93,0,6.52,3.79,2.73,3.98,3.11,9.22-.37,12.84,2.93,10.74,5.79,21.56,7.16,32.65.34,2.77.01,7.12.49,9.58.2,1.04,1.12,1.33,1.34,2.03,1.38,4.39-7.18,11.62-10.7,13.57-1.16,5.2-.49,10.84-1.2,16.06-2.05,14.94-27.58,14.92-33.81.72-.42-.97-.61-3.22-.74-3.34-.48-.46-10.6,1.64-12.27,1.84-10.73,1.3-21.29,1.68-32.07.54-3.85-.41-7.63-1.43-11.47-1.95-1.52,6.08-3.26,13.49-10.65,14.37-12.33,1.47-24.13-10.4-22.68-22.68.36-3.01,2.14-5.3,2.62-7.96-3.58-2.76-7.11-5.71-10.11-9.11-1.23-1.4-6.55-8.14-6.85-9.46-1.44-6.35,7.55-11.46,7.58-14.3,0-.78-6.63-5.67-7.89-7.46-6.49-9.23-.48-26.08.69-36.42-5.34,1.12-6.44,2.49-8.98-2.79-.32-.65.3-1.32-1.08-1.05.38,1.75,1.27,4.15-.49,5.5-1.16.89-7.68,1.44-9.32,1.18-3.68-.6-3.89-5.39-6.5-7.16-.06,2.2-.22,6.9-1.94,8.38-1.1.94-9.68,3.27-11.25,3.16-1.8-.12-3.65-1.6-4.1-3.38-10.94,5.6-13.42-.4-16.65-9.48-7.01-19.67-3.65-35.08-2.98-55.01.04-1.29.33-9.51-.02-9.85-.27-.27-4.58.36-7.22-2.13-1.19-1.12-3.2-6.6-3.25-8.16-.35-10.28,6.16-29.46,11.35-38.46,2.91-5.06,6.73-8.14,7.27-14.31.18-2.04-.18-4.22-.01-6.25,3.5-43.1,16.44-78.18,57.73-97.18,2.21-1.02,10.26-3.58,11.34-4.49,2.65-2.23-1.32-13.12-2.64-16.03-4.89-10.84-19.81-22.52-31.38-25.21-2.16-.5-7.26-1.86-6.65,1.83.35,2.14,7.85,10.58,9.14,13.91,3.03,7.84-10.11,4.36-13.75,4.17-2.35-.12-4.78.05-7.14.1-1.74,2.39-4.17,4.19-6.06,6.41-2.2,2.58-7.12,11.85-11.04,10.06-3.02-1.38-3.82-15.21-5.51-18.48-1.23-1.2-13.85-1.76-17.04-3.1-6.07-2.57.81-7.75,3.35-10.08,3-2.75,6.4-5.29,9.62-7.76-.93-7-3.07-15.88-1.92-22.9,1.21-7.37,12.31,1.41,14.85,3.8,1.12,1.05,3.18,4.53,4.53,4.56.73.02,11.14-5.08,13.31-5.88,2.94-1.07,12.72-5.47,14.07-1.34s-2.88,14.14-3.62,18.73ZM54.71,8.38l-22.73,8.63c-3.25-.32-9.46-10.51-13.71-11.03-1.46,5.3,3.4,18.7,1.6,22.91-.26.6-3.68,2.19-4.71,3-2.67,2.12-5.61,5.12-7.92,7.66,3.53.91,13.98.81,16.33,3.1,2.24,2.19,2.53,11.81,3.82,15.13,2.38-2.52,4.26-5.48,6.46-8.16.9-1.09,2.29-2.01,3.13-3.1,1.52-1.98-.22-2.82,3.57-3.14,5.01-.43,10.66.19,15.6.98.71-.74-7.61-10.78-7.69-13.68-.08-2.56,3.76-11.56,4.68-14.99.28-1.05,1.89-6.97,1.57-7.29ZM36.49,137.39c-.41,1.41-.59,2.91-.96,4.32-.46,1.75-1.04,3.49-1.44,5.28-.76,3.37-1.39,6.65-1.92,10.07-.78,5.09-1.65,10.85-1.91,16.07-.07,1.37-.19,3.51,0,4.8.09.64-.26.85.72.71,1.91-.28,12.34-6.95,15.1-8.41,31.19-16.43,67.26-29.94,101.68-37.88,31.06-7.17,64.83-10.88,95.92-2.15.41-.38-1.19-2.51-1.52-3.03-3.57-5.41-9.1-12.67-13.34-17.59-2.4-2.79-5.06-5.12-7.67-7.67-1.94-1.9-3.77-3.91-5.76-5.76-1.03-.96-2.23-1.77-3.11-2.9-.34-.35-.76-.38-1.2-.45-1.16-1.66-3.16-2.94-4.84-4.04-28.25-18.4-66.12-25.2-98.96-17.03-36.59,9.1-60.12,29.06-70.78,65.67ZM13.47,221.32c7.96-9.12,19.11-15.66,29.72-21.35,63.56-34.12,146-52.98,217.98-44.83,4.58.52,9.11,1.54,13.66,2.16-6.2-7.1-13.79-14.14-22.21-18.55-2.76-1.45-11.06-3.65-14.61-4.58-37.48-9.81-83.1.35-119.41,11.73-27.29,8.54-59.53,21.46-83.71,36.67-6.51,4.09-7.97,5.41-11.92,12.06-4.87,8.19-8.28,17.23-9.51,26.7ZM251.83,188.7c-.43-4.47.01-8.02.02-12.21,0-5.68-.05-11.37-.02-17.05-24.44-1.48-48.78-1.44-73.06,2-28.75,4.07-57.77,12.03-84.98,21.97-9.5,3.47-21.81,7.89-30.62,12.54-2.8,1.48-1.11,1.42-1.42,2.99-.37,1.82-1.15,3.3-1.29,5.32-.16,2.19,1.04,7.67.24,8.9-.19.3-.92.34-1.06.58-.49.82.23,3.4-2.35,3.63-1.61.14-3.02-2.2-6.27-.96-5.4,2.06-6.31,11.02-3.69,15.41,2.37,3.98,11.26,6.82,15.67,6.14,1.92-.29,3.36-1.87,5.15-1.07,2.2.99,1,3.42,1.56,4.44,1.05,1.9,9.54,10.3,11.62,12.11,23.51,20.39,60.55,16.93,89.07,11.35,22.12-4.33,55.69-12.71,70.89-30.07,5.73-6.54,10.67-15.71,12.35-24.34,1.43-7.34-1.1-14.44-1.8-21.7ZM256.62,161.13c.83,7.12,0,17.43,0,24.94,0,.53.69,3.95,1.23,4.06.77.15,10.46-3.66,11.9-4.35,4.94-2.38,19.14-10.12,14.69-16.97-4.64-7.14-20.61-7.84-28.3-8.87-.18.54.45.99.48,1.2ZM56.15,199.74c-.74-.77-15.58,7.66-17.41,8.73-6.14,3.6-12.29,7.36-17.53,12.23.34,9.09,1.55,18.16,1.39,27.26-.26,15.1-3.23,30.34-.36,45.4.8,4.21,3.54,13.8,5.73,17.29.67,1.07,1.44,1.85,2.77,1.07-1.02-2.75-2.09-5.47-2.66-8.37-.92-4.66-1.61-11.37-.6-15.98.54-2.45,3.42-3.22,4.91-1.28.79,3.81,7.1,25.96,9.38,27.1.59.3,6.12-1.34,6.6-1.82,1.45-1.44-.4-9.21,3.94-9.02-1.08-3.81-2.45-7.49-3.19-11.41-1.57-8.23-3.01-21.83-2.02-30.01.49-4.05,4.16-5.77,4.7-1.95.64,4.6-.24,10.49.05,15.32.47,7.78,2.23,18.32,5.18,25.51.59,1.44,4.21,8.84,5.2,9.18,2.2.77,2.89-.03,3.04-2.08.37-4.81-1.77-12.5-1.95-17.77-.09-2.78,2.86-4.21,4.84-2.26.84.83,2.8,5.15,3.42,6.52.98,2.17,4.14,11.98,4.94,12.8.73.75,4.44.23,5.07-.23.53-.38,2.11-10.84,2.61-12.74,2.25-8.47,6.72-16.48,14.48-21.01.75-.44,2.92-.94,3.03-1.05.82-.83-.31-.81-.68-1-7.08-3.58-14.69-5.76-21.13-11-2.37-1.93-12.29-11.78-13.32-14.03-.34-.74-.29-2.18-.37-2.26-.22-.22-3.99.51-5.01.48-5.82-.13-14.48-3.2-17.72-8.2-6.42-9.9-.69-26.26,12.67-23.46-.85-4.13-.18-7.87,0-11.99ZM17.31,236.19l-.72-10.55c-2.9,3.43-7.37,11.07.72,10.55ZM244.63,239.54c-.83-.22-.96.35-1.44.71-2.21,1.69-4.04,4.03-6.56,5.91-7.17,5.32-18.01,10.28-26.41,13.4-1.85.69-11.21,3.04-11.63,3.48-.21.22-.04.66.31.99,1.62,1.53,3.39,2.72,4.95,4.53,3.95,4.58,9.66,12.81,12.57,18.12.69,1.26,2.14,7.26,4.2,5.58.27-.22.96-5.97,1.01-6.91.15-3.02-1.05-8.85.04-10.99,3.47-6.79,7.24,5.23,7.95,7.75.45,1.6,1.34,8.24,2.3,8.73.94.22.67-.36.96-.93.97-1.92,1.54-5.28,1.69-7.44.19-2.71-.82-10.44.96-11.99,3.81-3.32,6.76,6.35,9.72,7.55.89.36,3.89-.04,4.15-.9.15-.49-3.1-7.28-3.58-8.83-2.86-9.3-2.64-19.26-1.2-28.77ZM204.23,287.87c-1.56,1.56-4.59-.19-6.36-.37-8.06-.83-14.17,3.05-13.67,11.74.7,12.26,11.74,14.02,21.58,11.05,7.14-2.15,9.26-5.39,8.62-12.95-.72-8.53-13.63-26.64-20.59-31.68-.66-.48-.96-.91-1.94-.7-.54.54,6.02,11.91,6.8,13.58.51,1.1.8,3.08,1.32,3.84.68,1.02,3.93.88,4.61,2.24.42.83.27,2.61-.37,3.25ZM194.28,282.22c.17-1.48-.52-2.7-1.03-4-.58-1.47-5.62-10.65-6.42-11.35-1.1-.96-3.46.83-5.02.49l6.24,15.82,6.23-.96ZM173.17,269.76c-.39-.37-9.3,1.33-10.64,1.59-.75.14-3,0-2.78,1.04,3.18,5.42,12.57,3.59,13.42-2.63ZM164.69,322.66c-1.37,1.65-3.08,6.3-4.56,8.63-5.28,8.33-13.59,15.71-22.8,19.4-9.13,3.66-27.93,6.61-35.85-.37-.69-.61-1.65-2.59-2.4-2.39-3.27,3.91-5.62,8.43-8.48,12.63-1.05,1.54-5.16,5.8-5.16,7.27,5.3,9.02,14.62,16.9,23.51,22.5,24.28,15.29,55.76,13.05,82.55,6.37,11.38-2.84,24.56-7.99,32.4-16.94-.74-2.98-.17-6.04-.37-9.05-.14-2.09-.51-7.3-1.02-9.05-.1-.35-.41-.54-.65-.78l-11.29,9.32c-6.49,1.59-4.39-4.36-4.48-8.05-.11-4.25-.36-8.56-.51-12.82-4.68-2.49-20.27,2.16-17.57-6.48,2.18-2.52,14.61-8.86,15.28-11.1.89-2.94-2.92-4.94-4.62-7.18-1.38-1.82-3.29-6.58-4.37-7.62s-3.24-.94-4.67-1.56c-9.16-3.96-13.24-15.99-8.87-24.88.81-1.64,3.08-3.43,2.96-5.15l-5.28-13.7-2.39,4.07c-3.68,4.32-8.99,5.33-14.39,4.08,2.06,3.33,4.91,6.96,6.49,10.53.99,2.23,1.16,4.71,2.04,6.6,1.24,2.69,3.5,3.71,3.94,7.57.68,6.01-.69,10.07-4.78,14.4-1.28,1.35-3.77,2.65-4.66,3.73ZM126.65,274.08c-8.89.14-16.23-2.33-24.64,1.97-2.44,1.25-8.15,6.28-8.92,8.82-.29.97.28.59.69.72,8.59,2.6,11.37,7.07,13.06,15.73,1.26,6.46,1.78,13.84.15,20.23,2.91-.56,6.16-2.44,6.63-5.63.15-1-1.28-3.58-1.6-4.92-3.32-13.8,5.58-27.42,14.63-36.93ZM162.14,290.86c.82-.79-10.45-17.81-13.73-17.6l-11.69.82c4.04,5.37,8.16,10.67,10.53,17.07,5.09-1.34,9.76-1.83,14.88-.29ZM131.31,276.52c-1.83.48-8.98,10.72-10.18,12.89-2.76,5.02-5,11.75-4.56,17.53.91,12.11,17.43,18.9,28.07,17.96,11.73-1.04,34.57-13.39,19.92-26.14-7.51-6.53-16.6-3.48-23.28,2.63-1.96,1.79-4.77,7.18-7.71,4.85-2.99-2.37,3.39-7.85,5.08-9.4,1.21-1.12,3.94-2.15,3.85-3.79-.14-2.43-5.13-10.23-6.8-12.43-.84-1.1-3.07-4.45-4.38-4.11ZM90.32,290.98c-.54.63-2.07,7.91-2.37,9.38-1.76,8.61-3.8,19.11-4.86,27.76-.54,4.42-1.37,10.74.31,14.88.92,2.28,6.15,8.21,8.52,6.42.38-.29,5.26-6.66,5.38-7.09.76-2.64.79-6.75,1.68-9.83,1.4-4.83,3.35-7.8,7.52-10.7-1.62.23-3.41.83-4.22-1.06.69-7.69,1.5-25.69-6.85-29.58-1.27-.59-4.09-1.37-5.11-.17ZM208.97,315.5c-2.31-1.48-6.15,1.48-8.94,1.26.75,4.14,5.83,11.77,10.04,12.74,3.56.82,9.42.93,9.6-3.91.2-5.36-4.92-4.79-7.63-6.69-1.07-.75-2.07-2.76-3.07-3.4ZM131.93,328.27c-.11-.17-3.09-.89-3.83-1.21-4.38-1.91-7.49-4.57-11.51-6.94-.05,1.78-2.34,3.27-2.87,4.21-.97,1.7-1.91,7.12-.88,8.89,1.98,3.41,11.32,1.1,14.31-.37,1.08-.53,5.61-3.33,4.78-4.57ZM107.46,327.79c-3.29,3.05-5.91,12.8-3.93,16.64,3.48,6.74,18.24,4.95,24.48,3.67,11.63-2.4,22.74-10.09,28.36-20.55-3.75.76-7.48,2.22-11.32,2.58-2.13.2-5.84-.36-7.52.15-.87.27-1.78,2.23-2.72,3.04-8.69,7.5-29.52,12.1-27.35-5.53ZM101.26,392.07c-5.43,10.66,4.66,23.11,16.07,21.59,3.57-.47,5.96-7.9,5.27-11.08l-21.34-10.51ZM213.94,393.98c-8.13,3.79-16.57,6.95-25.42,8.64,1.67,7.77,8.59,10.82,16.06,10.06,11-1.12,8.76-10.41,9.36-18.7Z" fill="#614e3d"/><path d="M241.28,234.75c-15.2,17.36-48.77,25.74-70.89,30.07-28.52,5.58-65.56,9.04-89.07-11.35-2.08-1.81-10.57-10.21-11.62-12.11-.56-1.02.63-3.45-1.56-4.44-1.78-.81-3.23.77-5.15,1.07-4.41.67-13.3-2.17-15.67-6.14-2.61-4.39-1.7-13.35,3.69-15.41,3.25-1.24,4.66,1.1,6.27.96,2.58-.22,1.86-2.81,2.35-3.63.14-.24.87-.28,1.06-.58.8-1.23-.39-6.71-.24-8.9.14-2.02.93-3.5,1.29-5.32.31-1.57-1.38-1.51,1.42-2.99,8.81-4.65,21.12-9.07,30.62-12.54,27.21-9.94,56.23-17.9,84.98-21.97,24.28-3.44,48.62-3.48,73.06-2-.03,5.68.02,11.37.02,17.05,0,4.19-.45,7.74-.02,12.21-16.49-.6-26.49,22.6-21.19,36.29,1.68,4.33,5.69,9.33,10.64,9.75ZM215.27,166.3c-22.98,2.62-19.24,38.17,4.13,35.78,23.27-2.37,19.97-38.53-4.13-35.78ZM124.15,182.12c-22.98,2.62-19.24,38.17,4.13,35.78,23.27-2.37,19.97-38.53-4.13-35.78ZM186.43,209.64c2.64-2.51,8.27-15.11,3.67-16.53-4.51-1.39-3.55,5.05-4.59,8.17-2.75,8.2-13.09,9.49-18.31,3.22-1.51-1.81-2.33-8.06-5.54-6.46-3.04,1.51.25,7.41,1.72,9.32,5.25,6.82,16.63,8.37,23.05,2.27ZM101.61,216.18c-15.86,1.91-26.81,20.62-16.4,34.36,7.8,10.29,28.82,14.25,37.85,3.88,14.21-16.31-1.12-40.69-21.45-38.24Z" fill="#fdfdfd"/><path d="M164.69,322.66c.89-1.08,3.38-2.38,4.66-3.73,4.09-4.33,5.46-8.4,4.78-14.4-.44-3.86-2.7-4.88-3.94-7.57-.87-1.89-1.05-4.37-2.04-6.6-1.58-3.57-4.43-7.2-6.49-10.53,5.39,1.25,10.71.24,14.39-4.08l2.39-4.07,5.28,13.7c.12,1.73-2.15,3.51-2.96,5.15-4.37,8.89-.29,20.91,8.87,24.88,1.43.62,3.61.54,4.67,1.56s2.99,5.8,4.37,7.62c1.7,2.23,5.5,4.23,4.62,7.18-.67,2.24-13.1,8.58-15.28,11.1-2.71,8.63,12.88,3.99,17.57,6.48.15,4.26.4,8.57.51,12.82.09,3.69-2.01,9.64,4.48,8.05l11.29-9.32c.24.23.55.43.65.78.51,1.75.88,6.96,1.02,9.05.2,3.01-.37,6.07.37,9.05-7.84,8.95-21.02,14.1-32.4,16.94-26.79,6.68-58.27,8.91-82.55-6.37-8.89-5.6-18.21-13.48-23.51-22.5,0-1.47,4.11-5.73,5.16-7.27,2.86-4.2,5.21-8.72,8.48-12.63.75-.19,1.7,1.78,2.4,2.39,7.92,6.98,26.72,4.03,35.85.37,9.22-3.69,17.52-11.07,22.8-19.4,1.48-2.33,3.19-6.98,4.56-8.63Z" fill="#fdfdfd"/><path d="M228.81,109.57c4.24,4.92,9.77,12.18,13.34,17.59.34.51,1.93,2.64,1.52,3.03-31.09-8.73-64.86-5.01-95.92,2.15-34.42,7.94-70.49,21.46-101.68,37.88-2.76,1.45-13.19,8.13-15.1,8.41-.98.14-.63-.07-.72-.71-.18-1.29-.06-3.43,0-4.8.27-5.22,1.13-10.98,1.91-16.07,10.28-12.74,24.93-20.96,39.63-27.75,43.06-19.87,88.83-29.46,136.61-24.52,6.97.72,13.74,2.72,20.39,4.79Z" fill="#bcd4d8"/><path d="M56.15,199.74c-.18,4.12-.85,7.86,0,11.99-13.35-2.79-19.09,13.56-12.67,23.46,3.25,5,11.9,8.07,17.72,8.2,1.02.02,4.79-.7,5.01-.48.08.08.03,1.52.37,2.26,1.03,2.25,10.95,12.1,13.32,14.03,6.44,5.24,14.05,7.42,21.13,11,.37.19,1.5.17.68,1-.11.11-2.28.61-3.03,1.05-7.76,4.54-12.22,12.54-14.48,21.01-.5,1.89-2.09,12.35-2.61,12.74-.63.46-4.34.98-5.07.23-.8-.82-3.96-10.64-4.94-12.8-.62-1.37-2.58-5.69-3.42-6.52-1.98-1.96-4.93-.52-4.84,2.26.18,5.28,2.32,12.97,1.95,17.77-.16,2.04-.84,2.85-3.04,2.08-.99-.35-4.61-7.74-5.2-9.18-2.95-7.19-4.71-17.73-5.18-25.51-.29-4.82.59-10.72-.05-15.32-.53-3.82-4.2-2.1-4.7,1.95-.99,8.18.45,21.78,2.02,30.01.75,3.92,2.11,7.6,3.19,11.41-4.34-.2-2.5,7.58-3.94,9.02-.48.47-6,2.11-6.6,1.82-2.28-1.14-8.59-23.29-9.38-27.1-1.49-1.94-4.38-1.17-4.91,1.28-1.01,4.62-.32,11.32.6,15.98.57,2.9,1.65,5.61,2.66,8.37-1.32.78-2.1,0-2.77-1.07-2.19-3.49-4.93-13.08-5.73-17.29-2.87-15.05.11-30.3.36-45.4.15-9.1-1.05-18.17-1.39-27.26,5.24-4.87,11.4-8.63,17.53-12.23,1.82-1.07,16.67-9.49,17.41-8.73Z" fill="#fcdb6f"/><path d="M211.06,92.78c-10.34-1.75-21.89-1.36-32.35-2.9-23.93-.98-44.09,1.43-66.81,8.52-27.13,8.47-53.74,20.37-75.41,38.98,10.66-36.61,34.19-56.57,70.78-65.67,32.84-8.17,70.7-1.37,98.96,17.03,1.68,1.09,3.67,2.38,4.84,4.04Z" fill="#bcd3d7"/><path d="M131.31,276.52c1.31-.34,3.54,3.01,4.38,4.11,1.68,2.2,6.67,10.01,6.8,12.43.09,1.64-2.64,2.67-3.85,3.79-1.69,1.55-8.07,7.03-5.08,9.4,2.93,2.32,5.75-3.06,7.71-4.85,6.68-6.11,15.77-9.16,23.28-2.63,14.65,12.75-8.18,25.1-19.92,26.14-10.63.94-27.15-5.85-28.07-17.96-.44-5.78,1.8-12.51,4.56-17.53,1.19-2.17,8.35-12.41,10.18-12.89Z" fill="#fcfcfc"/><path d="M54.71,8.38c.32.33-1.29,6.25-1.57,7.29-.92,3.43-4.76,12.42-4.68,14.99.09,2.9,8.4,12.94,7.69,13.68-4.95-.79-10.59-1.41-15.6-.98-3.8.33-2.05,1.16-3.57,3.14-.84,1.09-2.23,2.02-3.13,3.1-2.2,2.68-4.09,5.64-6.46,8.16-1.29-3.32-1.57-12.95-3.82-15.13-2.35-2.29-12.8-2.18-16.33-3.1,2.31-2.54,5.25-5.54,7.92-7.66,1.03-.81,4.45-2.4,4.71-3,1.8-4.21-3.06-17.61-1.6-22.91,4.25.52,10.46,10.71,13.71,11.03l22.73-8.63Z" fill="#fcfcfb"/><path d="M215.38,96.14c1.99,1.84,3.81,3.86,5.76,5.76-3.29-.63-6.56-1.46-9.89-1.86-21.05-2.5-50.82-1.39-71.8,1.93-30.27,4.8-77.29,21.96-100.78,41.66-1.42,1.19-2.55,3.39-4.57,3.34.4-1.78.98-3.52,1.44-5.28,6.19-4.79,12.16-9.82,18.74-14.11,20.5-13.35,47.49-23.95,71.22-29.98,27.75-7.05,59.39-5.75,87.57-1.31.7.11,1.86.75,2.32-.17Z" fill="#bed5d9"/><path d="M244.63,239.54c-1.44,9.52-1.66,19.48,1.2,28.77.48,1.55,3.73,8.33,3.58,8.83-.27.86-3.27,1.26-4.15.9-2.96-1.2-5.9-10.87-9.72-7.55-1.78,1.55-.76,9.28-.96,11.99-.16,2.16-.73,5.53-1.69,7.44-.29.57-.02,1.15-.96.93-.96-.49-1.85-7.13-2.3-8.73-.72-2.52-4.48-14.54-7.95-7.75-1.09,2.14.11,7.97-.04,10.99-.05.94-.74,6.69-1.01,6.91-2.06,1.68-3.51-4.32-4.2-5.58-2.92-5.31-8.62-13.54-12.57-18.12-1.56-1.81-3.34-3-4.95-4.53-.35-.33-.52-.77-.31-.99.42-.44,9.78-2.8,11.63-3.48,8.4-3.12,19.24-8.07,26.41-13.4,2.52-1.87,4.35-4.22,6.56-5.91.48-.37.61-.93,1.44-.71Z" fill="#fbdb6f"/><path d="M221.13,101.9c2.61,2.56,5.27,4.88,7.67,7.67-6.65-2.07-13.42-4.07-20.39-4.79-47.78-4.94-93.56,4.65-136.61,24.52-14.7,6.79-29.36,15-39.63,27.75.53-3.43,1.16-6.7,1.92-10.07,2.02.05,3.15-2.16,4.57-3.34,23.49-19.7,70.5-36.87,100.78-41.66,20.98-3.32,50.75-4.44,71.8-1.93,3.34.4,6.61,1.23,9.89,1.86Z" fill="#fdfdfd"/><path d="M251.83,188.7c.7,7.27,3.23,14.36,1.8,21.7-1.68,8.63-6.62,17.8-12.35,24.34-4.94-.41-8.96-5.41-10.64-9.75-5.31-13.7,4.7-36.9,21.19-36.29Z" fill="#fdc4b9"/><path d="M204.23,287.87c.64-.64.78-2.42.37-3.25-.68-1.36-3.92-1.22-4.61-2.24-.51-.76-.8-2.74-1.32-3.84-.78-1.67-7.34-13.04-6.8-13.58.98-.21,1.28.22,1.94.7,6.96,5.04,19.87,23.15,20.59,31.68.64,7.56-1.48,10.79-8.62,12.95-9.85,2.97-20.88,1.21-21.58-11.05-.5-8.69,5.61-12.57,13.67-11.74,1.76.18,4.79,1.93,6.36.37Z" fill="#fbfbfb"/><path d="M256.62,161.13c-.02-.21-.66-.66-.48-1.2,7.69,1.03,23.66,1.73,28.3,8.87,4.45,6.85-9.75,14.59-14.69,16.97-1.44.69-11.13,4.51-11.9,4.35-.54-.11-1.23-3.53-1.23-4.06,0-7.51.83-17.82,0-24.94Z" fill="#bbd3d7"/><path d="M211.06,92.78c.44.08.86.1,1.2.45.89,1.13,2.08,1.95,3.11,2.9-.46.92-1.62.28-2.32.17-28.18-4.44-59.82-5.74-87.57,1.31-23.73,6.02-50.71,16.63-71.22,29.98-6.58,4.29-12.55,9.32-18.74,14.11.37-1.41.55-2.9.96-4.32,21.67-18.61,48.28-30.51,75.41-38.98,22.73-7.09,42.88-9.5,66.81-8.52,10.46,1.54,22.01,1.15,32.35,2.9Z" fill="#fcfcfc"/><path d="M107.46,327.79c-2.17,17.63,18.66,13.03,27.35,5.53.94-.81,1.85-2.77,2.72-3.04,1.68-.51,5.39.05,7.52-.15,3.84-.36,7.58-1.82,11.32-2.58-5.62,10.47-16.73,18.16-28.36,20.55-6.24,1.29-21,3.07-24.48-3.67-1.98-3.84.64-13.6,3.93-16.64Z" fill="#919c78"/><path d="M126.65,274.08c-9.06,9.51-17.95,23.13-14.63,36.93.32,1.33,1.75,3.92,1.6,4.92-.47,3.19-3.72,5.07-6.63,5.63,1.63-6.39,1.1-13.76-.15-20.23-1.69-8.66-4.46-13.13-13.06-15.73-.42-.13-.99.25-.69-.72.78-2.55,6.48-7.57,8.92-8.82,8.41-4.3,15.75-1.84,24.64-1.97Z" fill="#919c78"/><path d="M101.26,392.07l21.34,10.51c.69,3.17-1.7,10.6-5.27,11.08-11.41,1.52-21.5-10.93-16.07-21.59Z" fill="#fbfbfb"/><path d="M213.94,393.98c-.6,8.29,1.64,17.58-9.36,18.7-7.48.76-14.4-2.29-16.06-10.06,8.85-1.69,17.29-4.84,25.42-8.64Z" fill="#fbfbfb"/><path d="M162.14,290.86c-5.13-1.55-9.8-1.05-14.88.29-2.37-6.39-6.49-11.69-10.53-17.07l11.69-.82c3.27-.21,14.55,16.81,13.73,17.6Z" fill="#919c78"/><path d="M208.97,315.5c1,.64,2,2.65,3.07,3.4,2.71,1.9,7.83,1.33,7.63,6.69-.18,4.84-6.04,4.73-9.6,3.91-4.21-.97-9.29-8.59-10.04-12.74,2.79.22,6.63-2.75,8.94-1.26Z" fill="#919c78"/><path d="M131.93,328.27c.84,1.24-3.7,4.04-4.78,4.57-2.99,1.47-12.33,3.78-14.31.37-1.03-1.76-.08-7.18.88-8.89.53-.94,2.83-2.43,2.87-4.21,4.02,2.37,7.13,5.04,11.51,6.94.73.32,3.72,1.05,3.83,1.21Z" fill="#fbfbfb"/><path d="M194.28,282.22l-6.23.96-6.24-15.82c1.56.34,3.92-1.45,5.02-.49.8.7,5.84,9.88,6.42,11.35.51,1.3,1.2,2.52,1.03,4Z" fill="#919c78"/><path d="M173.17,269.76c-.86,6.22-10.25,8.05-13.42,2.63-.21-1.03,2.03-.9,2.78-1.04,1.34-.25,10.25-1.96,10.64-1.59Z" fill="#fbfbfb"/><path d="M17.31,236.19c-8.09.52-3.62-7.12-.72-10.55l.72,10.55Z" fill="#bbd3d7"/><path d="M90.32,290.98c1.02-1.2,3.84-.42,5.11.17,8.35,3.9,7.54,21.89,6.85,29.58.81,1.89,2.6,1.28,4.22,1.06-4.17,2.89-6.12,5.87-7.52,10.7-.89,3.08-.92,7.19-1.68,9.83-.12.43-5,6.8-5.38,7.09-2.37,1.79-7.59-4.14-8.52-6.42-1.68-4.14-.85-10.46-.31-14.88,1.06-8.65,3.1-19.15,4.86-27.76.3-1.46,1.83-8.74,2.37-9.38Z" fill="#919c78"/><path d="M13.47,221.32c1.23-9.47,4.64-18.51,9.51-26.7,3.95-6.65,5.42-7.96,11.92-12.06,24.18-15.21,56.42-28.12,83.71-36.67,36.31-11.37,81.93-21.54,119.41-11.73,3.55.93,11.84,3.13,14.61,4.58,8.42,4.41,16.02,11.45,22.21,18.55-4.56-.62-9.08-1.64-13.66-2.16-71.99-8.15-154.42,10.71-217.98,44.83-10.61,5.69-21.76,12.24-29.72,21.35Z" fill="#bbd3d7"/><path d="M101.61,216.18c20.33-2.45,35.66,21.93,21.45,38.24-9.03,10.37-30.05,6.41-37.85-3.88-10.41-13.74.53-32.44,16.4-34.36Z" fill="#fec5ba"/><path d="M215.27,166.3c24.1-2.75,27.4,33.41,4.13,35.78-23.38,2.38-27.11-33.16-4.13-35.78ZM215.25,171.55c-15.36,2.4-13.05,26.91,3.67,25.25,16.76-1.66,13.87-27.99-3.67-25.25Z" fill="#62503e"/><path d="M124.15,182.12c24.1-2.75,27.4,33.41,4.13,35.78-23.38,2.38-27.11-33.16-4.13-35.78ZM124.13,187.38c-15.36,2.4-13.05,26.91,3.67,25.25,16.76-1.66,13.87-27.99-3.67-25.25Z" fill="#62503e"/><path d="M186.43,209.64c-6.42,6.1-17.8,4.56-23.05-2.27-1.47-1.91-4.76-7.81-1.72-9.32,3.22-1.6,4.03,4.65,5.54,6.46,5.22,6.27,15.56,4.98,18.31-3.22,1.05-3.12.09-9.56,4.59-8.17,4.59,1.42-1.03,14.02-3.67,16.53Z" fill="#62503e"/><path d="M215.25,171.55c17.54-2.74,20.43,23.59,3.67,25.25-16.72,1.66-19.03-22.85-3.67-25.25Z" fill="#fcfcfb"/><path d="M124.13,187.38c17.54-2.74,20.43,23.59,3.67,25.25-16.72,1.66-19.03-22.85-3.67-25.25Z" fill="#fcfcfb"/></g></svg>