<?xml version="1.0" encoding="UTF-8"?><svg id="Layer_2" xmlns="http://www.w3.org/2000/svg" viewBox="0 0 399.06 349.76"><g id="Layer_1-2"><path d="M354.55,279.54c-.12,1.57.89,8.87-2.34,6.89-.5-.31-4.53-9.2-5.08-10.5-.92-2.19-3.81-12.09-5.05-12.7-1.38-.68-3.31.06-3.74,1.54-.9,3.16.31,10.35-.15,14.24-.18,1.51-3.61,11.32-4.26,11.32h-7.68c-.33-5.17-.26-12.55-2.04-17.38-1.08-2.94-3.74-3.97-5.85-1.3-3.51,4.42-4,14.57-5.14,20.03l-9.99,1.53v-7.44c0-2.35-2.01-8.53-2.87-11.04-4.97-14.52-14.23-26.89-24.94-37.63,4.32-.22,8.89.29,13.18-.01,9.31-.64,35.17-8.53,42.42-14.18.89-.69,2.55-3.08,2.76-3.12.9-.17,4.71.71,6.64.54,14.45-1.27,24.57-31.96,4.05-33.12,2.78-13.49,1.43-28.59-2.63-41.72-4.52-14.6-15.01-26.2-25.56-36.79.7-7.87,1.74-15.96-.23-23.75-.89-3.48-3.27-7.53-6.58-3.48-3.61,4.41-5.89,12.24-9.36,17.03-9.75-5.81-21.67-8.99-32.76-11.37-6.1-1.31-13.32-2.81-19.52-3.02-4.31-.15-8.4.64-12.7.47,2.03-7.68,5.5-14.61,11.5-19.91,2.04-1.8,5.46-2.24,4.61-5.54-.84-3.28-7.7.03-9.72.91-10.66,4.65-20.35,11.5-26.74,21.22-.62.96-1.34,3.18-1.84,3.67-.78.78-5.43,2.53-6.91,3.41-15.01,8.86-34.38,21.89-39.83,39.3-2.35,18.72-13.39,42.74-6.73,61.14,6.38,17.63,24.41,27.38,40.65,34.41l-6.92,9.63c-6.41,10.96-11.26,22.89-13.77,35.38l-8.5-.48c-1.34-6.41-1.46-13.21-3.88-19.38-.79-2-3.29-3.95-5.07-2.14-2.08,2.1-3.45,16.28-3.11,19.67-1.61-.32-5.93,1.18-7.12.41-.3-.19-2.02-5.76-2.23-6.64-2.41-9.71-.95-17.97,1.34-27.45.68-2.84,3.66-9.5,2.5-11.88-1.25-2.58-3.8-.84-4.96.8-4.3,6.06-7.29,16.34-11.34,23.19-.67,1.12-3.98,6.34-5.19,6.16-.63-.1-3.79-2.69-3.65-3.46,6.31-8.35,11.93-15.81,15.53-25.75,19.15-52.97-.25-106.97,48.95-148.17,28.31-23.71,62.84-34.66,99.74-32.14,5.02.35,15.69,3.37,19.56,2.75.45-.07,1.05-.83,1.3-.83s3.66.87,3.84.95c.13.06,1.07,1.47,2.07,2.02,2.5,1.36,5.91,1.85,8.48,3.02,16.81,7.62,27.45,15.03,39.58,29.01,9.65,11.14,20.04,32.51,22.77,47.01,1.98,4.73,2.31,9.85,2.88,14.86,2.68,23.76-.48,43.75-9.99,65.55-11.83,27.11-25.78,42.74-28.38,74.26Z" fill="#fddc6f"/><path d="M391.61,197.66c20.86-59.23-2.78-129.15-62.49-153.6-1.11-.45-9.21-3.11-9.72-3.04-1.32.2-2.16,1.52-2.26,2.79.13.06,1.07,1.47,2.07,2.02,2.5,1.36,5.91,1.85,8.48,3.02,16.81,7.62,27.45,15.03,39.58,29.01,9.65,11.14,20.04,32.51,22.77,47.01,1.98,4.73,2.31,9.85,2.88,14.86,2.68,23.76-.48,43.75-9.99,65.55-11.83,27.11-25.78,42.74-28.38,74.26-.12,1.57.89,8.87-2.34,6.89-.5-.31-4.53-9.2-5.08-10.5-.92-2.19-3.81-12.09-5.05-12.7-1.38-.68-3.31.06-3.74,1.54-.9,3.16.31,10.35-.15,14.24-.18,1.51-3.61,11.32-4.26,11.32h-7.68c-.33-5.17-.26-12.55-2.04-17.38-1.08-2.94-3.74-3.97-5.85-1.3-3.51,4.42-4,14.57-5.14,20.03l-9.99,1.53v-7.44c0-2.35-2.01-8.53-2.87-11.04-4.97-14.52-14.23-26.89-24.94-37.63,4.32-.22,8.89.29,13.18-.01,9.31-.64,35.17-8.53,42.42-14.18.89-.69,2.55-3.08,2.76-3.12.9-.17,4.71.71,6.64.54,14.45-1.27,24.57-31.96,4.05-33.12,2.78-13.49,1.43-28.59-2.63-41.72-4.52-14.6-15.01-26.2-25.56-36.79.7-7.87,1.74-15.96-.23-23.75-.89-3.48-3.27-7.53-6.58-3.48-3.61,4.41-5.89,12.24-9.36,17.03-9.75-5.81-21.67-8.99-32.76-11.37-6.1-1.31-13.32-2.81-19.52-3.02-4.31-.15-8.4.64-12.7.47,2.03-7.68,5.5-14.61,11.5-19.91,2.04-1.8,5.46-2.24,4.61-5.54-.84-3.28-7.7.03-9.72.91-10.66,4.65-20.35,11.5-26.74,21.22-.62.96-1.34,3.18-1.84,3.67-.78.78-5.43,2.53-6.91,3.41-15.01,8.86-34.38,21.89-39.83,39.3-2.35,18.72-13.39,42.74-6.73,61.14,6.38,17.63,24.41,27.38,40.65,34.41l-6.92,9.63c-6.41,10.96-11.26,22.89-13.77,35.38l-8.5-.48c-1.34-6.41-1.46-13.21-3.88-19.38-.79-2-3.29-3.95-5.07-2.14-2.08,2.1-3.45,16.28-3.11,19.67-1.61-.32-5.93,1.18-7.12.41-.3-.19-2.02-5.76-2.23-6.64-2.41-9.71-.95-17.97,1.34-27.45.68-2.84,3.66-9.5,2.5-11.88-1.25-2.58-3.8-.84-4.96.8-4.3,6.06-7.29,16.34-11.34,23.19-.67,1.12-3.98,6.34-5.19,6.16-.63-.1-3.79-2.69-3.65-3.46,6.31-8.35,11.93-15.81,15.53-25.75,19.15-52.97-.25-106.97,48.95-148.17,28.31-23.71,62.84-34.66,99.74-32.14,5.02.35,15.69,3.37,19.56,2.75.45-.07,1.05-.83,1.3-.83.44-2.73-1.04-3.45-3.33-4.1-13.61-3.85-36.54-4.1-50.49-2.01-35.14,5.27-77.11,29.2-94.45,60.94-24.74,45.25-6.34,104.36-40.48,145.6-1.56,1.88-3.33,1.35-2.6,5.06.26,1.3,5.21,5.51,6.55,6.41,3.34,2.26,5.17,1.7,8.09-.86l6.46-9.13v10.31c0,2.06,2.62,10.55,3.6,12.7,1.01,2.22,1.75,3.43,4.35,3.8,1.93.28,9.32-.2,11.15-.76,2.6-.79,2.08-2.67,2-4.95-.09-2.37-.93-4.65.24-7.2.54,0,.62,6.53.72,7.2.01.1.38.37.44.76.21,1.37-.14,4.63,1.31,5.51,2.07,1.26,11.26.99,11.68,1.4.2,6.83-1.54,13.07,4.34,17.97.55.46,1.78.55,1.91,1.06.43,1.72-.47,4.27-.52,6.13-.19,7.16-.64,17.1,0,24.03.43,4.69,4.29,4.62,5.98,6.96,1.95,2.68,2.78,8.53,5.83,12.39,7.68,9.72,23.53,11.24,28.79-1.42,9.73.37,19.47,1.42,29.22,1.01,2.72-.12,15.74-2,17.01-1.22.43.26.75,1.33,1.46,1.89,10.22,8.07,18.52,4.63,21.18-7.79,6.03-1.1,23.15-6.57,22.95-14.22-.1-3.74-9.41-13.1-11.93-16.9-1-1.51-2.51-3.11-2.49-4.95.48-.45,11.14-1.01,13.09-1.54,4.58-1.25,3.36-10.92,4.66-14.76l.95,3.6c.17,2.34-.64,7.29,1.18,8.89,1.66,1.46,13.1,1.41,14.91-.01,2.83-2.23,5.34-10.33,5.98-13.92,4.2,3.8,3.16,12.87,10.58,11.29,8.6-1.82,5.66-6.3,6.21-12.97,2.66-32.48,21.57-52.41,31.78-81.4ZM275.66,244.28c9.55,10.23,26.38,36.1,21.56,50.35-1.74,5.17-5.46,6.44-10.31,4.11-9.87-4.74-26.18-35.03-29.6-45.7-1.61-5.06-2.47-15.53,4.55-16.79,5.09-.92,10.53,4.53,13.8,8.03ZM174.7,201.6c-12.82-12.11-13.68-22.86-10.55-39.8,2.31-12.52,5.5-32.65,12.47-42.69,2.13-3.07,2.72-3.6,5.27-6.23,10.21-10.52,22.09-17.6,34.55-25.16,4.31-8.36,10.5-13.73,18.46-18.48,1.99-.78-1.26,3.91-1.44,4.32-1.23,2.76-5.01,12.42-3.85,14.86.28.57,1.4,1.2,2.02,1.33,16.14-1.52,31.71,1.17,47.14,5.62,5.38,1.55,12.2,3.66,16.95,6.56,2.09,1.27,3.2,4.07,6.55,2.54,1.7-.77,8.4-15.62,9.11-15.09.62,3.43.76,7.76.5,11.29-.18,2.55-1.95,7.99-1.36,9.95.2.65,7.92,7.5,9.27,8.96,15.31,16.65,22.43,35.85,20.85,58.76-.22,3.13-2.5,11.11-1.82,13.34.97,3.2,4.92.88,6.37.87,6.86-.05,6.21,8.87,4.32,13.36-1.84,4.37-8.71,12.21-13.8,8.67-1.19-.83-.73-2.73-3.73-1.74-2.29.76-1.37,3.11-2.57,4.63-1.08,1.38-4.83,2.97-6.51,3.8-10.02,4.91-25.83,10.04-36.93,10.55-34.22,1.55-85.53-5.9-111.27-30.22ZM232.24,233.02c-2.68,3.38-10.9,2.4-11.02-2.64.42-.39,11.02,2.06,11.02,2.64ZM203.01,227.75l.71-.72c.48.43-.72,1.22-.71.72ZM202.04,229.9c-.36.04-.52-.12-.48-.48.27-2.44,2.92.21.48.48ZM183.45,282.78c-2.09-12.29,8.72-41.45,16.56-51.31.46-.57.54-1.31,1.54-1.09-2.63,7.07-5.79,13.84-7.91,21.1-3.07,10.56-6.18,23.82-7.43,34.72-.3,2.64-2.6-2.46-2.76-3.42ZM215.47,343.81c-7.24,3.24-16.75-2.96-18.23-10.31,7.04,2.84,14.47,5.11,22.06,5.75.96.9-2.85,4.12-3.83,4.56ZM282.74,342.03c-1.32.17-5.32-1.43-5.88-2.55-.47-.93.77-.67,1.13-.77,3.26-.88,6.58-1.68,9.89-2.34.29,2.18-3.32,5.42-5.14,5.66ZM310.46,318.83c2.2,3.53-5.86,6.77-8.54,7.83-25.21,10-59.48,12.23-85.99,7.09-9.32-1.81-18.62-4.84-26.12-10.81-1.2-16.17.1-31.31,3.26-47.09,2.66-13.22,6.35-30.23,12.54-42.14.42-.79,3.08-5.46,3.37-5.73,1.03-.94,7.11.61,7.38,1.02.21.32.02,2.36.28,3.33,2.05,7.89,13.02,9.67,18.73,4.76.84-.72,1.33-2.03,1.88-2.43,2.07-1.51,13.34,1.96,16.58,1.48-3.04,5.27-3.01,12.32-1.57,18.12.6,2.41,2.7,5.72,2.98,7.56.77,5.03,1.75,12.7,1.95,17.72.04,1.26.19,3.13-.02,4.29-.62,3.36-11.79,10.53-14.11,14.19-1.4,2.23-1,4.91,1.88,5.28,2.93.38,17.9-.59,18.9.04,1.15,3.31,2.64,17.47,5.15,19.08,2.43,1.55,4.08.3,5.71-1.39,3.34-3.48,5.2-8.95,8.89-12.21l16.47-3.03,10.4,13.04Z" fill="#624f3c"/><path d="M72.07,95.61c3.69-.47,11.03-8.84,13.85-4.02,1.84,3.14-1.45,3.44-3.15,4.41-3.16,1.8-10.47,7.33-13.73,5.39-1.05-.63-5.32-13.03-5.04-14.53.68-3.66,6.9-5.11,9.46-7.36.55-.48,1.19-.73,1-1.64-.93-.83-10.45,3.36-11.67,3.25-3.26-.28-2.9-3.98.51-5.55s14.16-5.22,16.08-.46c2.69,6.66-5.16,10.03-9.5,12.83l2.19,7.67Z" fill="#62503e"/><path d="M145.92,39.02c.06,1.93-.57,3.77-.83,5.65-.1.74.36,1.47.25,2.16-.42,2.73-5.08,2.95-5.65.1l3.82-25.65c-.72-.75-10.07,4.28-11.76,4.35-2.53.1-3.51-1.96-1.94-3.91s13.84-6.62,16.23-6.1c5.78,1.25.64,14.1,1.03,18.16.32.42,6.75,1.62,7.85,1.77,1.4.19,3.94-.93,3.98,2.27.08,5.84-9.85.94-12.98,1.21Z" fill="#62503e"/><path d="M187.7,28.41c1.47,1.03,12.34-4.28,15.07-4.2s3.44,3.66.89,5.16c-1.74,1.02-12.33,4.42-14.45,4.74-6.24.92-6.37-1.95-7.56-7.07-.97-4.17-2.28-11.37-.96-15.36,1.24-3.76,4.58-4.56,8.01-5.42,2.7-.68,12.27-3.35,12.88.9.49,3.45-2.99,2.33-4.99,2.66s-9.93,1.74-10.77,3.14c-1.76,2.94,1.08,12.04,1.89,15.45Z" fill="#62503e"/><path d="M25.7,76.51c-1.88-1.16-7.18-1.81-9.4-1.41-3.72.68-8.44,6.6-8.94,10.24-.7,5.07.6,9.43,5.09,12.09,12.63,7.51,27.21-12.32,13.25-20.92ZM13.72,92.09c-3.01-2.97-1.35-8.83,1.72-11.14,1.52-1.14,7.08-.4,8.43.75,6.96,5.89-4.06,16.42-10.15,10.39Z" fill="#62503e"/><path d="M107.55,57.49c-.49-6.22-4.53-9.87-8.62-13.92-.79-.4-1.71-.33-2.54-.14-1.7.39-1.68,1.72-2.76,2.53-4.2,3.14-5.97,3.51-7.42,9.36-4.55,18.35,22.75,20.23,21.34,2.17ZM95.8,64.94c-8-.75-5.68-14.2,1.09-14.8,5.19-.46,9.1,15.76-1.09,14.8Z" fill="#62503e"/><path d="M58.16,55.81c.67.67,10.69-4.29,12.73-4.35,3.44-.1,4.39,3.78,1.04,5.41-2.28,1.11-9.56,3.86-11.95,4.36-2.83.59-5.43.93-6.61-2.31-.58-1.6-1.84-9.18-1.93-11.03-.14-2.95.31-5.04,3.01-6.56,1.6-.9,12.68-4.69,14.6-5.06,4.07-.79,5.78,2.8,2.98,4.42-3.09,1.79-9.37,2.79-12.91,4.36-.6.27-1.88.69-2.19,1.18-.86,1.4,1.45,7.53,1.21,9.6Z" fill="#62503e"/><path d="M15.47,65.88c.87.86,14.92-8.63,10.69,1.46l-22.56,9.46c-2.79,1.18-4.72-2.18-2.88-4.09,1.34-1.39,9.49-3.43,9.9-4.76l-2.84-16.71c.03-2.76,3.05-4.27,4.7-1.8l2.99,16.44Z" fill="#62503e"/><path d="M52.71,82.83c-1.72-1.71-3.73-1.14-5.8-.62-1.66.43-7.29,2.48-8.76,3.23-2.51,1.3-2.83,2.75-2.32,5.4.56,2.87,2.59,9.56,5.82,10.03,2.3.33,11.13-3.3,12.41-5.28,1.52-2.36.69-10.75-1.35-12.76ZM49.79,92.74c-.3.48-6.89,3.31-7.43,2.84.1-1.49-2.02-4.04-1.26-5.25.4-.64,7.15-3.27,7.98-2.67.45.33,1.07,4.51.71,5.08Z" fill="#62503e"/><path d="M80.57,60.73c1.15,1.09,1.14,3.22.13,4.45-1.42,1.74-3.84.91-5.79,1.4-7.39,1.84-14.89,5.61-22.41,7.36-2.89.2-4.88-3.75-1.55-4.94,8.3-1.25,18.39-7.6,26.27-8.76,1-.15,2.58-.23,3.35.5Z" fill="#63513f"/><path d="M120.5,49.09c-.52-.53-12.37,5.91-12.04-.24.06-1.15.25-1.25,1.14-1.79,1.36-.82,8.97-2.31,9.41-2.82,1.09-1.27-2.57-8.17,1.73-8.15,1.47,0,2.38,1.24,2.8,2.52.61,1.86,3.3,14.46,3.24,16-.04.92-.08,1.94-1,2.39-4.3,2.12-4.87-5.31-5.28-7.91Z" fill="#63513f"/><path d="M214.03,11.2c.41.36,9.32-4.51,8.17,2.15-.37,2.15-6.39,1.8-7.16,2.69-.88,1.01,1.64,5.87-.81,7.58s-4.04-.89-4.39-3.2c-.55-3.54-1.86-13.99-1.54-17.08.41-3.96,4.66-4.55,5.21-.98.43,2.79-.45,5.99.52,8.84Z" fill="#62503e"/><path d="M39.29,53.03c.82-.07,2.24.88,2.47,1.67.03,6.58,2.13,13.07,2.48,19.58.13,2.31.71,6.92-2.63,6.92-3.79,0-2.4-5.43-2.64-7.87-.45-4.51-1.7-9.45-1.91-13.92-.09-2-.65-6.11,2.23-6.37Z" fill="#63513f"/><path d="M167.07,40.42c.96.68,6.2-2.03,7.87-1.93,2.8.16,3.55,3.71.74,5.1-1.26.62-8.16,2.57-9.43,2.6-2.54.06-3.61-1.74-4.2-3.88-.69-2.5-3.39-16.56,2.58-13.61,2.05,1.01.79,3.19.99,4.72.13.96,1.15,6.79,1.44,7Z" fill="#63513f"/><path d="M232.59,11.31c6.37-1.47,9.07,6.37,4.47,10.22-5.24,4.38-12.44-.61-9.14-5.79.59-.93,1.73-1.28,2.38-1.93.88-.9.35-2.05,2.29-2.5Z" fill="#63513f"/><path d="M169.26,6.99c3.74-.34,2.41,6.87,2.54,9.27.15,2.68,2.14,12.66-2.14,12.65-2.06,0-2.51-1.91-2.66-3.53-.28-3.04-.48-13.67.03-16.32.19-.95,1.26-1.98,2.22-2.07Z" fill="#63513f"/><path d="M273.35,4.09c5.72-1.75,8.49,8.76,1.71,9.41s-4.5-8.55-1.71-9.41Z" fill="#63513f"/><path d="M253.73,8.44c4.41-.09,5.6,6.72.94,8.64-6.73,2.76-8.02-8.49-.94-8.64Z" fill="#63513f"/><path d="M345.19,192.55c-1.45.01-5.4,2.33-6.37-.87-.68-2.23,1.6-10.21,1.82-13.34,1.58-22.91-5.54-42.11-20.85-58.76-1.35-1.46-9.07-8.31-9.27-8.96-.59-1.96,1.18-7.4,1.36-9.95.26-3.53.12-7.86-.5-11.29-.71-.53-7.41,14.32-9.11,15.09-3.35,1.53-4.46-1.27-6.55-2.54-4.75-2.9-11.57-5.01-16.95-6.56-15.43-4.45-31-7.14-47.14-5.62-.62-.13-1.74-.76-2.02-1.33-1.16-2.44,2.62-12.1,3.85-14.86.18-.41,3.43-5.1,1.44-4.32-7.96,4.75-14.15,10.12-18.46,18.48-12.46,7.56-24.34,14.64-34.55,25.16.05.23.26.45.48.48,1.37.17,3.53.18,2.16,2.4-.16.26-4.29,3.94-4.56,4.07-1.25.58-1.46.25-2.39-.24-.32-.16-.64-.32-.96-.48-6.97,10.04-10.16,30.17-12.47,42.69,17.65-1.71,29.2,10.11,24.21,27.81-1.93,6.85-6.07,11.86-13.66,11.99,25.74,24.32,77.05,31.77,111.27,30.22-13.29-6.26-16.01-25.8-7.4-36.89,10.49-13.48,29.29-12.36,39.78.43,6.47,7.9,7.08,16.24,4.55,25.91,1.68-.83,5.43-2.42,6.51-3.8,1.2-1.52.28-3.87,2.57-4.63,3-.99,2.54.91,3.73,1.74,5.09,3.54,11.96-4.3,13.8-8.67,1.89-4.49,2.54-13.41-4.32-13.36ZM189.33,164.23c-18.48.62-19.75-27.24-1.3-28.23,18.22-.97,19.61,27.6,1.3,28.23ZM227.11,187.13c-4.8,1.39-2.82-8.2-8.15-9.41-2.2-.49-6.69-.18-8.31,1.56-.57.62-.67,1.68-1.06,2.06-1.95,1.91-5.03.23-3.98-3.26,1.71-5.65,12.95-7.14,17.5-4.02,2.87,1.96,8.82,11.67,4,13.07ZM276.95,174.6c-6.29,13.98-28.71,8.5-26.43-8.69.71-5.38,6.03-10.4,11.35-11.18,11.51-1.69,19.84,9.27,15.08,19.87ZM285.62,137.67c-1.04-3.04-5.82-6.02-3.25-9.44,1.64-.51,2.1,2.15,2.72,3.03.61.86,3.04,3.5,3.19,4.02.58,1.92-.85,3.82-2.66,2.39ZM343.04,201.13c-.13.17.92,2.89.98,4.06.36,7.05-4.13,4.52-2.9-1.19-1.51.15-3.11,4.41-4.58,1.43-1.04-2.09,7.19-9.62,10.34-7.66,1.31,3.61-3.22,2.55-3.84,3.36Z" fill="#fdfdfd"/><path d="M216.36,229c.21.32.02,2.36.27,3.33,2.05,7.89,13.02,9.67,18.73,4.76.84-.73,1.34-2.03,1.88-2.43,2.07-1.51,13.34,1.95,16.58,1.48-3.05,5.27-3.01,12.32-1.57,18.12.6,2.42,2.7,5.73,2.98,7.57.77,5.02,1.74,12.7,1.94,17.72.05,1.26.2,3.13-.02,4.29-.62,3.35-11.79,10.52-14.1,14.19-1.4,2.23-1.01,4.91,1.87,5.28s17.9-.59,18.9.04c1.15,3.31,2.64,17.47,5.15,19.07s4.09.3,5.71-1.39c3.35-3.48,5.2-8.95,8.9-12.21l16.46-3.03,10.4,13.03c2.2,3.53-5.86,6.77-8.54,7.84-25.21,9.99-59.48,12.23-85.99,7.09-9.32-1.81-18.62-4.84-26.12-10.81-1.2-16.16.1-31.31,3.26-47.09,2.65-13.22,6.34-30.24,12.54-42.14.41-.8,3.07-5.47,3.37-5.74,1.02-.94,7.1.61,7.38,1.02Z" fill="#fdfdfd"/><path d="M322.89,221.27c-10.02,4.91-25.82,10.05-36.93,10.55-13.28-6.26-16.01-25.8-7.39-36.89,10.48-13.49,29.29-12.36,39.77.43,6.47,7.89,7.09,16.24,4.55,25.9Z" fill="#fec4b9"/><path d="M261.86,236.25c5.09-.92,10.54,4.53,13.8,8.03,9.55,10.22,26.37,36.1,21.56,50.35-1.75,5.17-5.46,6.44-10.32,4.11-9.87-4.74-26.18-35.03-29.59-45.7-1.62-5.06-2.47-15.53,4.54-16.79Z" fill="#fdfcfc"/><path d="M174.7,201.6c-12.82-12.11-13.68-22.86-10.55-39.81,17.65-1.71,29.21,10.11,24.22,27.81-1.93,6.86-6.07,11.86-13.66,11.99Z" fill="#fdc4b9"/><path d="M201.55,230.38c-2.63,7.06-5.8,13.84-7.91,21.1-3.07,10.56-6.18,23.82-7.43,34.71-.3,2.64-2.6-2.46-2.77-3.41-2.09-12.29,8.72-41.46,16.57-51.31.46-.57.54-1.31,1.54-1.09Z" fill="#f5f4f3"/><path d="M219.3,339.25c.96.89-2.86,4.12-3.83,4.56-7.24,3.25-16.75-2.95-18.23-10.31,7.03,2.84,14.47,5.11,22.06,5.75Z" fill="#f7f7f6"/><path d="M287.88,336.37c.29,2.18-3.32,5.41-5.14,5.66-1.32.18-5.32-1.43-5.89-2.55-.47-.94.78-.68,1.13-.77,3.26-.88,6.58-1.68,9.9-2.34Z" fill="#f5f4f3"/><path d="M221.22,230.38c.41-.39,11.02,2.06,11.02,2.64-2.69,3.38-10.9,2.41-11.02-2.64Z" fill="#f5f4f3"/><path d="M182.37,113.36c-1.01,2.36-5.19,3.52-4.8,6.23-.32-.17-.64-.32-.96-.48,2.13-3.07,2.72-3.6,5.28-6.23.05.23.26.45.48.48Z" fill="#fdc4b9"/><path d="M201.56,229.42c.27-2.44,2.92.21.48.48l-.48-.48Z" fill="#fdc4b9"/><path d="M203.72,227.03c.49.43-.72,1.22-.71.71l.71-.71Z" fill="#fdc4b9"/><path d="M202.04,229.9c-.36.04-.52-.12-.48-.48l.48.48Z" fill="#f5f4f3"/><path d="M261.87,154.73c11.51-1.68,19.84,9.27,15.07,19.87-6.29,13.98-28.71,8.5-26.43-8.68.71-5.38,6.04-10.41,11.36-11.19ZM262.33,159.99c-8.9,1.63-8.66,15.91.41,17.11,14.05,1.85,13.14-19.6-.41-17.11Z" fill="#645241"/><path d="M188.03,136c18.22-.98,19.6,27.6,1.3,28.22s-19.75-27.23-1.3-28.22ZM186.08,141.76c-.82.17-1.82.83-2.51,1.33-7.5,5.49-2.5,17.18,6.6,15.71,10.82-1.75,9.03-19.72-4.09-17.04Z" fill="#645241"/><path d="M209.59,181.34c-1.95,1.91-5.03.23-3.98-3.26,1.71-5.65,12.94-7.14,17.49-4.02,2.87,1.96,8.82,11.67,4,13.07s-2.82-8.2-8.15-9.41c-2.2-.5-6.69-.18-8.31,1.56-.57.61-.67,1.67-1.06,2.05Z" fill="#645241"/><path d="M346.88,197.77c1.31,3.62-3.22,2.55-3.84,3.37-.13.17.92,2.89.98,4.06.36,7.05-4.13,4.52-2.9-1.18-1.5.14-3.11,4.41-4.58,1.43-1.03-2.09,7.19-9.62,10.34-7.67Z" fill="#645241"/><path d="M285.62,137.67c-1.03-3.04-5.81-6.02-3.24-9.45,1.63-.51,2.09,2.15,2.72,3.03s3.04,3.51,3.19,4.02c.58,1.92-.85,3.81-2.66,2.39Z" fill="#6c5b4b"/><path d="M177.58,119.59c-.39-2.72,3.79-3.87,4.8-6.23,1.36.17,3.53.18,2.16,2.4-.16.26-4.29,3.94-4.57,4.07-1.25.58-1.46.25-2.39-.23Z" fill="#6c5b4b"/><path d="M262.33,159.99c13.55-2.49,14.46,18.96.41,17.11-9.07-1.19-9.31-15.47-.41-17.11Z" fill="#fafaf9"/><path d="M186.08,141.76c13.13-2.68,14.91,15.29,4.09,17.04-9.1,1.48-14.1-10.22-6.6-15.71.69-.5,1.69-1.16,2.51-1.33Z" fill="#fafaf9"/></g></svg>