<?xml version="1.0" encoding="UTF-8"?><svg id="Layer_2" xmlns="http://www.w3.org/2000/svg" viewBox="0 0 397.95 409.61"><g id="Layer_1-2"><path d="M336.38,349.64c-6.26.38-10.14,4.74-18.03,3.16-4.04-.81-16.83-7.65-21.25-9.92-6.51-3.34-12.5-7.78-19.34-10.42-.87-.04-3.15,3.98-3.99,4.95-16.48,18.87-43.47.67-38.72-21.45,3.96-18.45,31.74-18.13,31.44.84-.05,2.62-2.15,10.88-5.93,8.43-2.86-1.86.7-5.65.76-8.45.1-4.16-2.44-7.2-6.08-8.78-7.17-3.11-14.88,4.09-15.45,11.26-1.18,14.86,15.61,27.65,27.98,16.95,13.54-11.7,13.95-37.23-.48-48.41-3.66-2.83-5.44-.51-9.21.35-1.2.28-2.52-.1-3.63.21-1.71.49-2.72,5.15-5.94,3.87-4.59-1.81,2.14-7.34,3.21-9.72l-35.93,4.84c.07,3.17-1.52,5.89-2.92,8.58,2.93,1.09,8.01,1.56,7.65,5.47-.53,5.66-6.89,2.98-9.08-.19l1.45,32.88c-.45,3.4-4.85,2.98-5.31-.97-1.33-11.47.18-24.32-.97-35.95l-3.38-8.87c-4,.81-8.13.31-12.2.46l-25.16-1.93c.54,2.59,3.91,2.77,3.27,5.88-1.14,5.52-12.64-.9-15.58-2.44-8.39-4.42-17.22-10.19-23.17-17.61-6.33-7.89-13.86-27.16-27.32-17.7-8.41,5.92-8.55,18.72-4.91,27.4,7.63,18.19,26.23,25.82,43.48,32.29,2.16.81,9.47,2.52,10.35,4.04.45.76.85,4.61.93,5.79.17,2.67-.2,5.48.01,8.14.24,2.96,3.84,11.97-1.93,10.8-.13,1.54.19,3.3,0,4.8,1.97-.79,3.41-2.54,5.33-3.55,2.75-1.44,13.85-4.76,12.82.79-.54,2.91-2.78,1.36-4.4,1.49-5.36.43-10.08,4.07-11.85,9.16-4.59,13.26,4.29,23.8,9.54,35.1,1.36,2.92,2.69,8.24,4.28,10.59,2.74,4.07,10.66,2.43,14.18.05,4.49-3.04,7.68-10.86,8.35-16.11.34-2.7-1.07-10.68,1.52-11.42,4.6-1.31,3.45,3.65,3.88,6.51,11.75-.58,23.53,1,35.24-.01,6.86-.58,13.9-1.8,20.59-3.39,2.96-.7,6.77-2.53,9.63-2.84,5.34-.56,11.23,2.51,16.77,2.9,4.95.35,11.32.07,16.26-.56,5.07-.64,11.19-3.19,15.89-3.33,4.86-.14,9.06,3.43,13.91.04,3.74-2.62,11.9-13.4,14.05-17.61,1.29-2.53,3.95-6.67-.61-6.39ZM115.27,273.44c-5.21,0-4.06-4.18-4.85-4.39-.32-.09-3.42-.1-3.54.03-.09.1.02,1.83-.36,2.76-1.74,4.2-8.75,2.61-8.77-.12-.02-2.83,4.21.64,5.71-.31.54-.35.84-3.6,1.14-4.36,1.09-2.76,4.1-.02,5.56-.93,1-.62,1.26-5.78,2.46-6.41,2.76-1.42,1.69,3.38,1.93,3.62.52.52,3.36-1.14,2.89,1.2-.24,1.15-1.76,1.54-2.62,2.66-4.05,5.25,2.85,2.24,4.07,3.07,1.47,2.37-1.76,3.18-3.62,3.18Z" fill="#fdc64b"/><path d="M397.89,106.38c-.87-3.39-8.44-6.38-9.25-8.03-1.23-2.54,1.66-6.66-.93-9.14-1.3-1.25-8.57-2.38-10.56-2.41-5.31-.07-12.23,1.74-16.9,4.25-.85.47-1.83,1.81-2.35,1.91-.96.18-2.5-.66-4.52-.14-1.81.46-4.87,3.37-5.57,3.51-.58.11-4.22-1.37-5.42-1.61-10.04-1.95-20.95,2.46-24.77,12.29-3.17-.42-5.76-1.74-9.05-1.97-12.11-.86-24.09,5.52-30.28,15.82-.84.19-10.29-6.98-12.04-8.04-17.15-10.43-43.76-15.96-63.69-13.99-3.76.37-13.02.5-12.23,5.75.29.05.82.74,1.31.84,2.11.45,4.5-.89,6.73-1.19,45.39-6.02,94.71,21.99,110.78,64.98,3.64,9.74,6.6,21.42,5.39,31.77-4.9-2.1-9.06-2.04-12.94,1.92-.21-6.16-4.88-12.35-8.87-16.8-12.41-13.81-33.76-24.01-52.04-26.61-2.23-2.95-3.85-6.34-6.04-9.31-1.2-1.63-9.06-11.14-10.13-11.46-2.52-.75-4.07.46-4.01,3.03.08,3.86,3.13,11.29,3.81,15.89.22,1.52,1.12,7.91.09,8.6-21.38,1.79-41.86,8.17-62.86,11.72-.8-6.58-2.31-12.18-1.91-18.94.15-2.41,2.75-10.12-3.03-8.31-2.12.66-8.2,15.45-9.1,18.24-2.35,7.25-3.15,14.88-3.95,22.43-17.57,13.92-33.16,34.23-25.17,58.04-.82-.52-5.49-1.29-5.7-1.5-.16-.17-.07-1.3-.28-1.85-7.24-18.55-9.57-29.9-8.4-50.12,2.14-37.24,29.05-66.31,61.54-81.38,6.44-3,14.43-5.05,20.44-7.86.78-.36,1.22-1.52,1.46-1.65-.51-4.89-5.79-2.36-8.76-1.33-16.26,5.67-32.61,13.99-45.44,25.54-9.68,8.72-19.11,19.23-24.94,30.94-10.68-8.76-27.49-7.31-38.52.08-.99.67-3.85,3.51-4.5,3.69-1.26.34-6.47-1.65-8.54-1.84-7.73-.72-14.42.55-20.6,5.28-1.24.94-2.69,3.19-3.97,3.7-5.09,2.01-8.02,2-13.25,2.58-3.56.4-12.99,3.15-14.57,6.53-1.9,4.03,1.23,7.6.78,9.38-.11.4-3.5,4.53-4.16,5.94-1.28,2.74-1.43,3.62.27,6.26,2.63,4.09,6.51,6.54,10.18,2.05-.83,3.77,1.55,5.66,4.65,7.1,5.68,2.64,5.37-.13,8.32-3.5,4.25-4.84,3.14-1.95,7.78-2.29,1.18-.08,3.05-1.32,3.41-1.26.36.07,4.7,3.43,6.06,4.02,6.36,2.74,15.16,2.6,21.28-.65,8.46,11.93,22.63,16.04,36.75,13.84.39,9.5,4.59,17.94,7.2,26.86-13.74,2.57-18.51,18.84-15.48,31.07,5.39,21.77,26.12,31.86,45.09,39.31,1.61.63,10.29,3.31,10.69,3.7.99.97.3,8.53.45,10.59.09,1.35.42,2.79.65,4.14.29,1.81.71,6.22,2.72,6.63,5.77,1.17,2.17-7.84,1.93-10.8-.21-2.66.16-5.47-.01-8.14-.08-1.18-.48-5.03-.93-5.79-.88-1.52-8.19-3.23-10.35-4.04-17.25-6.47-35.85-14.1-43.48-32.29-3.64-8.68-3.5-21.48,4.91-27.4,13.46-9.46,20.99,9.81,27.32,17.7,5.95,7.42,14.78,13.19,23.17,17.61,2.94,1.54,14.44,7.96,15.58,2.44.64-3.11-2.73-3.29-3.27-5.88l25.16,1.93c4.07-.15,8.2.35,12.2-.46l3.38,8.87c1.15,11.63-.36,24.48.97,35.95.46,3.95,4.86,4.37,5.31.97l-1.45-32.88c2.19,3.17,8.55,5.85,9.08.19.36-3.91-4.72-4.38-7.65-5.47,1.4-2.69,2.99-5.41,2.92-8.58l35.93-4.84c-1.07,2.38-7.8,7.91-3.21,9.72,3.22,1.28,4.23-3.38,5.94-3.87,1.11-.31,2.43.07,3.63-.21,3.77-.86,5.55-3.18,9.21-.35,14.43,11.18,14.02,36.71.48,48.41-12.37,10.7-29.16-2.09-27.98-16.95.57-7.17,8.28-14.37,15.45-11.26,3.64,1.58,6.18,4.62,6.08,8.78-.06,2.8-3.62,6.59-.76,8.45,3.78,2.45,5.88-5.81,5.93-8.43.3-18.97-27.48-19.29-31.44-.84-4.75,22.12,22.24,40.32,38.72,21.45.84-.97,3.12-4.99,3.99-4.95,6.84,2.64,12.83,7.08,19.34,10.42,4.42,2.27,17.21,9.11,21.25,9.92,7.89,1.58,11.77-2.78,18.03-3.16,4.56-.28,1.9,3.86.61,6.39-2.15,4.21-10.31,14.99-14.05,17.61-4.85,3.39-9.05-.18-13.91-.04-4.7.14-10.82,2.69-15.89,3.33-4.94.63-11.31.91-16.26.56-5.54-.39-11.43-3.46-16.77-2.9-2.86.31-6.67,2.14-9.63,2.84-6.69,1.59-13.73,2.81-20.59,3.39-11.71,1.01-23.49-.57-35.24.01-.43-2.86.72-7.82-3.88-6.51-2.59.74-1.18,8.72-1.52,11.42-.67,5.25-3.86,13.07-8.35,16.11-3.52,2.38-11.44,4.02-14.18-.05-1.59-2.35-2.92-7.67-4.28-10.59-5.25-11.3-14.13-21.84-9.54-35.1,1.77-5.09,6.49-8.73,11.85-9.16,1.62-.13,3.86,1.42,4.4-1.49,1.03-5.55-10.07-2.23-12.82-.79-1.92,1.01-3.36,2.76-5.33,3.55-.25,2.02-2.31,4.34-3.09,6.73-4.99,15.18,3.16,24.14,8.93,36.58,3.92,8.44,3.77,17.08,15.08,18.01,11.74.97,18.59-8.62,21.52-18.64.39-1.32.63-4.92,1.51-5.21,11.67.05,23.31,1.33,34.94.41,4.96-.39,10.71-1.2,15.6-2.14,4.93-.95,14.12-4.6,18.35-3.97,3.62.54,7.78,2.4,11.63,2.75,6.36.57,15.09-.04,21.42-1.1,3.7-.63,8.75-2.63,12.17-2.74,5.24-.18,8.47,3.16,14.78.44,5.36-2.32,16.68-17.69,18.93-23.28,1.45-3.6,2.46-6.73-.24-10.11-3.8-4.75-15.28,1.8-20.29,2.05-3.61.18-18.13-7.37-22.25-9.44-6.67-3.36-12.95-7.42-19.77-10.47-.33-.45,1.75-4.85,2.05-6.16,3.12-13.44-.53-28.38-11.36-37.26,0-.46,6.97-2.58,7.99-3.03,11.65-5.09,21.03-15.14,24.29-27.51.52-1.99.52-4.91,1.17-6.51.6-1.51,3.83-5,4.99-6.99,2.74-4.69,3.7-9.41,5.79-13.88,1.75-3.76,4.16-5.03,4.68-10.19.4-3.97-.99-7.12-.96-10.07.01-1.23.78-2.22.92-3.4.7-6.01.41-11.59-.58-17.56-.83-5.01-2.82-9.88-3.49-14.79,12.3-4.31,21.5-14.82,21.88-28.25,8.7.08,18.34-4.91,22.91-12.34.67-1.08.95-3.18,1.78-3.98.75-.72,4.39-2.04,5.95-3.16.9-.66,1.18-1.65,1.62-1.98,2.28-1.69,7.93,1.92,9.7,3.68,1.91,1.9,3.58,6.58,7.06,3.86,1.49-1.16,3.56-7.09,3.55-8.97-.01-2.21-1.95-4.03-3.18-5.67,2.83,0,5.12,3.38,8.14,1.92,1.47-.71,3.17-7.91,2.77-9.47ZM22.95,178.44c-.08,2.71-1.39,1.57-3,2.03-1.74.49-3.53.94-5.26,1.46-1.52.46-3.45,1.74-4.67,2.05-.86.23-.88.21-1.46-.51-.48-2.28,12.07-6.26,14.39-5.03ZM7.75,199.97c-3.01-.35-1.99-2.1-1.01-3.93,2.71-5.06,9.81-9.16,15.25-10.41-.14.85.2,5.1,0,5.28-.17.17-2.25-.29-2.86.25l-11.38,8.81ZM23.68,200.49c-.13.31-3.95,4.93-4.34,5.28-.87.79-2.34.02-2.58-.79-.33-1.16,3.57-7.95,4.53-8.78.45-.4,1.31-.82,1.66-.5.17.17.83,4.56.73,4.79ZM32.06,200.02c-3.76.79-4.91-5.16-5.22-7.97-.48-4.29-.8-12.51,2.59-15.53-.57,5.63-1.37,10.58.1,16.2.29,1.13,2.91,6.94,2.53,7.3ZM52.44,204.81c-23.24.23-25.98-35.09-2.74-37.75,3.91-.45,8.66-.38,12.1,1.56-4.61,7.54-5.77,16.62-4.19,25.27.31,1.72,2.81,7.82,2.71,8.24-.32,1.38-6.58,2.67-7.88,2.68ZM98.67,215.79c-14.87,2.42-28.63-3.03-34.36-17.56-9.33-23.65,8.65-41.22,32.2-38.44,2.22.26,8.62,3,9.21,5.2.2.73-3.84,12.22-4.36,14.4-2.87,12.13-2.81,23.99-2.69,36.4ZM217.66,301.69c-1.77.36-3.01-1.05-3.83-2.39.82-.42,4.72,1.63,3.83,2.39ZM304.48,238.87c.08-3.35-1.15-6.28,3.35-6.24.26.25-2.41,5.91-3.35,6.24ZM307.03,226.79c-4.55,2.63-2.62-.16-3.08-3.48-.42-2.99-4.42-3.57-4.77.91-.24,2.96.48,7.44.5,10.81.13,27.61-8.51,37.42-34.05,45.08-.3.09-1.09.84-2.01,1.11-1.82.53-3.81.86-5.66,1.29,1.22-2.74,1.78-5.79-2.07-6.07-10.57,1.69-21.19,3.74-31.81,5.05-2.53.31-10.13.08-11.68,1.26-1.72,1.3-1.69,5.42-2.41,7.43-2.23-2.16-1.94-6.6-5.64-7.1-1.45-.2-2.4.41-3.69.41-11.02.05-21.46-.92-32.39-1.46-5.29-.26-10.26-2.12-8.16,5.75-.77.81-17.37-10.16-18.95-11.49-6-5.04-10.18-11.6-14.14-18.24-2.61-4.37-4.37-10.36-5.2-15.66-3.37-21.61,12.31-35.85,26.68-48.96.81-4.5.98-9.05,1.77-13.57.82-4.61,2.12-8.99,3.62-13.41.67-.12.69.85.81,1.33.78,3.24,1.54,13.82,3.72,15.46.58.43,1.3.68,2,.8,14.64-2.76,29.04-7.23,43.72-9.78,6.73-1.17,16.64-1.29,22.76-3.14.93-.28,1.74-.74,2.22-1.61,2.5-4.44-.15-13.5-.67-18.4,3.54,3.15,5.22,8.5,8.18,11.96,2.14,2.5,4.61,1.47,7.13,1.99,18.22,3.7,42.81,16.88,51.53,33.83.73,1.41.89,3.21,1.77,4.47.95,1.35,2.55,1.44,2.9,1.92.67.92-2.23,7.52,2.36,7.26,2.99-.18,1.59-3.98,3.01-6.16,2.52-3.87,7.85-.73,8.98,2.74,2.15,6.55-1.48,14.31-7.28,17.67ZM326.04,158.04c-1.76,1.99-10.07,8.49-12.45,7.24-.78-.41-4.7-9.83-5.68-11.63-5.15-9.48-13.3-18.51-21.17-25.82-1.67-1.54-4.91-2.54-3.95-4.89,2.43-5.95,12.97-11.72,19.18-12.47,9.26-1.12,20.8,3.24,25.9,11.24,6.48,10.14,6.33,27.11-1.83,36.33ZM356.77,125.46c-2.37,7.04-12.06,11.92-19.2,11.72-.35-9.62-3.37-18.15-10.8-24.44-2.87-2.42-6.38-2.16-3.32-6.69,10.78-15.93,40.41-1.63,33.32,19.41ZM365.27,118.85c-.48.49-1.6.62-2.28.6,0-8.7-4.18-14.98-10.55-20.39,4.63-5.27,10.39,4.87,11.87,8.75.88,2.3,2.73,9.23.96,11.04ZM392.24,109.85c-4.13-1.27-11.33-2.22-15.57-1.42-1.42.26-1.82,1.28-1.74,2.62.14,2.37,2.38,2.14,4.04,3.2,2.18,1.4,7.59,4.82,5.35,7.6-3.89-2.97-8.18-5.54-13.12-6.3-.43-3.72-1.3-7.41-2.86-10.81-.99-2.18-5.7-8.18-5.85-9.04-.17-.95,2.32-1.56,3-1.81,4.38-1.58,9.4-2.2,14.03-1.77,2.52.23,4.73.25,4.09,3.35h-8.87c-2.47,0-4.39,3.51-2.32,4.83,1.13.72,8.07.68,10.49,1.38,1.84.52,11.57,5.65,9.33,8.17Z" fill="#624f3b"/><path d="M190.33,104.58c.29.05.82.74,1.31.84,2.11.45,4.5-.9,6.74-1.19,45.39-6.02,94.71,21.98,110.77,64.98,3.64,9.74,6.6,21.43,5.39,31.77-4.9-2.1-9.06-2.04-12.94,1.92-.21-6.16-4.88-12.35-8.87-16.79-12.41-13.82-33.76-24.01-52.04-26.61-2.23-2.95-3.85-6.34-6.04-9.31-1.2-1.63-9.06-11.14-10.13-11.46-2.52-.74-4.07.47-4.01,3.03.08,3.86,3.13,11.29,3.81,15.89.22,1.52,1.13,7.91.1,8.6-21.39,1.79-41.86,8.17-62.86,11.72-.81-6.58-2.31-12.18-1.91-18.94.14-2.41,2.74-10.12-3.03-8.31-2.12.66-8.2,15.46-9.1,18.24-2.34,7.25-3.14,14.88-3.94,22.43-17.57,13.92-33.16,34.23-25.18,58.03-.82-.51-5.49-1.28-5.7-1.49-.16-.17-.07-1.3-.29-1.86-7.24-18.54-9.56-29.9-8.4-50.12,2.14-37.24,29.05-66.31,61.54-81.38,6.45-2.99,14.43-5.04,20.45-7.85.77-.36,1.22-1.52,1.46-1.66.16-.09,2.62-.52,2.88-.48Z" fill="#fddc6f"/><path d="M121.62,33.23c-3.03.52-6.62,4.14-8.12,6.75-12.12,21.15,16.85,34.58,26.34,15.78,6.94-13.76-3.81-24.96-18.22-22.53ZM134.91,53.71c-3.96,7.02-13.4,7.86-17.96,1.23-3.18-4.62-.05-15.28,5.63-16.44,10.21-2.07,17.75,5.57,12.33,15.21Z" fill="#62503e"/><path d="M192.31,15.08c-.22-1.4.12-2.88-.09-4.24-.24-1.58-1.34-1.94-1.76-3.03-.9-2.32-1.3-8.14-4.67-7.8-4.84.5.11,8.52-.81,10.01-2.01.46-13.02,4.66-14.01,4.36-1.73-.52-1.29-9.3-4.79-8.98-2.35.22-2.32,2.55-2.1,4.33.4,3.33,2.42,9.88,3.47,13.32.96,3.15,1.91,8.77,6.11,8.52,2.52-.15,13.94-3.92,16.37-5.23,5.41-2.9,3.01-6.58,2.28-11.26ZM187.85,21.53c-.45.72-13.59,4.94-14.27,4.35-.19-2.27-1.82-4.28-1.42-6.61l14.81-4.38c-.05,1.47,1.58,5.54.88,6.64Z" fill="#62503e"/><path d="M195.13,51.35c.44.46,8.69-3.3,7.11,2.05-.75,2.53-10.28,4.74-12.94,5.3-2.5.53-12.12,3.12-9.28-2.57.56-1.12,2.99-1.28,3.12-1.44.09-.11-.86-1.81-1.03-2.56-.79-3.48-3.22-12.08-3.25-15-.03-3.1,3.46-3.61,4.66-1.27,1.51,2.95,3.3,12.95,3.96,16.68.13.72-.47,1.34.7,1.2.9-.11,2.11-.69,2.17-1.68l-1.36-16.69c.44-1.48,3.01-1.82,3.99-.83,1.6,1.61,1.56,13.86,2.14,16.8Z" fill="#62503f"/><path d="M274.83,19.36c-2.5-4.07-6.3-4.48-10.77-3.87-11.2,1.5-13.02,16.17-2.38,19.41,9.95,3.03,19.02-6.02,13.15-15.54ZM260.5,28.65c-2.28-2.57-.5-7.44,3.02-7.96,4.13-.6,8.12-.16,7.89,4.99-.22,5.11-8.23,5.99-10.91,2.97Z" fill="#624f3e"/><path d="M242.02,34.19c1.05,1.01.74,3.45-.58,4.23-2.87,1.72-4.53-.96-6.26-.95-.92,0-2.51,1.17-3.88,1.36-6.34.88-6.3-3.96-10.57-4.25-.83-.06-3.42.54-3.91,1.05-.45.47-.44,1.77-1.05,2.55-2.4,3.04-6.41-.99-2.92-5.31,2.67-3.31,7.4-3.86,11.32-2.65,1.98.61,4.24,3.25,5.27,3.4,1.82.26,3.59-1.8,6.7-1.47.59.06,5.65,1.83,5.88,2.04Z" fill="#62503f"/><path d="M152.45,32.64c.6.44,7.48-3.85,8.17-.24.85,4.47-5.7,3.75-6.22,5.34-.56,1.7,2.59,5.6.68,7.85-.77.91-3.71.77-4.3-.5-.37-4.66-6.13-16.85-4.96-20.74.41-1.38,2.62-1.75,3.75-1.06,1.22.74,2.13,7.67,2.87,9.36Z" fill="#62503f"/><path d="M262.28,50.39c.42.39,4.03-1.73,4.6,1.9.84,5.29-11.09,2.54-13.63,1.61-3.01-1.11-2.89-4.55.28-4.86,2.67-.26,2.77,1.59,4.44-2.23.9-2.05,1.33-8.72,5.06-6.04,2.98,2.15-1.51,8.91-.75,9.62Z" fill="#62503f"/><path d="M114.55,263.33c.52.52,3.36-1.13,2.89,1.2-.23,1.15-1.76,1.54-2.62,2.66-4.05,5.25,2.85,2.24,4.06,3.07,1.48,2.37-1.76,3.17-3.61,3.17-5.21,0-4.07-4.17-4.85-4.38-.33-.09-3.42-.1-3.54.03-.1.1.02,1.83-.36,2.76-1.74,4.2-8.75,2.61-8.77-.12s4.21.64,5.71-.31c.55-.35.84-3.6,1.15-4.36,1.09-2.76,4.1-.01,5.56-.92,1-.62,1.26-5.78,2.46-6.41,2.76-1.43,1.69,3.37,1.93,3.61Z" fill="#624f3b"/><path d="M314.31,209.12c-1.13-3.47-6.46-6.61-8.98-2.74-1.42,2.18-.02,5.98-3.01,6.16-4.59.26-1.69-6.34-2.36-7.26-.35-.48-1.95-.57-2.9-1.92-.88-1.26-1.04-3.06-1.77-4.47-8.72-16.95-33.31-30.13-51.53-33.83-2.52-.52-4.99.51-7.13-1.99-2.96-3.46-4.64-8.81-8.18-11.96.52,4.9,3.17,13.96.67,18.4-.48.87-1.29,1.33-2.22,1.61-6.12,1.85-16.03,1.97-22.76,3.14-14.68,2.55-29.08,7.02-43.72,9.78-.7-.12-1.42-.37-2-.8-2.18-1.64-2.94-12.22-3.72-15.46-.12-.48-.14-1.45-.81-1.33-1.5,4.42-2.8,8.8-3.62,13.41-.79,4.52-.96,9.07-1.77,13.57-14.37,13.11-30.05,27.35-26.68,48.96.83,5.3,2.59,11.29,5.2,15.66,17.26-14.26,44.77,2.05,41.25,23.98,10.93.54,21.37,1.51,32.39,1.46,1.29,0,2.24-.61,3.69-.41,3.7.5,3.41,4.94,5.64,7.1.72-2.01.69-6.13,2.41-7.43,1.55-1.18,9.15-.95,11.68-1.26,10.62-1.31,21.24-3.36,31.81-5.05,3.85.28,3.29,3.33,2.07,6.07,1.85-.43,3.84-.76,5.66-1.29.92-.27,1.71-1.02,2.01-1.11-5.69-7.17-3.7-20.78-.09-28.62,5.43-11.83,21.44-20.02,34.14-16.46-.02-3.37-.74-7.85-.5-10.81.35-4.48,4.35-3.9,4.77-.91.46,3.32-1.47,6.11,3.08,3.48,5.8-3.36,9.43-11.12,7.28-17.67ZM175.48,253.04c-23.34,6-28.43-28.86-6.85-31.79,23.01-3.13,26.4,26.76,6.85,31.79ZM192.46,215.87c-1.23-.73-7.75-8.23-4.75-9.13,1.53-.46,4.47,4.74,5.5,5.99.45.54,1.42.78,1.68,1.19,1.06,1.7-.44,3.12-2.43,1.95ZM220.44,270.18c-.79,3.64-4.73,2.55-6.53.02-2.44-3.43-10.1-22.76-10.89-26.99-.23-1.21-.53-3.26.38-4.22,1.58-1.67,13.46-2.97,15.84-2.42,3.59.82,2.24,6.36,2.24,8.75.02,6.97.4,18.32-1.04,24.86ZM231.83,204.35c-.12.43-3.58,7.33-3.85,7.66-1.15,1.4-3.16.35-2.53-2.04.15-.59,4.26-8.06,4.68-8.28.42-.21,1.76-.39,1.92-.23.22.21-.06,2.3-.22,2.89ZM253.18,245.36c-23.35,6-28.43-28.85-6.85-31.79,23-3.13,26.39,26.77,6.85,31.79Z" fill="#fdfdfd"/><path d="M98.68,215.8c-14.88,2.42-28.63-3.03-34.36-17.57-9.33-23.65,8.65-41.21,32.2-38.44,2.21.26,8.62,3,9.21,5.21.19.73-3.84,12.22-4.36,14.4-2.87,12.13-2.81,23.99-2.69,36.4Z" fill="#fddc6f"/><path d="M301.97,110.47c9.26-1.12,20.79,3.24,25.9,11.24,6.48,10.15,6.33,27.11-1.83,36.33-1.76,1.99-10.07,8.49-12.45,7.24-.78-.41-4.7-9.83-5.67-11.62-5.15-9.48-13.3-18.52-21.18-25.82-1.66-1.54-4.91-2.55-3.95-4.89,2.44-5.96,12.97-11.73,19.19-12.48Z" fill="#fddc6f"/><path d="M299.68,235.03c.13,27.61-8.51,37.42-34.05,45.08-5.68-7.17-3.69-20.78-.09-28.62,5.44-11.82,21.44-20.01,34.14-16.46Z" fill="#fdc4b9"/><path d="M168.27,282.03c-5.29-.26-10.25-2.12-8.16,5.75-.77.81-17.37-10.17-18.95-11.5-5.99-5.04-10.18-11.6-14.14-18.24,17.25-14.26,44.76,2.05,41.25,23.98Z" fill="#fdc4b9"/><path d="M337.58,137.19c-.35-9.62-3.38-18.16-10.81-24.44-2.87-2.42-6.38-2.16-3.31-6.69,10.78-15.93,40.41-1.63,33.32,19.41-2.37,7.04-12.06,11.92-19.2,11.73Z" fill="#fcdb6f"/><path d="M49.7,167.06c3.91-.45,8.66-.38,12.1,1.56-4.61,7.54-5.77,16.62-4.19,25.28.31,1.72,2.81,7.81,2.71,8.23-.32,1.38-6.58,2.67-7.88,2.68-23.24.23-25.99-35.09-2.74-37.75Z" fill="#fcdb6f"/><path d="M383.61,95.47h-8.87c-2.46,0-4.39,3.51-2.32,4.83,1.13.72,8.07.68,10.5,1.38,1.83.52,11.56,5.66,9.32,8.18-4.13-1.27-11.33-2.22-15.57-1.42-1.42.27-1.82,1.28-1.74,2.62.14,2.37,2.38,2.14,4.04,3.2,2.18,1.39,7.59,4.82,5.35,7.6-3.89-2.97-8.19-5.54-13.12-6.3-.44-3.72-1.3-7.41-2.86-10.81-.99-2.17-5.7-8.17-5.85-9.03-.17-.96,2.32-1.56,3-1.81,4.37-1.58,9.39-2.21,14.03-1.78,2.51.23,4.73.26,4.08,3.35Z" fill="#f9d86e"/><path d="M365.27,118.85c-.48.49-1.6.62-2.28.6.01-8.7-4.18-14.98-10.54-20.39,4.63-5.27,10.38,4.86,11.87,8.75.88,2.3,2.73,9.23.96,11.04Z" fill="#f5d56d"/><path d="M21.99,185.64c-.14.85.2,5.1,0,5.28-.18.17-2.26-.29-2.87.25l-11.38,8.8c-3.01-.35-1.99-2.1-1.01-3.93,2.71-5.06,9.81-9.16,15.25-10.41Z" fill="#f5d56d"/><path d="M32.06,200.02c-3.76.8-4.91-5.16-5.22-7.96-.48-4.29-.79-12.52,2.59-15.53-.56,5.63-1.36,10.58.1,16.2.3,1.13,2.91,6.94,2.53,7.3Z" fill="#efcf6a"/><path d="M22.95,195.7c.18.17.83,4.56.74,4.79-.13.31-3.95,4.93-4.35,5.29-.87.78-2.34.01-2.57-.79-.34-1.16,3.57-7.95,4.52-8.78.45-.39,1.32-.82,1.66-.5Z" fill="#f5d56d"/><path d="M22.95,178.44c-.08,2.71-1.39,1.57-2.99,2.03-1.74.49-3.53.94-5.26,1.46-1.52.46-3.45,1.74-4.67,2.05-.86.22-.88.21-1.46-.52-.48-2.28,12.07-6.25,14.38-5.03Z" fill="#efcf6a"/><path d="M307.83,232.64c.26.25-2.41,5.9-3.35,6.23.08-3.34-1.15-6.28,3.35-6.23Z" fill="#efcf6a"/><path d="M217.67,301.7c-1.78.36-3.01-1.05-3.83-2.39.82-.42,4.72,1.63,3.83,2.39Z" fill="#fdc64b"/><path d="M246.33,213.57c-21.58,2.94-16.5,37.79,6.85,31.79,19.54-5.02,16.15-34.92-6.85-31.79ZM257.66,236.9c-8.43,8.71-23.73,1.28-19.39-10.76,1.27-3.52,5.3-7.1,9-7.78,10.59-1.96,18.16,10.51,10.39,18.54Z" fill="#624f3e"/><path d="M168.63,221.25c-21.58,2.93-16.49,37.79,6.85,31.79,19.55-5.03,16.16-34.92-6.85-31.79ZM179.97,244.57c-8.43,8.71-23.74,1.28-19.39-10.76,1.27-3.52,5.3-7.09,9-7.78,10.58-1.96,18.15,10.51,10.39,18.54Z" fill="#624f3e"/><path d="M219.24,236.57c-2.38-.55-14.26.75-15.84,2.42-.91.96-.61,3.01-.38,4.22.79,4.23,8.45,23.56,10.89,26.99,1.8,2.53,5.74,3.62,6.53-.02,1.44-6.54,1.06-17.89,1.04-24.86,0-2.39,1.35-7.93-2.24-8.75ZM216.23,260.7l-.95.71-6.76-18.88c.17-.87,6.95-1.24,8.19-1.27l-.48,19.44Z" fill="#624f3e"/><path d="M232.06,201.46c.22.21-.06,2.31-.22,2.89-.12.43-3.58,7.33-3.85,7.66-1.15,1.41-3.16.35-2.53-2.04.15-.59,4.26-8.06,4.68-8.28s1.76-.39,1.92-.23Z" fill="#62503f"/><path d="M187.71,206.74c1.53-.46,4.48,4.75,5.5,5.99.45.54,1.42.78,1.68,1.19,1.06,1.7-.45,3.12-2.43,1.95-1.23-.73-7.75-8.23-4.76-9.13Z" fill="#62503f"/><path d="M247.28,218.36c10.58-1.96,18.16,10.51,10.39,18.54-8.43,8.71-23.73,1.28-19.39-10.76,1.27-3.52,5.3-7.1,9-7.78Z" fill="#fbfbfb"/><path d="M169.58,226.04c10.58-1.96,18.16,10.51,10.39,18.54-8.43,8.71-23.73,1.28-19.39-10.76,1.27-3.52,5.3-7.1,9-7.78Z" fill="#fbfbfb"/><path d="M216.71,241.27l-.48,19.43-.95.71-6.76-18.88c.17-.87,6.96-1.24,8.19-1.27Z" fill="#f8f8f7"/></g></svg>