<?xml version="1.0" encoding="UTF-8"?><svg id="Layer_2" xmlns="http://www.w3.org/2000/svg" viewBox="0 0 307.79 401.33"><g id="Layer_1-2"><path d="M288.17,276.28c-.79-.13-.44.65-.47,1.19-.36,6.57-.44,12.59-2.05,19.06-1.06,4.22-4.38,14.47-9.25,15.21-10.85,1.67-5.62-6.09-5.06-12.26.05-.54.45-1.72-.41-1.61-.68,2.99-4.94,14.3-7.02,15.77-1.81,1.28-13.12,2.17-14.84,1.05-1-.65-.82-1.46-1.17-2.09-.89-1.59-1.12,1.53-1.89,2.32-.81.84-2.69,1.01-2.85,1.23-.31.44.95,9.03.93,10.76-.12,19.79-10.88,47.33-27.42,58.92-4.68,3.28-8.11,3.63-10.86,9.28-1,2.06-.75,5.37-3.46,6.16-1.38.4-8.24-1.01-10.08-1.49-2.8-.73-11.32-4.93-12.69-4.97-1.76-.05-8.13,2.21-10.7,2.69-2.41.44-5.29.24-7.81.82-6.19,1.44-8.67,4.42-15.94,1.61-5.4-2.09-6.91-8.75-9.25-13.27-19.04,5.7-41.62,1.51-55.6-13-.71,1.43-.8,2.19-2.36,2.91-4.29,1.98-11.25,1.78-15.85,3.84-9.21.06-14.55-8.31-18.87-15.23-3.49-5.6-10.22-15.91-5.57-22.18,2.79-3.77,7.03-2.09,10.61-.6,1.96.81,3.32,2.06,4.91,2.77.72.32,1.39.25,1-.52-.28-.55-8.42-6.76-9.63-7.64-1.97-1.43-9.59-5.4-10.26-7-.95-9.48-.43-18.99-1.27-28.47-.26-.76-2.54-1.07-3.63-1.65-4.48-2.4-7.5-4.95-9.49-9.69-.31-.74-.61-3.08-.82-3.26-1.3-1.13-5.4.39-6.11-4.68-.29-2.06-.5-6.37-.54-8.57-.05-2.42.26-4.6.49-6.97-5.17,2.23-8.86,8.7-12.07-.16-2.95-8.13,2.8-10.93,7-16.67,23.91-32.64,16.08-73.87,36.34-108.5,7.72-13.2,21.2-24.1,32.52-34.15l-8.16-6.22c-3.75-3.93-7.36-8.57-9.34-13.68-.96-2.5-1.74-8.47-2.62-9.85-.68-1.08-4.92-3.57-6.27-4.76-3.68-3.22-12.71-11.48-13.69-16.04-.89-4.1.7-5.69,2.65-8.91C56.13,19.98,93.75,4.21,124.8,16.77c10.38-15.28,31.38-20.38,48.39-14.22,29.32,10.61,34.23,38.1,32.01,66.3-.55,6.94-2.34,13.98-2.66,20.87,9.95,5.62,19.51,11.97,28.51,18.99,41.1,32.05,54.88,72.17,62.33,122.32,2.8,18.86,3.43,26.64,11.16,44.48,1.23,2.84,4.54,6.6,2.71,10.03-.98,1.84-5.42,3.54-7.48,2.91-3.56-1.09-10.32-8.56-11.6-12.16ZM196.57,87.32c.62-2.51,1.32-5.02,1.78-7.58,3.13-17.19,3.27-46.9-8.99-60.75-5.57-6.3-18.7-12.98-27.09-13.68-11.45-.94-27.5,3.28-32.82,14.34,19.28,10.24,28.36,31.68,26.82,53.03-.11,1.47-1.86,9.88-1.43,10.32,14.01-.18,28.25.24,41.72,4.32ZM133.75,110.82c21.7-22.87,25.24-63.73-2.24-83.85-24.4-17.87-59.12-8.08-78.82,12.14-1.48,1.52-7.55,8.58-8.13,10.09-.35.9,1.18.95,1.8,1.05,30.61,5.11,61.7,24.21,80.4,49.1,2.64,3.52,5.29,7.41,7,11.47ZM61.8,58.54c-6.65-1.49-13.18-3.75-20.14-3.36-.71.68,2.74,4.81,3.34,5.53,1.39,1.64,10.29,10.03,11.76,10.31,1.23.23.6-1.58.84-2.53.9-3.64,2.67-6.6,4.2-9.94ZM66.94,61.49c-1.83.55-4.02,6.8-4.34,8.63-2.14,12.37,4.46,24.62,14.89,31.01,12.98,7.95,29.82,6.18,35.59-9.16-11.19-11.04-25.86-22.5-40.39-28.72-1.47-.63-4.36-2.18-5.74-1.76ZM302.08,282.99c-2.14-5.97-5.34-11.61-7.55-17.62-5.87-15.97-5.92-32.89-8.9-49.61-9.45-52.84-34.1-92.59-81.42-119.05-15.29-8.55-33.64-9.23-50.81-8.68-4.11,8.9-8.49,19.62-15.56,26.64-1.41,1.4-4.35,3.54-6.29,3.79-4.78.6-9.52-.99-13.8-2.91-3.15-1.4-9.93-6.3-12.58-6.64-1.82-.23-6.42,1.72-9.05,1.93-2,.16-5.21.16-7.2-.02-3.96-.36-5.37-2.64-9.12,0-10.08,7.13-27.28,25.69-32.94,36.61-17.72,34.21-10.96,72.58-34.25,104.83-1.62,2.24-7.44,8.01-7.43,10.36,0,.56.21,1.56.77,1.67,2.5.49,10.58-11.86,13.48-13.37,1.93-1,4.39-.95,4.54,1.61.13,2.27-2.83,7.19-3.76,9.72-2.76,7.51-2.31,9.38-2.04,17.15.02.58-.36,1.78.48,1.67.79-6.03,3.07-13.36,7.42-17.76,1.18-1.19,6.62-4.66,6.89-5.58,1.54-4.91-2.31-18.45,6.32-16.46-.66-6.92-.43-13.93-.96-20.86-.37-4.78-1.87-10.09-1.93-14.9-.32-24.72,12.48-41.81,33.27-53.53,2.81-1.58,13.27-5.88,14.7-7.36,1.24-1.28,4.23-7.69,5.85-9.97,2.62-3.69,6.68-8.52,9.98-11.61,1.63-1.52,11.14-10.13,12-4.76.38,2.37-3.69,7.47-4.88,9.96-.78,1.64-5.24,13.66-4.71,14.23,3.57-.74,7.23-1.43,10.85-1.86,13.47-1.6,25.3-1.44,38.63,1.05,1.58.29,6.48,1.86,7.34,1.79s.95-.5,1.31-1.11c3.46-5.92,5.59-14.48,8.42-20.84,4.97-5.43,6.6,5.89,7.15,9.37,1.08,6.82,1.11,13.76,1.18,20.64,1.8.72,3.76,1.1,5.54,1.9,6.18,2.79,18.16,12.44,22.68,17.6,10.45,11.95,13.81,30.03,16.32,45.31,9.19-2.25,14.09,4.88,14.86,13.2,1.43,15.39-8.46,20.74-21.36,24.68-.42.13-.98-.26-.69.72.33,1.13,3.97,4.64,4.99,6.05,3.91,5.41,6.05,11.37,9.14,17.23,5.5,10.43,11.87,19.73,12.72,32.12.74.12.56-.9.7-1.44.49-1.88.87-4.12,1.15-6.05.44-3.1-.35-13.32,5.34-10.5,2.02,1,3.81,14.74,3.83,17.51.29.3,7.31-.35,7.92-.95.98-.97,3.88-8.08,4.56-9.83,1.19-3.09,5.57-19.16,6.68-20.18,1.7-1.55,4.39-1.08,4.79,1.5,1,6.54-.11,17.37-.79,24.09-.05.53-.57,1.63.33,1.53,1.64-3.1,3.04-6.3,3.97-9.7,1.64-6.01,2.55-14.05,2.29-20.29-.12-2.88-2.26-12.66-1.02-14.4.63-.87,1.77-1.22,2.77-.82,1.99.8,6.86,10.96,8.58,13.52,2.2,3.28,5.37,7.58,9.31,8.67ZM129.42,113.69c.79-.71-7.63-12.46-8.64-13.65-.47-.56-2.67-3.26-2.85-3.38-1.68-1.11-1.77,1.3-2.69,2.61-1.48,2.11-3.8,3.81-5,5.55-.28.4-.67.47-.47,1.2,6.44,2.76,12.35,7.4,19.66,7.68ZM44.06,228.32c.21,4.18-.49,9.22-.02,13.21s4.42-1.03,6.42-2.26c1.75-1.07,8.04-4.33,9.79-4.61,2.74-.43,8.02,1.19,10.67,2.29,11.01,4.58,32.43,22.06,37.35,32.91.53,1.17,1.41,5.11,1.59,5.36.85,1.18,8.06,1,9.73,1.06,1.4.05,3.18,1.06,4.56.23.4-.24,3.69-5.15,4.78-6.25,6.78-6.81,20.9-16.18,29.75-19.89,4.95-2.08,11.92-4.24,17.16-5.62,4.04-1.06,12.28-3.26,16.16-2.52,2.32.44,6.06,7.21,6.49,9.58.26.24,4.52-2.03,6.86-.51.43.28.53,1.08.8,1.25.79.5,5.71-2.55,7.21-3.14,6.66-2.61,15.33-4.28,18.1-12.36,1.25-3.66.3-14.69-4.07-15.82-5.78-1.49-4.8,3.54-6.69,4.12-4.07,1.24-3.16-5.6-3.63-8.18-2.42-13.2-5.9-30.81-14.27-41.37-3.71-4.68-15.55-15.04-20.76-17.6-3.77-1.85-9.35-1.82-9.92-6.87-.69-6.15.77-13.17-.96-19.42l-6.93,15.37c-2.01,4.12-8.48.38-12.16-.36-14.33-2.89-27.57-2.53-41.98-.54-2.4.33-11.57,3.03-12.83,1.04-2.32-3.67,2.83-12.84,3.16-16.94-2.14,2.02-4.16,4.18-5.92,6.55s-5.67,10.48-6.76,11.47c-2.01,1.82-11.51,5.49-14.75,7.31-13.54,7.64-25.93,19.31-29.87,34.88-3.2,12.67.3,25.1.93,37.62ZM51.73,244.15c-.24.19-1.22.66-.96.95.29.07.82-.09.96,0,5.49,3.62,14.32,6.35,20.63,9.82,12.43,6.84,21.64,14.9,31.64,24.71.64.63.95,1.86,2.19,1.89,6.57.15,13.69,2.09,20.13,2.42,4.15.21,8-3.52,11.73-5.52,10.06-5.4,21.53-10.84,31.97-15.51,7.72-3.45,15.57-6.72,23.67-9.19.61-.7-2.57-5.3-3.22-6.24-2.68-.73-13.24,2.19-16.45,3.13-14.02,4.11-35.99,14.82-44.81,26.65-.87,1.17-1.44,3.73-3.01,4.19-1.46.43-7.62.23-9.51.12-2.29-.13-10.14-.95-11.25-2.9-.8-1.42-1.32-5.54-2.48-7.83-3.94-7.76-19.66-20.89-27.29-25.46-8.71-5.21-14.94-8.48-23.94-1.24ZM38.3,246.54v9.35c0,.12-.69.64-.48,1.2,4.96-1.42,7.66,4.6,7.15,8.83-.23,1.93-2.44,4.7-2.3,5.69.12.83,3.43,5.1,4.14,6.94,2.49,6.42,2.01,14.56-3.49,19.3-1.71,1.47-3.72,1.9-5.44,3.19l1.13,26.08c2.36,2.08,5.35,3.24,7.87,5.08,2.92,2.12,5.5,4.83,8.53,6.82,4.8,3.16,10.32,4.95,15.34,7.68,6.74,3.67,13.45,9.15,20.45,12.17,4.38,1.89,5.36,1.33,9.68,1.83,6.08.7,14.14,2.53,20.1,1.86,2.8-.32,6.76-2.44,9.18-2.4,1.48.02,2.16.97,2.86.99s2.1-.97,3.84-.98c2.21-.02,4.21.9,6.29,1.46,12.41-4.3,24.88-9.43,36.96-14.77,2.83-1.25,17.54-7.61,18.59-9.23,2.1-3.21-.05-18.15.78-22.7-7.01-1.6-8.36-6.41-7.7-13,.15-1.54,1.95-5.88,1.88-6.19-.2-.84-4.29-2.1-4.32-6.76-.03-6.82,6.2-10.65,12.51-10.31.07-7.37.05-14.72-.48-22.06-10.4,3.04-20.5,7.14-30.38,11.58s-20.02,9.19-29.09,14.07c-2.5,1.35-9.25,6.22-11,6.75-1.18.35-2.4.27-3.61.21-7.57-.38-15.89-2.58-23.61-2.76-5.36-4.53-9.94-10.24-15.47-14.74-11.38-9.27-32.92-21.18-47.1-24.84-.93-.24-1.82-.45-2.79-.33ZM210.45,256.64c-.34-.24-3.23,1.54-4.28.94l.93,20.32c5.73,2.6,10.89,5.38,13.69,11.34,3.3,7.02,3.12,18.32-3.36,23.48-4.2,3.35-8.15,2.47-12.97,3.34-.84,1.21.2,18.07-.2,21.38-.64,5.28-11.06,9.26-15.51,11.34-11.55,5.41-23.65,9.69-35.33,14.79l9.12,5.98c6.52,5.17,11.52,15.13,18.25,19.64,2.47,1.65,17.1,7.69,19.09,6.45.19-.12,1.84-3.92,1.88-4.14.23-1.26-1.06-2.35.36-3.94.71-.8,7.27-3.38,9-4.42,18.79-11.26,29.5-42.39,27.13-63.39-2.15-19.02-8.34-28.5-16.66-44.73-3.75-7.32-4.49-9.44-9.86-16.04-.5-.61-1.17-2.26-1.27-2.34ZM34.15,263.02c-9.25,6.32-15.86,24.32-3.96,31.21,2.98,1.72,4.09,2.13,7.54.91,6.07-2.15,6.19-10.21,4.02-15.35-.94-2.23-4.74-6.14-4.89-7.63-.32-3.24,4.86-6.19,2.8-9.47-1.07-1.7-4.08-.65-5.51.33ZM13.12,265.73v.48c.31-.16.31-.32,0-.48ZM199.32,283.59c-1.98.32-4.46,1.85-4.7,3.94-.46,3.93,1.59,2.82,3.63,4.57,3.27,2.8-.72,6.23-1.16,9.4-.36,2.61-.65,6.64,2.08,7.9,4.34,2,13.47,2.04,16.5-2.27,4.43-6.32,1.33-19.84-6.28-22.33-1.87-.61-3.18-.15-4.88-.39-1.98-.29-2.33-1.29-5.19-.82ZM77.63,371.24c.2-.74-.21-.8-.48-1.2-3.13-4.64-7.61-9.23-10.94-14-.67-.96-3.07-5.45-3.44-5.67-1.21-.74-5.61.4-7.8.12-4.48-.58-8.62-4.31-13.31-4.67-1.47,5.31,2.96,11.58,5.74,16.08s8.25,13.8,14.59,13.17c1.01-.1,2.05-.99,3.14-1.21,4.18-.84,8.4-1.4,12.49-2.62ZM130.38,365.01c-11.25,4.54-22.02,1.15-33.33,0-.81-.08-1.78.58-2.84.48-6.3-.58-15.97-8.96-21.85-11.77-.78-.37-1.49-.84-2.42-.7,7.06,9.21,13.68,18.79,24.02,24.66,8.79,4.99,21.35,7.22,31.31,5.97,2.86-.36,5.67-1.17,8.45-1.87-1.67-5.4-4.99-10.95-3.35-16.77ZM174.03,390.9c.65-.7-4.19-5.28-4.78-6.01-3.6-4.43-11.9-15.52-17.64-16.45-1.42-.23-2.74.73-4.57.3-2.49-.58-12.34-7.46-12.3-.69.03,4.48,3.2,9,4.85,12.93,2.78,6.64,3.84,15.83,13.06,14.67,2.11-.26,3.64-1.76,5.43-2.24,4.89-1.3,11-.64,15.95-2.52Z" fill="#624f3d"/><path d="M49.17,106.6c1.56-.15,2.8,1.73,2.37,3.26-.31,1.1-4.31,6.57-5.35,6.73-6.03.89-.01-9.7,2.98-9.99Z" fill="#fedf76"/><path d="M39.61,93.66c2.35-.5,3.99-.26,3.49,2.51-.43,2.35-9.21,6.83-9.62,2.39-.18-1.96,4.48-4.55,6.13-4.9Z" fill="#fedf76"/><path d="M35.32,78.82c6.48-.62,6.65,4.81-.63,5.14-6.29.28-5.28-4.57.63-5.14Z" fill="#fedf76"/><path d="M302.08,282.99c-3.94-1.09-7.1-5.39-9.31-8.67-1.72-2.56-6.59-12.72-8.58-13.52-1-.4-2.14-.06-2.77.82-1.25,1.74.9,11.52,1.02,14.4.26,6.24-.65,14.28-2.29,20.29-.93,3.4-2.33,6.6-3.97,9.7-.9.1-.39-1-.33-1.53.68-6.72,1.79-17.55.79-24.09-.39-2.57-3.09-3.04-4.79-1.5-1.11,1.01-5.5,17.08-6.68,20.18-.67,1.75-3.58,8.87-4.56,9.83-.61.6-7.64,1.25-7.92.95-.02-2.78-1.81-16.51-3.83-17.51-5.69-2.82-4.9,7.39-5.34,10.5-.28,1.93-.66,4.17-1.15,6.05-.14.55.03,1.56-.7,1.44-.86-12.39-7.23-21.69-12.72-32.12-3.09-5.86-5.23-11.83-9.14-17.23-1.02-1.41-4.66-4.91-4.99-6.05-.28-.98.27-.59.69-.72,12.89-3.95,22.78-9.3,21.36-24.68-.77-8.32-5.67-15.45-14.86-13.2-2.52-15.28-5.87-33.36-16.32-45.31-4.52-5.17-16.5-14.82-22.68-17.6-1.77-.8-3.74-1.18-5.54-1.9-.07-6.89-.1-13.82-1.18-20.64-.55-3.49-2.18-14.8-7.15-9.37-2.83,6.36-4.96,14.92-8.42,20.84-.36.62-.45,1.04-1.31,1.11s-5.77-1.49-7.34-1.79c-13.33-2.49-25.16-2.65-38.63-1.05-3.62.43-7.28,1.11-10.85,1.86-.53-.57,3.93-12.59,4.71-14.23,1.19-2.5,5.26-7.59,4.88-9.96-.86-5.37-10.37,3.24-12,4.76-3.29,3.08-7.35,7.92-9.98,11.61-1.62,2.28-4.62,8.7-5.85,9.97-1.43,1.48-11.89,5.78-14.7,7.36-20.79,11.72-33.59,28.82-33.27,53.53.06,4.81,1.56,10.12,1.93,14.9.54,6.92.31,13.94.96,20.86-8.63-1.99-4.78,11.55-6.32,16.46-.27.92-5.71,4.39-6.89,5.58-4.34,4.4-6.63,11.74-7.42,17.76-.83.12-.46-1.09-.48-1.67-.27-7.77-.72-9.64,2.04-17.15.93-2.53,3.88-7.45,3.76-9.72-.14-2.56-2.61-2.62-4.54-1.61-2.9,1.51-10.98,13.86-13.48,13.37-.56-.11-.77-1.11-.77-1.67,0-2.35,5.81-8.12,7.43-10.36,23.29-32.25,16.53-70.62,34.25-104.83,5.65-10.92,22.86-29.48,32.94-36.61,3.75-2.65,5.15-.37,9.12,0,1.99.18,5.2.18,7.2.02,2.63-.21,7.23-2.16,9.05-1.93,2.65.34,9.44,5.23,12.58,6.64,4.28,1.91,9.02,3.51,13.8,2.91,1.93-.24,4.88-2.39,6.29-3.79,7.07-7.02,11.45-17.74,15.56-26.64,17.17-.55,35.53.14,50.81,8.68,47.32,26.47,71.97,66.22,81.42,119.05,2.99,16.72,3.04,33.63,8.9,49.61,2.21,6.02,5.41,11.65,7.55,17.62Z" fill="#fddc6f"/><path d="M44.06,228.32c-.63-12.53-4.13-24.95-.93-37.62,3.93-15.57,16.33-27.24,29.87-34.88,3.23-1.82,12.74-5.49,14.75-7.31,1.09-.99,4.99-9.1,6.76-11.47s3.78-4.53,5.92-6.55c-.33,4.09-5.48,13.27-3.16,16.94,1.26,1.99,10.42-.71,12.83-1.04,14.41-1.99,27.65-2.35,41.98.54,3.68.74,10.15,4.48,12.16.36l6.93-15.37c1.74,6.26.27,13.27.96,19.42.57,5.04,6.15,5.01,9.92,6.87,5.21,2.56,17.06,12.93,20.76,17.6,8.37,10.56,11.85,28.16,14.27,41.37.47,2.58-.44,9.43,3.63,8.18,1.9-.58.91-5.61,6.69-4.12,4.37,1.12,5.32,12.16,4.07,15.82-2.77,8.08-11.43,9.74-18.1,12.36.12-8.79-8.7-15.33-16.19-18.1-13.74-5.09-27.67.06-35.72,12-1.08,1.6-3.65,5.2-2.77,7.06-8.85,3.71-22.97,13.07-29.75,19.89-1.09,1.1-4.38,6-4.78,6.25-1.38.83-3.16-.18-4.56-.23-1.67-.06-8.89.12-9.73-1.06-.18-.25-1.06-4.19-1.59-5.36-4.92-10.86-26.34-28.33-37.35-32.91-6.37-9.06-16.54-10.4-26.86-8.63ZM91.32,186.6c-2.55.76,2.26,7,3.31,7.7,1.78,1.19,3.36.05,2.43-1.95-.14-.29-3.79-4.86-4.04-5.07-.5-.41-.96-.9-1.69-.69ZM144.65,188.59c-1.32.2-6.03,3.83-7.09,4.94-.66.69-2.73,2.99-1.43,3.88,1.78,1.21,3.78-2.12,5.07-3.12.8-.62,4.6-3.06,4.79-3.37.7-1.15.23-2.56-1.33-2.33ZM77.03,203.01c-5.25.82-10.27,6.19-11.17,11.37-2.7,15.41,17.17,23.28,25.89,11.03,7.63-10.72-1.78-24.42-14.72-22.4ZM150.41,205.41c-5.25.82-10.27,6.19-11.17,11.37-2.7,15.41,17.17,23.28,25.89,11.03,7.63-10.72-1.78-24.42-14.72-22.4ZM228.6,230.62c.38-.66.15-2.55-.64-2.78-.32-.09-5.59,2.14-6.14,2.46-1.54.91-6.15,5.86-4.9,7.63,2.04,2.87,3.84-4,5.32-4.33,1.84-.41,1.18,6.13,4.09,4.1,1.69-1.18-1.01-4.88-.97-5.31.05-.59,2.96-1.28,3.24-1.77ZM120.64,228.49c-3.5-.06-8.11,2.16-11.87,1.96-1.29.53-2.12,1.55-2.34,2.93-.99,6.22,4.23,21.42,7.46,27.02,1.67,2.9,4.91,4.86,6.41.76s3.16-18.14,3.39-22.99c.15-3.19,1.14-9.61-3.05-9.68Z" fill="#fdfdfd"/><path d="M38.3,246.54c.97-.12,1.86.09,2.79.33,14.18,3.66,35.72,15.57,47.1,24.84,5.53,4.51,10.11,10.22,15.47,14.74,7.73.18,16.05,2.38,23.61,2.76,1.21.06,2.43.14,3.61-.21,1.74-.52,8.5-5.4,11-6.75,9.07-4.88,19.66-9.83,29.09-14.07s19.98-8.53,30.38-11.58c.53,7.34.55,14.69.48,22.06-6.31-.34-12.54,3.49-12.51,10.31.02,4.66,4.12,5.92,4.32,6.76.08.31-1.72,4.65-1.88,6.19-.66,6.59.69,11.39,7.7,13-.83,4.55,1.32,19.49-.78,22.7-1.05,1.61-15.76,7.97-18.59,9.23-12.08,5.34-24.55,10.47-36.96,14.77-2.08-.56-4.08-1.48-6.29-1.46-1.74.01-3.11,1.01-3.84.98s-1.38-.97-2.86-.99c-2.41-.04-6.37,2.08-9.18,2.4-5.96.67-14.02-1.16-20.1-1.86-4.32-.5-5.3.06-9.68-1.83-7-3.02-13.71-8.5-20.45-12.17-5.02-2.73-10.54-4.52-15.34-7.68-3.02-1.99-5.61-4.7-8.53-6.82-2.52-1.83-5.51-3-7.87-5.08l-1.13-26.08c1.72-1.29,3.73-1.72,5.44-3.19,5.5-4.74,5.98-12.88,3.49-19.3-.71-1.84-4.02-6.11-4.14-6.94-.14-.99,2.07-3.76,2.3-5.69.5-4.23-2.19-10.25-7.15-8.83-.21-.56.48-1.08.48-1.2v-9.35ZM104.36,290.74c-2.1.57-2.06,5.3-2.26,7.37-1.51,15.64-1.79,32.66-2.41,48.43-.1,2.59-2.04,10.6,2.21,10.8,3.76.18,2.43-6.54,2.57-8.9,1.03-17.87,2.42-35.83,2.92-53.68.05-1.94-.55-4.69-3.04-4.02ZM126.89,296.5c-1.42.42-1.64,3.56-1.77,4.96-1.51,15.4-2.12,32.49-2.41,47.95-.03,1.58-1.36,4.65.96,5.76,3.66,1.77,4.12-3.76,4.31-6.24,1.05-13.49,1.63-29.1,1.94-42.66.07-2.82,1.27-11.04-3.04-9.77ZM191.66,322.69c1.81-1.79-.2-4.13-2.53-4.23-6.29-.28-9.05,7.08-4.81,11.56,1.99,2.1,4.37,1.3,6.97,1.42-.04,4.79-8.56.75-7.59,5.88.88,4.66,11.37,1.31,12.65-3.47.67-2.51-.71-6.5-3.47-7.11-1.43-.32-4.9.49-5.36-.88-1.2-3.61,2.98-2.02,4.14-3.17ZM169.83,337.78c-2.15,2.15.58,5.45,3.23,5.93,7.6,1.39,8.54-5.95,8.16-11.55-.16-2.31-1.16-12.55-5.28-10.09-2.62,1.57,1.96,12.02.25,15.59-1.34,2.78-3.94-2.3-6.36.12Z" fill="#c3c3c3"/><path d="M133.75,110.82c-1.71-4.06-4.36-7.95-7-11.47-18.7-24.89-49.79-43.98-80.4-49.1-.62-.1-2.15-.15-1.8-1.05.59-1.51,6.65-8.57,8.13-10.09,19.7-20.22,54.42-30,78.82-12.14,27.48,20.12,23.95,60.98,2.24,83.85Z" fill="#fdfdfd"/><path d="M210.45,256.64c.11.08.78,1.73,1.27,2.34,5.37,6.6,6.11,8.71,9.86,16.04,8.32,16.23,14.51,25.71,16.66,44.73,2.37,21.01-8.34,52.13-27.13,63.39-1.73,1.04-8.29,3.62-9,4.42-1.42,1.6-.13,2.68-.36,3.94-.04.22-1.68,4.02-1.88,4.14-1.99,1.24-16.62-4.8-19.09-6.45-6.73-4.51-11.73-14.47-18.25-19.64l-9.12-5.98c11.68-5.1,23.78-9.38,35.33-14.79,4.45-2.09,14.88-6.06,15.51-11.34.4-3.31-.65-20.17.2-21.38,4.82-.87,8.77,0,12.97-3.34,6.48-5.16,6.66-16.45,3.36-23.48-2.8-5.96-7.96-8.74-13.69-11.34l-.93-20.32c1.05.6,3.94-1.18,4.28-.94Z" fill="#fdfdfc"/><path d="M196.57,87.32c-13.47-4.07-27.71-4.49-41.72-4.32-.43-.44,1.33-8.85,1.43-10.32,1.54-21.35-7.55-42.79-26.82-53.03,5.31-11.06,21.36-15.28,32.82-14.34,8.39.69,21.52,7.38,27.09,13.68,12.26,13.85,12.12,43.56,8.99,60.75-.47,2.56-1.17,5.06-1.78,7.58Z" fill="#fdfdfd"/><path d="M66.94,61.49c1.39-.42,4.27,1.13,5.74,1.76,14.53,6.22,29.2,17.68,40.39,28.72-5.77,15.34-22.6,17.11-35.59,9.16-10.43-6.39-17.03-18.64-14.89-31.01.32-1.84,2.51-8.08,4.34-8.63Z" fill="#fddc6f"/><path d="M130.38,365.01c-1.64,5.82,1.68,11.37,3.35,16.77-2.78.7-5.59,1.51-8.45,1.87-9.97,1.25-22.53-.99-31.31-5.97-10.34-5.87-16.96-15.45-24.02-24.66.92-.14,1.64.32,2.42.7,5.88,2.81,15.54,11.18,21.85,11.77,1.05.1,2.03-.57,2.84-.48,11.31,1.16,22.08,4.55,33.33,0Z" fill="#fbfbfa"/><path d="M213.36,249.42c-1.5.59-6.41,3.63-7.21,3.14-.27-.17-.37-.97-.8-1.25-2.34-1.53-6.6.75-6.86.51-.43-2.37-4.17-9.14-6.49-9.58-3.88-.74-12.12,1.46-16.16,2.52-5.24,1.38-12.21,3.54-17.16,5.62-.88-1.86,1.69-5.46,2.77-7.06,8.05-11.94,21.98-17.09,35.72-12,7.49,2.77,16.31,9.31,16.19,18.1Z" fill="#fdc4b9"/><path d="M105.45,278.68c1.11,1.95,8.96,2.76,11.25,2.9,1.9.11,8.05.31,9.51-.12,1.57-.46,2.13-3.02,3.01-4.19,8.83-11.83,30.79-22.54,44.81-26.65,3.2-.94,13.76-3.86,16.45-3.13.64.93,3.83,5.53,3.22,6.24-8.1,2.46-15.95,5.74-23.67,9.19-10.44,4.66-21.91,10.11-31.97,15.51-3.73,2-7.58,5.73-11.73,5.52-6.44-.33-13.55-2.27-20.13-2.42-1.23-.03-1.54-1.26-2.19-1.89,1.13.02,1.66.32,1.44-.96Z" fill="#f9f8f8"/><path d="M174.03,390.9c-4.95,1.88-11.06,1.21-15.95,2.52-1.79.48-3.32,1.98-5.43,2.24-9.22,1.16-10.29-8.03-13.06-14.67-1.64-3.93-4.82-8.45-4.85-12.93-.04-6.77,9.8.11,12.3.69,1.83.42,3.15-.54,4.57-.3,5.74.94,14.04,12.02,17.64,16.45.59.73,5.43,5.31,4.78,6.01Z" fill="#fcfbfb"/><path d="M77.63,371.24c-4.09,1.22-8.32,1.77-12.49,2.62-1.08.22-2.13,1.11-3.14,1.21-6.34.63-11.73-8.53-14.59-13.17s-7.21-10.77-5.74-16.08c4.69.35,8.83,4.09,13.31,4.67,2.19.28,6.59-.86,7.8-.12.37.23,2.77,4.71,3.44,5.67,3.33,4.76,7.81,9.36,10.94,14,.27.4.68.46.48,1.2Z" fill="#fcfbfb"/><path d="M105.45,278.68c.22,1.28-.3.98-1.44.96-10.01-9.81-19.21-17.87-31.64-24.71-6.31-3.47-15.15-6.2-20.63-9.82v-.96c9-7.24,15.23-3.98,23.94,1.24,7.64,4.57,23.36,17.7,27.29,25.46,1.16,2.29,1.68,6.41,2.48,7.83Z" fill="#fefefe"/><path d="M199.32,283.59c2.86-.47,3.2.53,5.19.82,1.7.25,3.01-.22,4.88.39,7.61,2.49,10.71,16.01,6.28,22.33-3.02,4.31-12.16,4.27-16.5,2.27-2.73-1.26-2.45-5.29-2.08-7.9.44-3.17,4.43-6.6,1.16-9.4-2.04-1.75-4.09-.64-3.63-4.57.24-2.08,2.72-3.61,4.7-3.94Z" fill="#fcfbfb"/><path d="M34.15,263.02c1.44-.98,4.44-2.03,5.51-.33,2.07,3.27-3.12,6.23-2.8,9.47.15,1.49,3.94,5.4,4.89,7.63,2.17,5.14,2.05,13.2-4.02,15.35-3.46,1.22-4.57.82-7.54-.91-11.9-6.89-5.29-24.89,3.96-31.21Z" fill="#fbfbfa"/><path d="M70.92,236.95c-2.65-1.1-7.93-2.72-10.67-2.29-1.75.27-8.04,3.53-9.79,4.61-2,1.23-5.97,6.12-6.42,2.26s.23-9.03.02-13.21c10.32-1.76,20.49-.42,26.86,8.63Z" fill="#fdc4b9"/><path d="M61.8,58.54c-1.53,3.34-3.3,6.31-4.2,9.94-.24.95.39,2.76-.84,2.53-1.47-.28-10.37-8.67-11.76-10.31-.61-.71-4.05-4.84-3.34-5.53,6.96-.39,13.49,1.87,20.14,3.36Z" fill="#f9f8f8"/><path d="M129.42,113.69c-7.31-.28-13.22-4.92-19.66-7.68-.2-.73.19-.79.47-1.2,1.2-1.74,3.52-3.44,5-5.55.92-1.31,1.01-3.72,2.69-2.61.18.12,2.38,2.83,2.85,3.38,1.01,1.19,9.44,12.94,8.64,13.65Z" fill="#f9f8f8"/><path d="M51.73,245.1c-.14-.09-.67.06-.96,0-.26-.3.72-.76.96-.95v.96Z" fill="#f9f8f8"/><path d="M13.12,265.73c.31.16.31.32,0,.48v-.48Z" fill="#fefefe"/><path d="M77.03,203.01c12.95-2.03,22.35,11.67,14.72,22.4-8.72,12.25-28.59,4.38-25.89-11.03.91-5.18,5.92-10.55,11.17-11.37ZM77.5,208.28c-9.89,2.02-8.01,18.63,2.7,18.09,12.96-.66,11.17-20.92-2.7-18.09Z" fill="#624f3e"/><path d="M150.41,205.41c12.95-2.03,22.35,11.67,14.72,22.4-8.72,12.25-28.59,4.38-25.89-11.03.91-5.18,5.92-10.55,11.17-11.37ZM150.88,210.68c-9.89,2.02-8.01,18.63,2.7,18.09,12.96-.66,11.17-20.92-2.7-18.09Z" fill="#624f3e"/><path d="M120.64,228.49c4.19.07,3.2,6.49,3.05,9.68-.23,4.84-1.84,18.78-3.39,22.99s-4.73,2.14-6.41-.76c-3.23-5.59-8.45-20.8-7.46-27.02.22-1.38,1.05-2.4,2.34-2.93,3.76.2,8.36-2.02,11.87-1.96ZM118.87,233.6c-1.1.55-7.01.9-7.21,1.75,0,5.94,2.11,11.55,4.34,16.95.74-.09.75-.69.91-1.24.53-1.92,2.54-16.79,1.96-17.46Z" fill="#624f3e"/><path d="M228.6,230.62c-.28.48-3.19,1.18-3.24,1.77-.04.43,2.67,4.14.97,5.31-2.92,2.03-2.25-4.51-4.09-4.1-1.48.33-3.28,7.2-5.32,4.33-1.26-1.77,3.35-6.72,4.9-7.63.56-.33,5.83-2.56,6.14-2.46.79.23,1.02,2.12.64,2.78Z" fill="#624f3e"/><path d="M144.65,188.59c1.57-.23,2.03,1.17,1.33,2.33-.19.31-3.98,2.74-4.79,3.37-1.29,1-3.28,4.33-5.07,3.12-1.3-.88.78-3.19,1.43-3.88,1.05-1.11,5.77-4.74,7.09-4.94Z" fill="#624f3e"/><path d="M91.32,186.6c.74-.22,1.19.28,1.69.69.25.21,3.91,4.78,4.04,5.07.93,2-.65,3.14-2.43,1.95-1.04-.7-5.86-6.94-3.31-7.7Z" fill="#624f3e"/><path d="M104.36,290.74c2.49-.67,3.09,2.07,3.04,4.02-.5,17.85-1.89,35.81-2.92,53.68-.14,2.36,1.19,9.08-2.57,8.9-4.25-.2-2.31-8.21-2.21-10.8.62-15.77.89-32.79,2.41-48.43.2-2.07.16-6.8,2.26-7.37Z" fill="#604e3d"/><path d="M126.89,296.5c4.3-1.27,3.1,6.95,3.04,9.77-.32,13.56-.89,29.17-1.94,42.66-.19,2.49-.65,8.01-4.31,6.24-2.32-1.12-.99-4.18-.96-5.76.29-15.46.9-32.55,2.41-47.95.14-1.4.35-4.54,1.77-4.96Z" fill="#604e3d"/><path d="M191.66,322.69c-1.16,1.15-5.35-.44-4.14,3.17.46,1.37,3.92.57,5.36.88,2.76.61,4.15,4.59,3.47,7.11-1.28,4.78-11.77,8.12-12.65,3.47-.97-5.13,7.55-1.09,7.59-5.88-2.61-.12-4.98.69-6.97-1.42-4.24-4.48-1.47-11.84,4.81-11.56,2.33.1,4.34,2.44,2.53,4.23Z" fill="#624f3e"/><path d="M169.83,337.78c2.42-2.42,5.02,2.66,6.36-.12,1.72-3.57-2.86-14.02-.25-15.59,4.11-2.47,5.12,7.78,5.28,10.09.38,5.6-.56,12.94-8.16,11.55-2.65-.48-5.38-3.78-3.23-5.93Z" fill="#624f3e"/><path d="M77.5,208.28c13.88-2.83,15.67,17.43,2.7,18.09-10.71.55-12.6-16.07-2.7-18.09Z" fill="#fbfbfa"/><path d="M150.88,210.68c13.88-2.83,15.67,17.43,2.7,18.09-10.71.55-12.6-16.07-2.7-18.09Z" fill="#fbfbfa"/><path d="M118.87,233.6c.58.67-1.43,15.54-1.96,17.46-.15.55-.17,1.15-.91,1.24-2.23-5.4-4.33-11-4.34-16.95.2-.85,6.1-1.2,7.21-1.75Z" fill="#f9f8f8"/></g></svg>